<svg width="154" height="154" viewBox="0 0 154 154" fill="none" xmlns="http://www.w3.org/2000/svg">
<path d="M121.074 27.1696L121.048 27.1527C113.923 24.3054 106.104 21.8893 98.3678 23.3164C91.2552 24.6253 85.1923 29.9486 78.1465 28.3082C72.1879 26.9202 68.182 21.5831 62.4053 19.7394C58.8747 18.7217 55.1177 18.8055 51.636 19.9795C47.593 21.3467 43.7471 23.2388 40.1968 25.6074C39.9436 25.7754 39.5009 25.9458 39.448 26.2726C39.4442 26.3286 39.4886 34.7893 39.5163 34.8522C39.5646 34.566 39.8002 34.4532 40.0672 34.276C45.3061 30.7918 51.8362 26.9739 58.0212 27.9483C61.7646 28.5376 64.9089 30.7726 68.0884 32.677C75.5202 37.1271 82.7539 37.7241 89.466 35.5028C94.5974 33.8041 96.8117 30.3276 105.404 30.4243C112.531 30.501 115.164 32.0931 121.12 35.8911C121.356 36.0445 121.059 37.8568 121.268 27.4404C121.27 27.3802 121.252 27.321 121.217 27.2721C121.182 27.2231 121.132 27.1871 121.074 27.1696Z" fill="#77751E"/>
<path d="M121.266 36.1274C121.264 36.0771 121.247 36.0285 121.219 35.987L121.207 35.9724C121.191 35.9508 121.172 35.9319 121.15 35.9164C121.14 35.9088 121.134 35.898 121.123 35.8911C116.494 32.9402 113.665 31.0965 108.496 30.5786C105.651 30.2812 102.779 30.4024 99.9693 30.9384C96.4767 31.6834 93.6693 33.9116 90.3931 35.1852C85.7087 36.979 80.5785 37.2525 75.7299 35.9671C67.6644 33.8256 64.2209 28.9259 58.0237 27.9484C51.8265 26.9709 45.3109 30.7873 40.0697 34.276C39.7567 34.4839 39.548 34.5714 39.5004 34.9359C39.436 38.4361 39.5564 42.0346 39.5564 44.806C39.5571 44.755 39.5712 44.7051 39.5972 44.6612C39.6232 44.6173 39.6602 44.581 39.7045 44.5558C42.047 43.3733 44.4957 42.4141 47.0181 41.6909C62.9235 37.2047 65.1002 45.9216 81.7368 45.4121C84.8507 45.3281 87.9412 44.8483 90.934 43.9842C96.08 42.4566 100.839 39.7228 106.142 39.8947C111.596 40.0712 116.281 42.6684 121.124 45.1719C121.167 45.1934 121.203 45.2262 121.229 45.2668C121.255 45.3073 121.269 45.3542 121.269 45.4021C121.289 45.3277 121.292 36.2041 121.266 36.1274Z" fill="#C0C195"/>
<path d="M121.268 45.4151C121.268 45.3652 121.255 45.3161 121.23 45.2732C121.204 45.2304 121.167 45.1953 121.123 45.1719C117.052 43.0681 113.424 41.0893 109.265 40.2614C102.075 38.8297 97.2366 42.2563 90.2222 44.2013C84.6688 45.6198 78.8758 45.832 73.2335 44.8236C68.0706 43.9028 62.7649 41.0218 57.6634 40.52C51.7555 39.9391 45.0588 41.8527 39.7033 44.5558C39.6588 44.5808 39.6217 44.6171 39.5957 44.661C39.5697 44.7049 39.5557 44.7549 39.5552 44.8059L39.6603 63.0538C39.661 63.106 39.6753 63.1571 39.7017 63.2022C39.7282 63.2472 39.7659 63.2846 39.8112 63.3106C39.8565 63.3366 39.9078 63.3504 39.9601 63.3506C40.0123 63.3507 40.0637 63.3373 40.1091 63.3116C42.1005 62.0001 44.3231 61.0791 46.6585 60.5977C51.8283 59.5029 57.1194 59.6701 62.0943 62.0617C64.4499 63.2944 66.8781 64.3829 69.3657 65.321C82.3777 69.6108 91.6931 55.2699 103.698 57.376C110.676 58.6036 112.811 64.7325 120.973 65.3141C121.052 65.3133 121.127 65.2816 121.183 65.2258C121.239 65.17 121.27 65.0946 121.271 65.0157C121.271 64.9259 121.284 45.4987 121.268 45.4151Z" fill="#D5E04F"/>
<path d="M27.174 35.9157C27.0801 34.9034 26.7812 33.9208 26.2954 33.0278C26.0928 32.7186 25.8129 32.4677 25.4834 32.3C25.154 32.1323 24.7864 32.0536 24.4172 32.0717C24.3451 32.0688 24.2766 32.0397 24.2243 31.99C24.172 31.9402 24.1396 31.8732 24.133 31.8014C24.1265 31.7296 24.1462 31.6578 24.1886 31.5994C24.231 31.541 24.2931 31.5 24.3635 31.484C23.8161 31.5092 23.2793 31.643 22.7842 31.8776C22.289 32.1122 21.8455 32.4429 21.4793 32.8505C21.5252 32.8484 21.5709 32.8571 21.6127 32.8759C21.6546 32.8947 21.6915 32.9232 21.7203 32.9589C21.7491 32.9946 21.7692 33.0366 21.7788 33.0815C21.7883 33.1264 21.7872 33.1729 21.7755 33.2173C21.6206 33.8236 21.4873 34.4352 21.3757 35.051C21.3105 35.4293 20.7358 35.2682 20.8003 34.893C20.9085 34.2677 21.1072 33.449 21.2 33.0584C21.2128 33.0033 21.2425 32.9536 21.2851 32.9163C21.3276 32.879 21.3808 32.856 21.4371 32.8505C21.294 32.3337 21.0362 31.8557 20.6829 31.4523C20.3295 31.0488 19.8897 30.7303 19.3962 30.5203C17.8425 29.8528 15.6765 30.4712 14.4473 32.5498C14.3392 32.0909 14.0976 31.6745 13.753 31.3528C12.2184 30.073 9.56984 30.2871 7.88262 33.2188C7.93483 33.172 8.0018 33.145 8.07187 33.1426C8.14194 33.1401 8.21065 33.1623 8.26601 33.2053C8.32137 33.2484 8.35986 33.3095 8.37477 33.378C8.38968 33.4465 8.38006 33.518 8.34758 33.5802C7.76481 34.7589 7.26861 35.9785 6.86293 37.2293C6.50808 38.0468 6.24708 38.9019 6.08492 39.7782C5.88697 41.4324 7.08083 42.5065 8.78186 42.4053C11.544 42.2518 12.2345 39.4007 13.4798 36.5334C13.492 36.4953 13.5104 36.4595 13.5343 36.4275C13.5621 36.3777 13.6074 36.3401 13.6614 36.3218C13.7154 36.3035 13.7743 36.3059 13.8266 36.3285C13.8666 36.3352 13.9048 36.3502 13.9386 36.3726C13.9724 36.395 14.0011 36.4243 14.0228 36.4586C14.0445 36.4928 14.0588 36.5313 14.0646 36.5714C14.0705 36.6115 14.0678 36.6524 14.0568 36.6914C13.7477 37.7721 13.6204 38.8967 13.6801 40.0191C13.6504 40.48 13.7169 40.942 13.8754 41.3758C14.0339 41.8096 14.2809 42.2056 14.6008 42.5388C15.0048 42.8793 15.4938 43.1037 16.0154 43.1879C16.5371 43.2721 17.0718 43.213 17.5624 43.0168C17.9092 42.8327 18.2079 42.5699 18.4348 42.2495C19.4999 40.6694 20.1732 38.8583 20.399 36.9661C20.4389 36.6592 20.9085 36.5273 20.9852 36.8894C21.2959 38.3564 21.6105 40.1886 22.4207 41.3556C22.7316 41.7565 23.1523 42.0584 23.6317 42.2243C24.1111 42.3903 24.6284 42.4132 25.1206 42.2904C25.6128 42.1675 26.0586 41.9041 26.4037 41.5323C26.7488 41.1604 26.9783 40.6963 27.0642 40.1963C27.2822 38.7799 27.319 37.3415 27.174 35.9157ZM14.4842 34.5868C14.4159 34.9643 13.8412 34.8032 13.9087 34.428C13.9225 34.3513 14.0737 33.3377 14.1044 33.0469C14.1427 32.6679 14.7397 32.6633 14.7005 33.0469C14.6432 33.5622 14.571 34.0757 14.4842 34.5868Z" fill="#9E647B"/>
<path d="M67.5004 62.7422C67.3777 61.9793 67.0165 61.2748 66.4685 60.7299C65.9206 60.185 65.2141 59.8277 64.4505 59.7092C63.5685 59.6149 62.6847 59.8715 61.9904 60.4235C61.296 60.9756 60.8469 61.7788 60.74 62.6594C61.3125 62.4008 61.9529 62.333 62.5669 62.466C62.6041 62.4732 62.6393 62.4882 62.6701 62.5102C62.701 62.5322 62.7267 62.5606 62.7457 62.5934C62.9588 62.3093 63.2283 62.0722 63.5373 61.897C63.8462 61.7218 64.188 61.6123 64.5412 61.5752C64.8944 61.5381 65.2515 61.5743 65.5901 61.6815C65.9287 61.7887 66.2416 61.9646 66.5091 62.1982C66.7937 62.4568 66.3725 62.8765 66.0871 62.6195C65.8722 62.4341 65.6195 62.2977 65.3466 62.2197C65.0737 62.1417 64.7871 62.1239 64.5067 62.1677C64.2263 62.2115 63.9587 62.3158 63.7226 62.4733C63.4865 62.6308 63.2874 62.8377 63.1393 63.0798C63.1094 63.1287 63.0663 63.168 63.0149 63.1932C62.9635 63.2184 62.906 63.2283 62.8491 63.222C62.7922 63.2156 62.7384 63.1932 62.6938 63.1572C62.6492 63.1213 62.6159 63.0734 62.5976 63.0192C62.5389 63.0485 62.4718 63.0561 62.4081 63.0407C62.1222 62.9775 61.8268 62.9714 61.5385 63.0226C61.2503 63.0738 60.9751 63.1814 60.7285 63.3392C60.7508 63.5751 60.7854 63.8097 60.8321 64.042C60.9035 64.5798 61.0881 65.0963 61.3738 65.5575C61.6594 66.0187 62.0397 66.414 62.4894 66.7174C64.9876 68.1215 68.0459 65.7269 67.5004 62.7422Z" fill="#9E647B"/>
<path d="M109.52 108.447C109.208 108.129 99.3094 106.717 99.1337 106.667C98.9496 106.578 98.8022 106.327 98.6664 106.172C95.61 102.749 92.7335 99.1694 90.0485 95.4476C89.8951 95.2366 89.691 94.7839 89.4347 94.7026C88.5131 94.6516 87.5887 94.7015 86.6779 94.8514C84.9153 95.1355 83.1727 95.5317 81.4605 96.0376C74.516 98.1092 63.706 102.491 57.6293 106.565C52.863 109.761 52.8914 110.541 51.9155 115.126C51.5318 116.92 48.3592 133.399 48.1635 134.214C48.1531 134.259 48.1525 134.305 48.162 134.349C48.1714 134.393 48.1906 134.435 48.2181 134.471C48.2456 134.507 48.2808 134.537 48.3211 134.558C48.3614 134.579 48.4059 134.59 48.4513 134.592C48.4513 134.592 70.5769 134.592 70.5899 134.592C70.6548 134.591 70.7177 134.569 70.7694 134.529C70.8211 134.49 70.859 134.435 70.8776 134.373C72.0846 130.39 73.1418 125.914 74.0234 121.845C74.0479 121.771 74.0686 121.696 74.0856 121.62C76.4326 119.796 79.3321 117.553 81.2879 116.26C82.3007 118.274 83.3396 120.287 84.469 122.237C85.3676 123.832 86.7373 125.109 88.3905 125.895C89.179 126.241 90.005 126.495 90.8518 126.651C91.735 126.83 104.793 129.231 107.3 129.806C107.344 129.817 107.39 129.817 107.434 129.808C107.479 129.799 107.52 129.779 107.557 129.752C107.593 129.724 107.622 129.689 107.643 129.649C107.664 129.609 107.676 129.564 107.677 129.519C108.155 123.122 109.045 118.793 109.595 108.649C109.598 108.575 109.571 108.502 109.52 108.447Z" fill="#78B5FF"/>
<path d="M116.953 116.683C116.603 114.549 115.765 112.525 114.505 110.769C114.074 110.046 113.375 109.522 112.56 109.311C112.521 109.311 112.482 109.319 112.446 109.334C112.409 109.349 112.376 109.371 112.349 109.399C112.321 109.427 112.299 109.46 112.284 109.497C112.269 109.533 112.262 109.572 112.262 109.612C113.165 112.09 113.839 114.646 114.276 117.248C114.978 121.523 115.295 125.853 115.223 130.185C115.223 130.224 115.231 130.263 115.246 130.299C115.261 130.335 115.283 130.368 115.311 130.396C115.339 130.423 115.371 130.445 115.408 130.46C115.444 130.475 115.483 130.483 115.522 130.483C115.825 130.461 116.124 130.395 116.409 130.288C116.837 130.091 117.182 129.75 117.385 129.324C117.732 128.538 117.903 127.686 117.885 126.827C117.88 123.161 117.986 121.325 116.953 116.683Z" fill="black"/>
<path d="M51.0116 71.71C45.8048 70.036 41.0941 67.0978 37.3005 63.1581H29.9033C29.8249 63.156 29.7502 63.1238 29.6947 63.0683C29.6391 63.0128 29.607 62.9381 29.6049 62.8596C29.5044 48.8686 29.6816 49.8867 29.5151 49.5944C29.5407 49.6643 29.5391 49.7414 29.5105 49.8102C29.482 49.879 29.4286 49.9346 29.361 49.9659C29.2934 49.9971 29.2165 50.0019 29.1455 49.9791C29.0746 49.9564 29.0148 49.9078 28.978 49.843C28.516 49.0094 27.9652 48.2281 27.3353 47.5128C26.7231 46.6934 25.9441 46.013 25.0499 45.5164C24.1556 45.0198 23.1663 44.7183 22.1471 44.6317C20.3994 44.6645 18.7079 45.2543 17.3187 46.3151C16.6812 46.7285 16.0763 47.1902 15.5095 47.6962C15.2212 47.9022 14.9947 48.1831 14.8547 48.5086C14.7146 48.834 14.6663 49.1916 14.7149 49.5426C14.7635 49.8936 14.9072 50.2245 15.1304 50.4997C15.3537 50.7749 15.6479 50.9837 15.9813 51.1036C18.521 52.1709 21.7527 50.4307 22.0842 50.4046C22.3657 50.3655 22.5 50.8044 22.243 50.9632C19.0831 52.9594 16.3819 55.6024 14.3171 58.7179C14.1061 59.0363 13.589 58.7371 13.8023 58.4164C15.51 55.8346 17.6476 53.5646 20.1223 51.7051C18.511 52.1839 16.5368 52.2867 15.1665 51.3215C15.0629 51.3407 14.0494 51.3215 7.96495 51.2486C7.92011 51.2516 7.87643 51.2642 7.83685 51.2855C7.79726 51.3068 7.76269 51.3363 7.73544 51.3721C7.7082 51.4078 7.68891 51.449 7.67887 51.4928C7.66883 51.5366 7.66827 51.5821 7.67723 51.6261C8.77595 59.2826 15.4995 72.4604 25.4877 80.9118C32.2113 86.6026 40.6266 90.1512 49.2284 92.3441C49.3949 92.3863 50.707 92.7216 50.8758 92.7499C50.8193 92.7282 50.7705 92.6902 50.7355 92.6408C50.7006 92.5914 50.681 92.5327 50.6793 92.4722V72.0139C50.68 71.9743 50.6885 71.9353 50.7044 71.8991C50.7202 71.8629 50.743 71.8301 50.7715 71.8027C50.8001 71.7753 50.8337 71.7539 50.8706 71.7395C50.9074 71.7252 50.9467 71.7183 50.9862 71.7192C51.0353 71.72 51.0607 71.7392 51.0116 71.71Z" fill="#9E647B"/>
<path d="M15.1299 51.2925L15.1718 51.322C15.2036 51.3165 15.1508 51.3057 15.1299 51.2925Z" fill="#9E647B"/>
<path d="M111.354 75.1921C93.4956 71.8637 82.2966 74.3972 67.892 74.1908C62.334 74.1141 56.3339 73.4811 51.0567 71.7256H51.0368C50.9587 71.7105 50.8779 71.7268 50.8119 71.7711C50.7459 71.8154 50.7002 71.884 50.6846 71.9619C50.6738 72.0164 50.6079 86.1103 50.6792 92.4724C50.6805 92.5374 50.7024 92.6002 50.7417 92.6519C50.781 92.7036 50.8357 92.7415 50.8979 92.7602C55.8472 93.9111 60.8564 94.7871 65.9025 95.3842C65.8964 96.4829 65.8879 97.5816 65.8933 98.6834C65.8936 98.7232 65.9018 98.7626 65.9174 98.7991C65.9331 98.8357 65.9558 98.8688 65.9844 98.8965C66.013 98.9243 66.0468 98.946 66.0838 98.9605C66.1209 98.975 66.1604 98.9821 66.2002 98.9811C66.4112 98.9811 73.3434 96.3226 74.4821 95.8921C87.8217 90.8504 92.9164 93.1154 109.297 94.0116C109.376 94.0094 109.45 93.9774 109.506 93.9221C109.561 93.8667 109.594 93.7922 109.596 93.7139C110.363 87.72 110.964 80.2737 111.577 75.4844C111.578 75.4178 111.557 75.3527 111.516 75.2997C111.476 75.2467 111.419 75.2088 111.354 75.1921Z" fill="#CCEAFF"/>
<path d="M37.731 61.8738C37.5522 25.3742 37.6074 26.0287 37.4655 25.8645C37.2959 25.7372 38.1054 25.7187 29.8389 25.7778C29.7599 25.7784 29.6843 25.8101 29.6285 25.8659C29.5727 25.9217 29.541 25.9973 29.5404 26.0763C29.5128 29.918 29.5466 33.7597 29.5581 37.6014H27.8524C27.8594 38.5454 27.7852 39.4882 27.6307 40.4195C27.5122 40.9802 27.2462 41.4992 26.8603 41.9229C26.4744 42.3466 25.9825 42.6597 25.4353 42.8299C24.8881 43.0002 24.3053 43.0214 23.7472 42.8915C23.189 42.7615 22.6756 42.4851 22.2598 42.0906C22.1647 41.9986 21.7151 41.3863 21.7742 41.4645C21.2533 40.5438 20.8925 39.5413 20.7069 38.4998C20.456 39.6079 20.0535 40.676 19.5107 41.674C19.3097 42.1505 19.0099 42.5789 18.6311 42.931C18.2523 43.283 17.8032 43.5508 17.3133 43.7165C16.7284 43.8592 16.1167 43.8496 15.5366 43.6884C14.9566 43.5272 14.4276 43.2198 14.0002 42.7957C13.0895 41.875 13.0235 40.3229 13.0841 39.0246C12.6475 40.2819 11.8972 41.4069 10.9043 42.2932C9.20791 43.5293 6.31839 43.1732 5.63783 41.1615C5.41333 40.3306 5.44354 39.4515 5.72453 38.6379C5.83118 38.3003 5.96775 37.9321 6.09128 37.6014C3.979 37.6014 4.12018 37.5691 3.97517 37.6896C3.83783 37.8431 3.78335 36.9223 3.88693 51.5472C3.88754 51.6261 3.9192 51.7016 3.97506 51.7573C4.03093 51.813 4.1065 51.8445 4.1854 51.8449C5.36392 51.8533 6.54243 51.8533 7.72095 51.8594C7.70868 51.7827 7.69256 51.706 7.68106 51.6293C7.67209 51.5852 7.67265 51.5398 7.68269 51.496C7.69273 51.4521 7.71202 51.411 7.73927 51.3752C7.76652 51.3395 7.80109 51.31 7.84067 51.2887C7.88026 51.2674 7.92393 51.2548 7.96878 51.2518C15.9483 51.3415 15.2064 51.3546 15.1289 51.2955C14.6021 50.9103 14.2457 50.3355 14.1347 49.6925C14.0238 49.0494 14.167 48.3884 14.5343 47.849C15.1288 47.1441 15.8302 46.5367 16.6128 46.0489C20.3394 43.352 23.9785 43.1917 27.1412 46.4326C28.0515 47.3686 28.8429 48.4133 29.4975 49.5431C29.5053 49.5597 29.5112 49.5772 29.5151 49.5952C29.5381 49.6344 29.5627 49.672 29.5849 49.7126C29.5849 50.15 29.5849 60.1359 29.6049 62.8605C29.607 62.939 29.6391 63.0137 29.6947 63.0692C29.7502 63.1247 29.8249 63.1568 29.9033 63.1589H37.4379C37.5167 63.158 37.5921 63.1262 37.6478 63.0704C37.7036 63.0147 37.7353 62.9393 37.7363 62.8605C37.7379 62.5321 37.7333 62.2022 37.731 61.8738Z" fill="#FF4848"/>
<path d="M121.459 76.2554C119.157 76.0083 116.434 75.4674 114.421 76.9682C112.467 78.426 112.956 80.3787 115.197 81.5196C116.205 82.0329 116.297 81.7981 115.131 81.9032C114.143 81.9369 113.193 82.289 112.422 82.9068C112.119 83.248 111.904 83.6587 111.797 84.1026C111.69 84.5464 111.694 85.0098 111.808 85.4518C112.051 86.6088 113.307 87.2932 114.402 87.7383C112.877 87.8641 111.41 88.4441 110.873 89.9357C110.147 91.962 111.728 93.95 114.01 94.2255C115.426 94.4065 116.851 94.4962 118.278 94.494C118.892 94.4879 118.21 93.9838 120.956 80.3871C121.209 79.1342 121.457 77.8804 121.741 76.6352C121.749 76.5915 121.749 76.5465 121.739 76.503C121.729 76.4596 121.71 76.4187 121.684 76.3829C121.657 76.3471 121.624 76.3173 121.585 76.2953C121.546 76.2734 121.503 76.2598 121.459 76.2554Z" fill="#9E647B"/>
<path d="M127.742 68.8842C127.979 69.0617 128.171 69.2918 128.303 69.5563C128.828 70.5921 128.549 69.4796 124.964 92.2274C126.806 89.2514 128.561 86.2149 130.23 83.1177C132.014 79.8031 135.353 73.0872 136.559 70.0742L127.742 68.8842Z" fill="#2755A0"/>
<path d="M141.214 70.7003L137.161 70.1541C135.713 73.7717 132.366 80.4461 130.343 84.1605C128.626 87.3139 126.812 90.4121 124.902 93.4551C124.866 93.5114 124.812 93.5533 124.748 93.5733C124.575 94.6889 123.678 101.01 123.609 101.539C123.589 101.979 123.511 102.415 123.379 102.836C123.281 103.067 123.138 103.277 122.958 103.453C122.779 103.629 122.566 103.768 122.333 103.862L135.785 105.622C135.85 105.623 135.914 105.602 135.966 105.562C136.018 105.523 136.055 105.467 136.072 105.404L136.903 100.068C136.723 99.7033 136.555 99.332 136.402 98.9549C135.478 96.8789 134.796 94.7034 134.37 92.4715C134.259 92.1139 134.772 91.929 134.907 92.1937C135.667 92.915 137.54 94.6835 137.715 94.8492L141.419 71.064C141.445 70.9252 141.387 70.7241 141.214 70.7003Z" fill="#2755A0"/>
<path d="M69.5717 139.726C66.7606 140.48 63.8847 140.965 60.9822 141.177C57.8671 141.402 54.7414 141.442 51.6215 141.298C46.5676 141.057 46.4809 140.716 46.3474 141.058C46.3194 141.104 46.3058 141.157 46.3082 141.211C46.3022 141.527 46.3412 141.841 46.4241 142.146C46.6047 142.659 46.9643 143.091 47.4369 143.361C48.2839 143.814 49.2187 144.079 50.1775 144.138C52.7348 144.452 55.3129 144.564 57.8878 144.471C60.2906 144.339 62.6766 143.989 65.0164 143.427C66.1031 143.113 67.1415 142.652 68.1024 142.055C68.9375 141.655 69.5919 140.956 69.9361 140.096C69.9493 140.046 69.9492 139.992 69.9356 139.942C69.9221 139.891 69.8957 139.845 69.8589 139.808C69.8222 139.771 69.7764 139.744 69.7261 139.729C69.6757 139.715 69.6225 139.714 69.5717 139.726Z" fill="black"/>
<path d="M125.568 68.7937C125.866 68.6257 126.202 68.5365 126.543 68.5343C127.731 67.1792 129.019 65.9162 130.397 64.7563C131.442 63.877 132.646 62.9233 134.052 62.7745C134.708 62.7233 135.363 62.8903 135.914 63.2495C136.466 63.6087 136.883 64.14 137.102 64.7609C137.836 66.5072 137.246 68.3586 136.56 70.0727C136.031 71.3924 135.533 72.4121 134.841 73.9044C131.944 80.1523 128.676 86.2219 125.056 92.0809C124.939 92.2704 124.987 92.0579 124.75 93.5732C124.813 93.5532 124.867 93.5114 124.903 93.4551C126.807 90.4111 128.621 87.3129 130.344 84.1604C133.301 78.7328 136.031 72.8755 136.933 70.7195C137.689 68.9118 138.421 66.9522 137.82 65.0011C137.653 64.3501 137.319 63.7538 136.851 63.271C136.383 62.7881 135.798 62.4354 135.153 62.2474C133.542 61.8798 131.979 62.7515 130.753 63.7052C128.844 65.2074 127.106 66.9137 125.568 68.7937Z" fill="black"/>
<path d="M139.806 96.8496C139.116 96.1751 135.673 92.9127 134.911 92.1938C134.776 91.9291 134.262 92.1171 134.374 92.4716C134.799 94.7038 135.481 96.8793 136.406 98.9549C137.076 100.549 137.836 102.101 139.648 102.052C139.992 102.019 140.32 101.893 140.598 101.688C140.876 101.482 141.092 101.204 141.223 100.885C141.872 99.3286 140.878 97.903 139.806 96.8496Z" fill="#D5E04F"/>
<path d="M149.354 103.078C148.949 102.246 148.357 101.518 147.625 100.951C146.682 100.031 143.712 96.8703 143.116 96.5511C142.847 96.3408 142.502 96.6662 142.646 96.9032C143.675 100.608 144.213 104.597 146.094 106.36C146.375 106.669 146.753 106.874 147.166 106.941C147.579 107.008 148.002 106.934 148.367 106.73C148.91 106.314 149.301 105.731 149.479 105.071C149.658 104.411 149.614 103.711 149.354 103.078Z" fill="#C0C195"/>
<path d="M128.303 69.5566C128.111 69.1877 127.805 68.8906 127.43 68.7093C127.056 68.528 126.633 68.4722 126.224 68.5501C125.815 68.628 125.442 68.8355 125.161 69.1419C124.879 69.4482 124.704 69.8371 124.66 70.251C122.627 83.6014 121.476 91.0576 121.494 91.1436C121.589 90.7814 125.637 83.3666 125.89 82.9108C126.051 82.6185 126.416 82.7957 126.434 83.0689C126.476 82.9922 128.391 71.51 128.501 70.686C128.551 70.2982 128.482 69.9044 128.303 69.5566Z" fill="#77751E"/>
<path d="M126.434 83.0685C126.416 82.7954 126.05 82.6182 125.889 82.9105C124.892 84.7228 121.966 90.1496 121.522 91.0604C121.449 91.2345 121.575 90.4841 119.933 101.247C119.771 101.826 119.807 102.442 120.036 102.998C120.198 103.312 120.447 103.572 120.753 103.748C121.058 103.925 121.409 104.009 121.761 103.992C122.114 103.975 122.454 103.857 122.741 103.652C123.029 103.447 123.251 103.163 123.382 102.836C123.514 102.415 123.592 101.979 123.612 101.539C123.738 100.58 126.446 83.1499 126.434 83.0685Z" fill="#D5E04F"/>
<path d="M24.1393 31.8416C24.154 31.9051 24.1891 31.962 24.2393 32.0035C24.2895 32.0451 24.3519 32.0691 24.417 32.0718C24.8649 32.0472 25.3091 32.1651 25.686 32.4085C26.0628 32.6519 26.3529 33.0084 26.5147 33.4268C27.2029 35.158 27.4449 37.0344 27.2183 38.8835C27.15 39.9984 27.0418 40.9252 26.3375 41.6104L26.3237 41.6257L26.3137 41.6334C25.974 41.953 25.5569 42.1785 25.1035 42.2879C24.6501 42.3973 24.1761 42.3867 23.728 42.2572C21.9127 41.7393 21.5582 39.5963 20.9843 36.8864C20.9075 36.5273 20.438 36.6615 20.3981 36.9631C20.1725 38.8553 19.4992 40.6664 18.4339 42.2465C18.207 42.5669 17.9082 42.8296 17.5615 43.0137C17.0709 43.2099 16.5361 43.2691 16.0145 43.1849C15.4928 43.1007 15.0039 42.8763 14.5999 42.5357C14.28 42.2026 14.033 41.8065 13.8745 41.3727C13.716 40.9389 13.6494 40.4769 13.6791 40.016C13.6381 38.8942 13.7651 37.7726 14.0559 36.6884C14.141 36.3631 13.6415 36.1513 13.5111 36.4582C12.4983 38.8298 11.728 41.3204 10.0646 42.0915C9.25258 42.4628 8.32876 42.507 7.48501 42.215C6.99124 42.038 6.57814 41.6883 6.32192 41.2306C6.0657 40.7729 5.98364 40.2379 6.09089 39.7245C6.37642 38.4691 6.78054 37.2436 7.2978 36.0646C7.58254 35.2148 7.93137 34.3879 8.34128 33.5909C8.38077 33.5237 8.39241 33.4436 8.37374 33.3679C8.35506 33.2921 8.30755 33.2267 8.24131 33.1855C8.17508 33.1442 8.09537 33.1305 8.01916 33.1472C7.94296 33.1639 7.87628 33.2097 7.83335 33.2748C7.66762 33.5817 7.52108 33.8886 7.3822 34.2071C7.36762 34.2408 5.82619 38.3357 5.81161 38.3779C5.34665 39.7306 5.25995 41.2513 6.33489 42.2142C6.78758 42.5722 7.31788 42.8192 7.88323 42.9352C8.44858 43.0513 9.03327 43.0332 9.59039 42.8825C11.4587 42.3976 12.3303 40.7787 13.0891 39.0101C13.0653 40.2623 13.0431 41.8214 14.0052 42.7928C14.4326 43.2168 14.9616 43.5242 15.5416 43.6854C16.1217 43.8466 16.7334 43.8563 17.3183 43.7135C17.8082 43.5478 18.2573 43.28 18.6361 42.928C19.0149 42.5759 19.3147 42.1475 19.5157 41.671C20.0585 40.673 20.461 39.6049 20.7119 38.4968C20.9019 39.7038 21.3668 40.851 22.0707 41.8498C22.6013 42.4624 23.3435 42.8522 24.149 42.9414C24.9545 43.0306 25.764 42.8126 26.4157 42.3309C26.8435 42.0012 27.1882 41.5759 27.422 41.089C27.6558 40.6021 27.7724 40.0673 27.7623 39.5273C27.9548 37.8247 27.8709 36.1023 27.5137 34.4265C27.335 33.6241 26.9645 32.877 26.4341 32.249C25.8848 31.7438 25.1641 31.466 24.4178 31.4718C24.374 31.4749 24.3314 31.4873 24.2929 31.5083C24.2543 31.5292 24.2207 31.5582 24.1943 31.5933C24.1679 31.6283 24.1494 31.6686 24.1399 31.7115C24.1304 31.7543 24.1302 31.7987 24.1393 31.8416Z" fill="black"/>
<path d="M14.4838 34.5866C14.5935 33.9728 14.6902 33.1442 14.7002 33.0444C14.7393 32.6608 14.1424 32.6654 14.104 33.0444C14.0741 33.3368 13.9221 34.3488 13.9083 34.4255C13.8408 34.803 14.4155 34.9641 14.4838 34.5866Z" fill="black"/>
<path d="M21.1997 33.0583C21.0923 33.5018 20.9074 34.2721 20.8 34.8928C20.7355 35.268 21.3102 35.4299 21.3754 35.0509C21.4874 34.4041 21.6992 33.5041 21.7751 33.2171C21.7962 33.1408 21.7861 33.0593 21.747 32.9904C21.708 32.9216 21.6431 32.8711 21.5668 32.85C21.4905 32.8289 21.409 32.839 21.3401 32.8781C21.2713 32.9172 21.2208 32.982 21.1997 33.0583Z" fill="black"/>
<path d="M38.1394 85.8812C38.4517 86.1053 38.7532 85.5881 38.4402 85.3664L34.5202 82.5513C34.2072 82.3273 33.9064 82.8444 34.2187 83.0669L38.1394 85.8812Z" fill="black"/>
<path d="M65.9097 84.0308V93.4781C65.9097 93.5573 65.9411 93.6332 65.9971 93.6891C66.0531 93.7451 66.129 93.7766 66.2081 93.7766C66.2873 93.7766 66.3632 93.7451 66.4192 93.6891C66.4752 93.6332 66.5066 93.5573 66.5066 93.4781V84.0308C66.5066 83.9516 66.4752 83.8757 66.4192 83.8197C66.3632 83.7637 66.2873 83.7323 66.2081 83.7323C66.129 83.7323 66.0531 83.7637 65.9971 83.8197C65.9411 83.8757 65.9097 83.9516 65.9097 84.0308Z" fill="black"/>
<path d="M96.599 90.8143C96.6673 90.8535 96.7483 90.864 96.8244 90.8437C96.9005 90.8234 96.9655 90.7738 97.0052 90.7057C97.0449 90.6377 97.056 90.5567 97.0363 90.4805C97.0165 90.4043 96.9675 90.3389 96.8997 90.2987C95.8455 89.6821 94.8588 88.9566 93.9557 88.1343C93.6749 87.8726 93.2522 88.2938 93.5337 88.5563C94.4602 89.4304 95.4895 90.1886 96.599 90.8143Z" fill="black"/>
<path d="M108.333 118.47L96.0879 115.584L96.3734 113.057C96.4033 112.794 96.0312 112.673 95.8639 112.846L94.393 114.391C92.7479 112.606 91.421 110.553 90.47 108.32C88.4721 104.215 86.5951 100.057 84.8391 95.8445C84.6565 95.4831 84.2713 95.6143 84.2544 95.9212C84.2437 96.1284 89.2301 107.656 91.5311 111.629C92.2458 112.898 93.1495 114.051 94.2112 115.048C94.2655 115.097 94.3353 115.125 94.4081 115.126C94.4809 115.128 94.552 115.104 94.6086 115.058C94.9431 114.651 95.3018 114.264 95.6828 113.9L95.4795 115.692C95.4727 115.748 95.4778 115.805 95.4943 115.858C95.5108 115.912 95.5384 115.962 95.5754 116.004C95.6123 116.047 95.6578 116.081 95.7088 116.105C95.7598 116.129 95.8153 116.142 95.8716 116.142L108.175 119.042C108.548 119.133 108.707 118.558 108.333 118.47Z" fill="black"/>
<path d="M81.6378 115.427C80.6542 112.621 77.9894 105.777 77.7293 105.174C77.5759 104.822 77.0641 105.125 77.2145 105.474C77.2145 105.474 78.1176 107.759 78.3409 108.335C71.3503 110.501 71.2552 111.097 62.4938 116.544C62.4496 116.571 62.4132 116.609 62.3879 116.654C62.3626 116.699 62.3493 116.75 62.3493 116.802C62.3493 116.854 62.3626 116.904 62.3879 116.949C62.4132 116.995 62.4496 117.032 62.4938 117.059C63.3439 117.558 64.1678 118.1 64.9621 118.684C62.7554 119.198 62.1708 119.248 62.1147 119.566C62.1147 119.566 59.1823 132.639 58.9314 133.684C58.8408 134.058 59.4262 134.206 59.506 133.842C60.2618 130.394 62.4147 120.933 62.6656 119.83C63.0815 119.757 65.3319 119.221 65.7431 119.114C65.7932 119.1 65.8387 119.073 65.8751 119.036C65.9116 118.999 65.9377 118.953 65.9511 118.902C65.9644 118.852 65.9644 118.799 65.951 118.749C65.9377 118.698 65.9116 118.652 65.8751 118.615C65.0249 117.955 64.1358 117.347 63.2127 116.794C71.4715 111.547 71.6948 111.012 78.5511 108.891C78.8058 109.566 80.8797 115.073 81.0623 115.583C81.192 115.949 81.7582 115.774 81.6378 115.427Z" fill="black"/>
<path d="M29.4969 49.5423C27.8089 46.6412 25.1473 43.896 21.7667 44.0295C19.3882 44.1238 16.8816 45.6868 15.1192 47.252C14.7911 47.495 14.5272 47.8144 14.3503 48.1824C14.1734 48.5504 14.0888 48.956 14.1039 49.364C14.119 49.7721 14.2334 50.1703 14.437 50.5242C14.6406 50.8781 14.9274 51.1771 15.2726 51.3952C16.5371 52.2645 18.6271 52.1471 20.1064 51.7236C17.6387 53.5802 15.5069 55.8454 13.8033 58.421C13.59 58.7418 14.1102 59.041 14.3181 58.7226C16.3838 55.6078 19.0848 52.965 22.244 50.9678C22.3065 50.9274 22.3518 50.8652 22.371 50.7933C22.3902 50.7213 22.382 50.6448 22.3479 50.5786C22.3139 50.5124 22.2564 50.4612 22.1867 50.435C22.117 50.4089 22.0401 50.4095 21.9708 50.4369C21.1979 50.7644 20.4009 51.0319 19.5869 51.2371C18.4021 51.581 17.1381 51.5359 15.9808 51.1082C15.6129 50.9619 15.2955 50.7117 15.0674 50.3881C14.8392 50.0646 14.71 49.6817 14.6956 49.286C14.7058 48.9781 14.7839 48.6763 14.9246 48.4022C15.0652 48.1281 15.2647 47.8886 15.5089 47.7008C16.0758 47.1949 16.6806 46.7331 17.3181 46.3197C18.5643 45.3855 20.0404 44.8064 21.5895 44.644C24.7997 44.433 27.4207 47.0333 28.9775 49.8476C29.018 49.9165 29.0842 49.9665 29.1615 49.9866C29.2389 50.0066 29.321 49.9952 29.3899 49.9547C29.4588 49.9142 29.5088 49.848 29.5288 49.7706C29.5489 49.6933 29.5374 49.6111 29.4969 49.5423Z" fill="black"/>
<path d="M79.1055 52.7158C78.4449 52.0851 77.3669 52.2064 76.5329 52.2233C74.2445 52.2744 71.9613 52.4638 69.6958 52.7903C68.1761 52.9888 66.6893 53.3874 65.2741 53.9757C68.3715 51.7397 71.8797 50.1367 75.5976 49.2585C75.9713 49.1711 75.8132 48.5956 75.4388 48.6831C71.5675 49.6002 67.9206 51.2874 64.7155 53.6442C62.779 55.0164 61.3682 57.0078 60.7157 59.2898C60.4244 60.424 60.3592 61.6045 60.5239 62.7639C60.3179 62.8784 60.1269 63.0181 59.9554 63.1798C59.6753 63.4445 60.0973 63.8642 60.3774 63.6025C60.6442 63.351 60.9683 63.1682 61.3216 63.0701C61.675 62.9719 62.0469 62.9614 62.4053 63.0394C62.469 63.054 62.5359 63.0464 62.5948 63.0179C62.6149 63.0704 62.6491 63.1164 62.6936 63.1508C62.7382 63.1852 62.7913 63.2067 62.8472 63.213C62.9031 63.2192 62.9596 63.21 63.0107 63.1863C63.0617 63.1626 63.1052 63.1253 63.1365 63.0785C63.2858 62.8378 63.4853 62.6321 63.7215 62.4756C63.9576 62.3191 64.2248 62.2154 64.5047 62.1717C64.7846 62.128 65.0707 62.1453 65.3433 62.2223C65.6159 62.2994 65.8687 62.4344 66.0843 62.6181C66.3697 62.8744 66.7909 62.4555 66.5063 62.1969C66.239 61.9628 65.9262 61.7864 65.5875 61.6788C65.2489 61.5713 64.8916 61.535 64.5382 61.5721C64.1848 61.6092 63.8429 61.7189 63.534 61.8945C63.225 62.07 62.9557 62.3075 62.7428 62.5921C62.725 62.5584 62.6996 62.5293 62.6685 62.5072C62.6375 62.4851 62.6017 62.4705 62.5641 62.4647C61.9499 62.336 61.3108 62.4036 60.7372 62.658C60.8499 61.7795 61.3011 60.9797 61.9947 60.429C62.6883 59.8782 63.5696 59.6201 64.4508 59.7094C65.2148 59.8278 65.9217 60.185 66.4701 60.7298C67.0186 61.2747 67.3804 61.9792 67.5037 62.7424C73.4807 61.3123 74.3408 61.0644 75.9943 60.5304C77.4014 60.0762 78.3513 58.6997 77.4521 57.5626C76.892 56.9396 75.9175 57.0094 74.5687 56.9534C77.5541 55.8678 78.0613 55.7596 78.7066 55.2578C78.9514 55.0771 79.1493 54.8403 79.2835 54.5672C79.4627 54.2824 79.5424 53.9462 79.5102 53.6112C79.478 53.2762 79.3357 52.9614 79.1055 52.7158Z" fill="black"/>
<path d="M113.787 139.837H105.087C105.01 139.841 104.938 139.874 104.885 139.929C104.833 139.985 104.803 140.058 104.803 140.135C104.803 140.212 104.833 140.285 104.885 140.341C104.938 140.396 105.01 140.429 105.087 140.433H113.787C113.863 140.429 113.935 140.396 113.988 140.341C114.04 140.285 114.07 140.212 114.07 140.135C114.07 140.058 114.04 139.985 113.988 139.929C113.935 139.874 113.863 139.841 113.787 139.837Z" fill="black"/>
<path d="M118.012 137.165L109.56 136.88C109.177 136.867 109.177 137.463 109.56 137.476L118.012 137.762C118.396 137.775 118.395 137.178 118.012 137.165Z" fill="black"/>
<path d="M88.1803 136.108C88.1011 136.108 88.0252 136.139 87.9693 136.195C87.9133 136.251 87.8818 136.327 87.8818 136.406C87.8818 136.485 87.9133 136.561 87.9693 136.617C88.0252 136.673 88.1011 136.704 88.1803 136.704H96.0755C96.1546 136.704 96.2305 136.673 96.2865 136.617C96.3425 136.561 96.3739 136.485 96.3739 136.406C96.3739 136.327 96.3425 136.251 96.2865 136.195C96.2305 136.139 96.1546 136.108 96.0755 136.108C91.2371 136.025 90.9463 136.061 88.1803 136.108Z" fill="black"/>
<path d="M18.961 13.9221C19.3792 15.5871 20.4564 19.5999 20.4564 19.5999C20.4775 19.6762 20.528 19.741 20.5968 19.7801C20.6657 19.8192 20.7472 19.8293 20.8235 19.8082C20.8998 19.7872 20.9647 19.7366 21.0037 19.6678C21.0428 19.5989 21.0529 19.5174 21.0318 19.4411C20.6137 17.7761 19.5364 13.7633 19.5364 13.7633C19.514 13.6887 19.4633 13.6258 19.3951 13.5881C19.3269 13.5504 19.2467 13.5408 19.1716 13.5614C19.0964 13.5821 19.0323 13.6313 18.993 13.6985C18.9536 13.7658 18.9422 13.8458 18.961 13.9214V13.9221Z" fill="black"/>
<path d="M25.187 9.15035L22.83 19.4187C22.7441 19.7923 23.3195 19.9557 23.4055 19.5775L25.7617 9.30918C25.8477 8.93552 25.273 8.77593 25.187 9.15035Z" fill="black"/>
<path d="M60.4128 63.6393C60.4783 63.5779 60.5472 63.5202 60.6192 63.4667C60.9085 64.6721 61.1133 65.8529 62.4607 66.7613C62.9201 66.9955 63.4255 67.1257 63.941 67.1426C64.4564 67.1596 64.9692 67.0629 65.4431 66.8594C65.917 66.6559 66.3402 66.3506 66.6829 65.9651C67.0255 65.5797 67.2791 65.1235 67.4256 64.6291C68.0571 64.8999 68.6962 65.1524 69.3507 65.3687C82.4395 69.6562 91.6858 55.3176 103.683 57.4237C108.113 58.2025 111.134 61.4388 114.823 63.5618C116.759 64.6055 118.892 65.2327 121.084 65.4033C121.176 65.4025 121.264 65.3656 121.329 65.3006C121.395 65.2356 121.432 65.1477 121.433 65.0557C121.5 51.1329 121.216 34.6582 121.356 27.4444C121.356 27.2357 121.224 27.182 121.1 27.1083C113.965 24.2572 106.101 21.841 98.3548 23.2674C91.2492 24.5717 85.1832 29.895 78.1604 28.2592C72.2034 26.872 68.196 21.5341 62.4192 19.6912C57.0415 17.9748 51.3806 19.5738 46.322 22.0774C44.1919 23.0942 42.1362 24.26 40.1701 25.5661C39.9016 25.7441 39.442 25.9214 39.3975 26.2743C39.3975 27.6784 39.4742 36.8434 39.6077 63.0554C39.6085 63.1164 39.6252 63.1761 39.6562 63.2286C39.6871 63.2811 39.7312 63.3247 39.7841 63.355C39.837 63.3853 39.8969 63.4012 39.9579 63.4013C40.0188 63.4014 40.0787 63.3856 40.1317 63.3554C42.1139 62.0356 44.3348 61.1155 46.6696 60.647C51.2155 59.5545 55.9812 59.8096 60.3844 61.3813C60.3781 61.8344 60.4084 62.2872 60.475 62.7355C60.2734 62.8505 60.0861 62.9891 59.9172 63.1483C59.5942 63.4529 60.0875 63.947 60.4128 63.6393ZM63.0561 66.2917C61.8783 65.7808 61.4556 64.4242 61.3596 63.2311V63.1176C62.5796 62.7884 62.8857 63.6079 63.1804 63.1091C63.3258 62.875 63.5201 62.6749 63.7498 62.5226C63.9796 62.3702 64.2395 62.2692 64.5118 62.2264C64.7842 62.1836 65.0625 62.2 65.3279 62.2745C65.5934 62.3489 65.8396 62.4797 66.0499 62.658C66.3753 62.9649 66.8747 62.4677 66.5425 62.1662C66.2747 61.9289 65.9612 61.7489 65.6212 61.6373C65.2812 61.5257 64.922 61.4848 64.5657 61.5172C64.2094 61.5497 63.8634 61.6546 63.5492 61.8258C63.2349 61.9969 62.959 62.2305 62.7384 62.5122C62.5435 62.305 61.754 62.3419 61.4486 62.3933C61.5946 61.8166 61.9238 61.3029 62.3868 60.9293C62.8497 60.5557 63.4214 60.3425 64.0159 60.3217C64.7689 60.3581 65.4818 60.6723 66.0167 61.2035C66.5516 61.7347 66.8707 62.4454 66.9123 63.1981C67.0788 65.4163 64.8914 67.0843 63.0561 66.2917ZM67.3811 62.1109C67.1667 61.4739 66.7805 60.9085 66.2653 60.4769C65.75 60.0453 65.1257 59.7643 64.4609 59.6649C63.7828 59.5821 63.0955 59.7079 62.4906 60.0255C61.8857 60.3431 61.3919 60.8374 61.075 61.4426C61.0562 59.9298 61.5023 58.4478 62.3531 57.1967C63.2038 55.9457 64.4182 54.986 65.832 54.4475C69.0545 53.1723 73.1164 53.0219 76.385 52.8723C76.8911 52.8438 77.3986 52.8479 77.9042 52.8846C78.0893 52.8862 78.2709 52.9357 78.4312 53.0282C78.5916 53.1207 78.7254 53.253 78.8195 53.4124C78.8786 53.6122 78.8823 53.8243 78.8303 54.0261C78.7782 54.2278 78.6724 54.4116 78.5241 54.558C77.7817 55.1278 76.9256 55.5316 76.0136 55.7419L72.9584 56.8544C72.8795 56.879 72.8119 56.9308 72.7675 57.0006C72.7232 57.0703 72.7049 57.1535 72.716 57.2354C72.7272 57.3173 72.7669 57.3927 72.8283 57.448C72.8896 57.5034 72.9686 57.5353 73.0512 57.538L75.2763 57.6316C75.7842 57.6523 76.5039 57.5818 76.9152 57.9447C77.0668 58.1284 77.1455 58.3615 77.1362 58.5996C77.1268 58.8377 77.0301 59.0639 76.8645 59.2352C76.4276 59.6664 75.8775 59.9649 75.2778 60.0961C73.8545 60.5587 68.8105 61.7703 67.3811 62.1079V62.1109ZM120.624 64.6299C117.776 64.2712 115.073 63.1676 112.789 61.4304C110.51 59.8122 108.271 58.0621 105.576 57.1812C99.6822 55.2516 93.495 57.9639 88.3282 60.683C80.8497 64.6199 75.1581 67.3199 67.5699 63.9362C67.6248 63.5521 67.6191 63.1616 67.553 62.7792C69.207 62.3831 70.8592 61.9795 72.5095 61.5685C73.6911 61.3076 74.8474 60.9501 75.9983 60.5779C76.6586 60.3736 77.2265 59.9444 77.6034 59.3649C77.7719 59.0823 77.8503 58.7551 77.8282 58.4268C77.8062 58.0985 77.6847 57.7848 77.4799 57.5273C76.9213 56.9081 75.9653 56.9618 74.8136 56.9135C77.5566 55.916 78.0599 55.8109 78.7175 55.3022C86.4492 54.2595 94.5162 49.4188 103.616 50.3994C109.591 51.0431 114.692 54.2963 120.618 56.4424L120.624 64.6299ZM40.0964 26.4577C42.5391 24.8003 45.1215 23.3588 47.8144 22.1495C63.9369 14.9288 67.6735 25.4955 76.7141 28.5669C82.3919 30.4191 86.753 28.2301 92.1362 25.9881C99.0569 23.1055 105.487 21.9738 118.693 26.9272C119.34 27.1697 119.982 27.4221 120.624 27.6769V35.4761C117.518 33.4812 114.831 31.7679 111.283 30.9692C107.3 30.0838 101.37 30.0331 97.2078 31.7579C94.5669 32.872 92.1853 34.5446 89.4546 35.4546C83.3372 37.4565 76.6789 36.9816 70.9075 34.1319C66.3599 31.8991 62.3463 28.2162 57.1366 27.772C51.0568 27.2533 45.2195 30.7758 40.1402 34.1403C40.1287 31.8753 40.098 26.7515 40.0964 26.4577ZM40.1455 35.0019C42.388 33.4532 44.7348 32.0611 47.1691 30.8357C49.7357 29.4871 52.5482 28.6708 55.4379 28.4357C61.4348 28.1786 65.8474 32.6096 70.965 34.962C74.1774 36.4866 77.6769 37.3118 81.232 37.3828C84.7872 37.4538 88.3168 36.7691 91.5876 35.3741C94.2139 34.1825 96.0638 32.8329 98.7454 31.9413C101.714 30.9538 106.756 30.6301 111.536 31.7449C114.859 32.5797 117.756 34.507 120.624 36.3393V44.8245C118.434 43.6981 116.211 42.5411 113.91 41.625C103.421 37.306 98.028 42.0362 90.284 44.1193C84.7075 45.5698 78.8817 45.7858 73.2131 44.7523C70.0297 44.1485 66.9983 42.9477 63.92 41.951C61.911 41.2457 59.8341 40.7513 57.7228 40.4756C52.088 39.838 45.2831 41.7431 40.1985 44.2521C40.1816 41.3019 40.1517 35.9288 40.1455 35.0019ZM40.2054 45.0293C45.0392 42.6255 50.5512 40.9283 55.9857 41.0564C61.4203 41.1845 66.31 43.8692 71.5044 45.1152C74.1907 45.7229 76.934 46.0436 79.6881 46.072C91.7341 46.3444 96.5272 41.717 103.473 40.7349C109.611 39.8672 115.182 42.8135 120.624 45.6401V55.6989C115.67 53.8575 111.011 51.1306 105.803 50.0319C96.0469 47.9748 86.8712 53.2981 79.3742 54.5058C79.5375 54.2169 79.6027 53.8829 79.5601 53.5538C79.5175 53.2247 79.3694 52.9183 79.1379 52.6805C78.4796 52.0245 77.3801 52.1549 76.5292 52.1733C74.236 52.2145 71.9478 52.4045 69.6791 52.7419C68.2882 52.9305 66.9237 53.2788 65.6126 53.78C68.6299 51.668 72.0222 50.1507 75.6077 49.3091C76.0436 49.2078 75.8594 48.5365 75.4228 48.6378C71.5508 49.546 67.9034 51.2309 64.7019 53.5905C61.9354 52.8176 59.1319 52.1843 56.3018 51.693C50.054 50.7032 45.7673 51.3638 40.2476 53.4247C40.2368 50.9273 40.2054 45.0293 40.2054 45.0293ZM60.4266 60.6639C53.786 58.1679 45.1389 59.3373 40.3028 62.4109L40.2553 54.1774C49.9374 50.2897 56.4553 52.2738 64.0305 54.1498C63.0291 54.9435 62.195 55.9279 61.5764 57.046C60.9578 58.1641 60.567 59.3938 60.4266 60.6639Z" fill="black"/>
<path d="M109.386 108.315C104.143 107.265 99.4785 106.719 99.1478 106.619C98.9746 106.483 98.8242 106.321 98.702 106.138C95.6497 102.718 92.7758 99.142 90.0918 95.4255C89.9307 95.2015 89.722 94.7419 89.4457 94.6582C88.5155 94.6022 87.5818 94.6521 86.6629 94.8071C79.3508 95.9534 68.3935 100.582 61.8035 104.014C59.6681 105.143 57.6243 106.438 55.6907 107.886C52.749 110.007 52.6109 111.608 51.8651 115.115C51.4815 116.908 48.3081 133.387 48.1132 134.203C48.0905 134.294 48.1043 134.389 48.1517 134.47C48.1991 134.55 48.2762 134.609 48.3664 134.633C48.4339 134.65 51.8406 134.643 70.5879 134.643C70.6637 134.642 70.7371 134.617 70.7974 134.571C70.8578 134.525 70.9018 134.461 70.9232 134.388C72.1171 130.552 73.1606 126.057 74.069 121.859C74.079 121.813 74.1143 121.722 74.1273 121.649C76.3708 119.906 79.3447 117.607 81.2667 116.334C82.2718 118.329 83.2946 120.334 84.4232 122.264C85.0828 123.444 86.0036 124.457 87.1152 125.226C88.2267 125.995 89.4995 126.5 90.836 126.701C91.7161 126.893 104.777 129.28 107.283 129.856C107.335 129.869 107.388 129.87 107.441 129.859C107.493 129.848 107.542 129.826 107.584 129.794C107.626 129.762 107.661 129.72 107.685 129.673C107.709 129.626 107.722 129.574 107.724 129.52C108.203 123.111 109.091 118.815 109.642 108.651C109.646 108.574 109.623 108.497 109.576 108.436C109.529 108.374 109.462 108.331 109.386 108.315ZM73.812 121.02C73.3823 121.354 73.5051 121.216 73.1981 122.573C72.4478 125.976 71.3521 130.606 70.327 133.949H59.5086C59.5276 133.921 59.5418 133.889 59.5508 133.856C63.2022 119.189 62.6567 119.887 62.7334 119.867C63.7401 119.633 64.7521 119.422 65.7526 119.163C65.8111 119.147 65.8642 119.115 65.9068 119.072C65.9494 119.028 65.9799 118.974 65.9954 118.916C66.0109 118.857 66.0108 118.795 65.9951 118.736C65.9795 118.678 65.9488 118.624 65.9061 118.581C65.0744 117.935 64.2054 117.338 63.3035 116.794C71.5232 111.57 71.7726 111.039 78.5245 108.955C79.9654 112.773 81.0404 115.65 81.0404 115.65C78.5345 117.289 76.1705 119.177 73.812 121.02ZM107.063 129.105C100.515 127.764 91.5534 126.326 89.4465 125.633C86.0161 124.506 84.813 121.587 83.534 119.194C82.0186 116.355 81.8214 115.846 81.6795 115.629C81.7485 115.463 81.7562 115.511 80.326 111.727C79.7122 110.093 78.0112 105.705 77.7726 105.149C77.7255 105.07 77.6492 105.012 77.56 104.989C77.4708 104.965 77.376 104.978 77.2961 105.024C77.2182 105.072 77.1618 105.148 77.1387 105.237C77.1155 105.326 77.1274 105.42 77.1718 105.5C77.1718 105.5 78.0841 107.807 78.2759 108.303C76.1647 108.901 74.1032 109.662 72.1102 110.579C70.0984 111.563 69.2774 112.177 62.4687 116.502C62.4292 116.526 62.3949 116.558 62.3676 116.595C62.3403 116.632 62.3207 116.675 62.3098 116.72C62.2989 116.765 62.2969 116.811 62.3041 116.857C62.3112 116.902 62.3273 116.946 62.3513 116.986C62.4864 117.207 62.9928 117.293 64.8449 118.661C62.3705 119.238 62.4703 119.187 62.3766 119.307C62.3043 119.304 62.2333 119.327 62.1769 119.373C62.1204 119.418 62.0823 119.482 62.0697 119.554L58.7981 133.949C57.6035 133.949 49.0332 133.938 48.8843 133.933C50.2815 127.554 51.4807 120 52.8227 113.993C53.6444 110.31 54.1646 109.752 57.4263 107.487C60.7485 105.276 64.2708 103.382 67.947 101.829C73.189 99.4123 78.6315 97.4568 84.213 95.9848C84.3849 96.647 89.524 108.329 91.489 111.657C92.1999 112.933 93.106 114.09 94.1744 115.087C94.2171 115.125 94.2684 115.153 94.3239 115.167C94.3795 115.181 94.4377 115.182 94.4936 115.169C94.5496 115.157 94.6016 115.131 94.6454 115.093C94.6892 115.056 94.7234 115.009 94.7452 114.956L95.6138 114.044L95.4266 115.695C95.4197 115.918 95.7634 116.174 95.8555 116.194C99.9573 117.076 104.025 118.118 108.109 119.081C107.879 121.255 107.154 127.935 107.062 129.105H107.063ZM108.185 118.384L96.1394 115.545L96.4217 113.056C96.4562 112.749 96.022 112.605 95.8271 112.809L94.3931 114.322C92.7666 112.55 91.4547 110.512 90.5138 108.298C88.5672 104.299 86.6775 100.123 84.8882 95.8352C86.2906 95.4944 87.7294 95.3261 89.1726 95.3342C91.9884 99.2529 95.0053 103.023 98.211 106.63C98.3645 106.842 98.5399 107.036 98.7343 107.211C98.9404 107.307 99.1648 107.356 99.3918 107.356C103.599 107.986 104.409 108.032 108.93 108.933C108.749 112.088 108.508 115.243 108.185 118.384Z" fill="black"/>
<path d="M115.522 130.532C115.834 130.509 116.142 130.441 116.434 130.33C116.868 130.125 117.218 129.779 117.428 129.349C117.774 128.554 117.946 127.694 117.935 126.827C118.086 123.415 117.771 119.997 117.001 116.67C116.656 114.53 115.815 112.501 114.545 110.744C114.105 110.007 113.391 109.473 112.559 109.259C112.513 109.259 112.468 109.268 112.426 109.286C112.383 109.303 112.345 109.329 112.313 109.362C112.28 109.394 112.255 109.433 112.237 109.475C112.22 109.518 112.211 109.563 112.211 109.609C113.11 112.094 113.785 114.654 114.227 117.259C114.931 121.529 115.247 125.855 115.172 130.183C115.172 130.229 115.181 130.274 115.199 130.317C115.216 130.359 115.242 130.398 115.274 130.43C115.307 130.463 115.346 130.488 115.388 130.506C115.431 130.523 115.476 130.532 115.522 130.532ZM113.18 110.286C113.482 110.54 113.753 110.829 113.987 111.148C115.094 112.665 115.844 114.412 116.184 116.259C116.996 119.448 117.353 122.736 117.243 126.026C117.271 126.84 117.2 127.654 117.032 128.451C116.985 128.728 116.871 128.99 116.7 129.214C116.529 129.438 116.307 129.617 116.052 129.736C115.993 129.754 115.932 129.77 115.871 129.783C115.944 123.619 115.226 116.052 113.18 110.286Z" fill="black"/>
<path d="M4.1856 51.895C5.3503 51.895 6.51424 51.9027 7.67895 51.9096C8.22448 54.9626 9.17292 57.9297 10.4994 60.7331C13.9708 68.4687 19.0714 75.3636 25.4526 80.9467C33.4529 87.618 42.179 90.859 52.3069 93.1355C56.7977 94.1452 61.2425 94.8441 65.856 95.4257C65.8504 96.5101 65.8473 97.5945 65.8468 98.6789C65.8472 98.725 65.8567 98.7705 65.8747 98.8129C65.8927 98.8553 65.9188 98.8937 65.9517 98.926C65.9845 98.9583 66.0234 98.9837 66.0661 99.001C66.1088 99.0182 66.1545 99.0269 66.2005 99.0265C66.4246 99.0265 72.0793 96.8314 74.4946 95.936C87.7039 90.8482 93.7476 93.206 109.297 94.0569C109.389 94.055 109.476 94.0176 109.541 93.9527C109.606 93.8878 109.643 93.8003 109.645 93.7086C110.404 87.7807 111.026 80.1426 111.626 75.4799C111.627 75.4036 111.602 75.3294 111.556 75.2687C111.509 75.2079 111.444 75.1641 111.371 75.1439C93.2811 71.7725 81.6471 74.4042 67.8954 74.1418C62.5618 74.1477 57.2522 73.4291 52.112 72.0058C46.5345 70.3934 41.4704 67.3623 37.4143 63.2083C37.4619 63.211 37.5095 63.204 37.5543 63.1878C37.5991 63.1715 37.6401 63.1464 37.6749 63.1138C37.7097 63.0812 37.7375 63.0419 37.7567 62.9983C37.7759 62.9547 37.786 62.9076 37.7864 62.86C37.9161 33.5397 37.8225 27.5359 37.6744 26.2269C37.6161 25.7144 37.4665 25.7221 36.967 25.7052C36.2619 25.6806 34.481 25.6921 29.8391 25.7282C29.7471 25.7294 29.6592 25.7665 29.5941 25.8315C29.529 25.8966 29.4919 25.9845 29.4907 26.0765C29.4907 27.918 29.4992 32.7249 29.5092 37.5448H27.9025C27.9389 36.3034 27.7641 35.0648 27.3854 33.8819C27.1854 33.1253 26.7567 32.449 26.1577 31.9453C25.4014 31.5137 24.5176 31.3614 23.6604 31.5148C22.8033 31.6682 22.0272 32.1176 21.4675 32.7847C21.3179 32.2725 21.0564 31.7998 20.702 31.4009C20.3476 31.0019 19.9091 30.6865 19.4181 30.4776C17.8721 29.8024 15.7038 30.4008 14.46 32.4341C14.0449 30.9272 12.3117 30.318 10.9306 30.6418C7.92371 31.2556 7.02524 35.075 6.05772 37.5517C5.07946 37.5517 4.58764 37.5441 4.32677 37.5517C3.86641 37.5617 3.84647 37.7121 3.82421 38.0052C3.7659 38.7725 3.76283 41.4932 3.83189 51.5497C3.8337 51.6422 3.87181 51.7302 3.93799 51.7948C4.00418 51.8594 4.09311 51.8954 4.1856 51.895ZM51.3256 72.4891C54.6278 73.5138 58.0304 74.1813 61.4749 74.4802C78.6057 76.0331 90.0755 72.0088 110.893 75.7653C110.215 81.1247 109.576 88.6224 108.99 93.3426C102.253 92.959 95.9612 92.1526 90.8251 92.0759C81.2197 91.917 75.4967 94.9416 66.5412 98.1817C66.5412 97.1628 66.5619 96.1439 66.5496 95.125C66.5477 95.0333 66.5104 94.946 66.4457 94.8811C66.381 94.8162 66.2937 94.7788 66.202 94.7766C61.199 94.193 56.2324 93.3303 51.3256 92.1925V72.4891ZM36.9117 26.4241C36.9117 26.4241 37.0652 62.1288 37.0752 62.5116H30.2511C30.2511 57.8152 30.1874 29.0328 30.1874 26.4241H36.9117ZM29.9035 63.2083H36.4629C40.3336 67.3612 45.1912 70.4685 50.5844 72.2413C50.5844 72.2413 50.5775 91.8833 50.5736 92.0129C46.4129 91.0256 42.3424 89.691 38.4048 88.0232C34.3771 86.318 30.5862 84.1002 27.126 81.4247C16.6912 73.0761 9.70913 60.0295 8.3787 51.9065C14.2759 51.9748 16.5247 51.994 16.5884 52.0093C17.6985 52.1767 18.8312 52.1111 19.9145 51.8167C17.5103 53.653 15.4307 55.8789 13.7618 58.4021C13.5132 58.7758 14.1155 59.1249 14.3626 58.7528C16.4362 55.6322 19.1428 52.9825 22.3068 50.9758C22.3684 50.9276 22.4116 50.8598 22.4293 50.7838C22.4471 50.7077 22.4383 50.6278 22.4045 50.5573C22.3707 50.4869 22.3138 50.4301 22.2433 50.3964C22.1728 50.3627 22.0929 50.3541 22.0168 50.372C21.779 50.3996 19.1779 51.753 16.7833 51.3234C16.6375 51.2505 14.8137 51.0103 14.7501 49.2847C14.7604 48.9834 14.8373 48.6881 14.9754 48.4201C15.1136 48.1522 15.3094 47.9181 15.5488 47.7349C16.112 47.2304 16.7136 46.7705 17.348 46.3592C18.5292 45.4502 19.9344 44.8778 21.4145 44.7026C22.8321 44.5889 24.2445 44.9776 25.4043 45.8006C27.1951 47.176 28.6164 48.9746 29.5406 51.0349C29.5406 52.2525 29.5567 60.1354 29.5575 62.86C29.5587 62.9516 29.5954 63.0392 29.66 63.1042C29.7246 63.1692 29.8119 63.2065 29.9035 63.2083ZM6.13905 39.753C6.37281 38.6139 6.7331 37.5045 7.21322 36.4453C7.82243 34.7274 8.45696 32.7003 10.1196 31.7036C10.5337 31.4428 11.0072 31.2913 11.4958 31.2633C11.9843 31.2352 12.472 31.3316 12.9132 31.5433C13.8761 32.1057 14.0718 33.2205 13.857 34.4144C13.7802 34.8525 14.4485 35.0405 14.5283 34.5993C14.5966 34.2203 14.6503 33.8397 14.6971 33.4576C15.3263 31.8755 17.0334 30.5036 18.881 31.0131C20.7224 31.6384 21.0777 32.9758 20.7493 34.8794C20.6726 35.3167 21.3439 35.5054 21.4207 35.0643C21.5066 34.5663 21.614 34.0737 21.7352 33.5842C22.1311 32.9695 22.7297 32.5129 23.4271 32.2936C24.1245 32.0742 24.8767 32.106 25.5531 32.3834C26.0965 32.7373 26.4891 33.2803 26.6549 33.9072C26.892 34.5549 27.0486 35.2293 27.1214 35.9152C27.2848 37.4681 27.2181 39.0367 26.9235 40.5702C26.7942 40.9642 26.5716 41.3211 26.2746 41.6105C25.9776 41.8999 25.615 42.1132 25.2178 42.2322C24.8205 42.3512 24.4004 42.3724 23.9932 42.2939C23.586 42.2155 23.2038 42.0397 22.8792 41.7817C21.7797 40.9154 21.3716 38.4909 21.0286 36.8712C21.0048 36.7914 20.9533 36.7227 20.8833 36.6775C20.8134 36.6323 20.7295 36.6136 20.647 36.6249C20.5645 36.6361 20.4887 36.6764 20.4333 36.7386C20.3779 36.8008 20.3466 36.8807 20.345 36.964C20.1237 38.8442 19.4551 40.6441 18.3953 42.2129C18.1713 42.5292 17.8762 42.7886 17.5337 42.9702C17.052 43.1573 16.529 43.2124 16.0188 43.1298C15.5087 43.0471 15.0298 42.8296 14.6319 42.4998C14.3181 42.1703 14.0756 41.7796 13.9195 41.3521C13.7635 40.9247 13.6973 40.4696 13.725 40.0154C13.6652 38.8976 13.792 37.7777 14.1002 36.7016C14.1213 36.6139 14.1076 36.5214 14.0619 36.4436C14.0162 36.3658 13.9421 36.3087 13.8552 36.2845C13.7683 36.2602 13.6754 36.2706 13.596 36.3135C13.5166 36.3564 13.457 36.4284 13.4296 36.5144C12.4007 38.8991 11.6833 41.8085 9.29251 42.2858C8.55469 42.4543 7.78078 42.3496 7.11424 41.9911C6.74742 41.7575 6.45867 41.4197 6.28494 41.021C6.11122 40.6222 6.06042 40.1808 6.13905 39.753ZM4.53317 38.2476H5.80299C5.36335 39.5029 5.1723 40.8993 6.02166 41.9604C7.16028 43.3822 9.54417 43.3415 10.9322 42.3356C11.7524 41.6508 12.3923 40.7754 12.7958 39.786C12.9493 39.4791 13.026 39.2704 13.026 39.2704C13.026 39.2704 13.0168 39.3985 13.026 39.7806C12.9463 40.8797 13.2832 41.9686 13.9698 42.8305C14.4052 43.2579 14.942 43.5679 15.5299 43.7313C16.1178 43.8948 16.7375 43.9064 17.3311 43.765C17.8266 43.597 18.281 43.3261 18.6644 42.9701C19.0479 42.6142 19.3518 42.1812 19.5562 41.6996C20.0709 40.7533 20.4611 39.7444 20.7171 38.698C20.9051 39.9545 21.4271 41.1374 22.2286 42.1231C22.6042 42.4775 23.0581 42.7385 23.5533 42.885C24.0486 43.0315 24.5714 43.0593 25.0794 42.9662C25.5874 42.8731 26.0663 42.6618 26.4775 42.3492C26.8886 42.0366 27.2204 41.6317 27.446 41.1671C27.7778 40.2297 27.9303 39.2383 27.8956 38.2446H29.513C29.523 43.1988 29.5337 48.0203 29.5375 49.505C28.9448 48.4852 28.2424 47.5333 27.4429 46.6661C24.1322 43.152 20.4877 43.1812 16.59 45.9986C15.8006 46.4912 15.0933 47.1045 14.4938 47.8162C14.1358 48.338 13.9846 48.9743 14.0697 49.6014C14.1548 50.2285 14.47 50.8015 14.9542 51.209C13.6582 51.196 10.9352 51.2006 4.53317 51.196V38.2476Z" fill="black"/>
<path d="M110.834 89.9235C110.131 91.8907 111.59 93.9754 114.006 94.2754C115.426 94.4556 116.856 94.5455 118.287 94.5447C118.523 94.5447 118.602 94.4319 118.707 93.7774C118.937 92.3273 119.298 88.2017 121.797 76.6475C121.815 76.3498 121.644 76.2163 121.462 76.2063C119.145 75.9585 116.42 75.4199 114.398 76.926C113.95 77.1899 113.597 77.5887 113.39 78.0654C113.182 78.5421 113.13 79.0722 113.242 79.58C113.602 80.4684 114.295 81.1804 115.174 81.5633C115.365 81.6656 115.564 81.7528 115.768 81.8242C115.556 81.8204 115.344 81.8298 115.133 81.8526C114.133 81.8864 113.17 82.244 112.39 82.8715C112.081 83.2195 111.863 83.638 111.754 84.0903C111.645 84.5426 111.65 85.0147 111.767 85.4649C111.913 85.9081 112.154 86.3141 112.473 86.6544C112.793 86.9947 113.183 87.2612 113.616 87.4352C113.811 87.5357 114.015 87.6194 114.217 87.7053C112.743 87.8649 111.354 88.4657 110.834 89.9235ZM113.434 88.5723C114.685 88.2827 115.988 88.3003 117.231 88.6237C117.665 88.7311 117.855 88.0521 117.416 87.9524C116.407 87.7345 115.416 87.4374 114.453 87.0639C113.083 86.4792 112.163 85.7979 112.423 84.3385C112.533 83.1201 113.847 82.6774 115.058 82.5577C116.312 82.435 117.571 82.5853 118.827 82.5577C118.917 82.5535 119.001 82.515 119.063 82.4502C119.125 82.3854 119.159 82.2993 119.159 82.2098C119.159 82.1202 119.125 82.0341 119.063 81.9693C119.001 81.9045 118.917 81.866 118.827 81.8618C117.831 81.7891 116.855 81.5516 115.937 81.159C113.482 80.1101 113.349 78.5664 114.78 77.5076C115.601 76.9344 116.577 76.6253 117.578 76.6214C118.737 76.615 119.896 76.6945 121.044 76.8592C119.874 82.303 118.727 88.3682 117.992 93.838C115.019 93.7176 113.841 93.7613 112.605 93.0662C110.85 91.9951 110.769 89.2905 113.434 88.5692V88.5723Z" fill="black"/>
<path d="M46.2603 141.209C46.2544 141.529 46.2939 141.848 46.3777 142.157C46.5669 142.682 46.9351 143.122 47.4174 143.402C48.2748 143.853 49.2169 144.12 50.1834 144.186C53.9133 144.693 57.6951 144.686 61.423 144.164C63.7899 144.001 66.0867 143.292 68.1335 142.093C68.9792 141.685 69.6414 140.976 69.9895 140.104C70.0046 140.045 70.004 139.983 69.9878 139.924C69.9716 139.865 69.9404 139.811 69.8973 139.768C69.8541 139.725 69.8004 139.694 69.7415 139.678C69.6827 139.661 69.6206 139.661 69.5614 139.676C66.7593 140.446 63.8863 140.931 60.9865 141.122C56.197 141.467 51.3861 141.379 46.6125 140.857C46.566 140.856 46.5197 140.864 46.4764 140.882C46.4332 140.899 46.3939 140.925 46.361 140.958C46.328 140.99 46.3021 141.03 46.2848 141.073C46.2675 141.116 46.2592 141.162 46.2603 141.209ZM68.9714 140.556C68.6528 140.896 68.2872 141.188 67.8857 141.425C66.1024 142.512 64.0948 143.178 62.0154 143.374C58.3807 143.956 54.6821 144.022 51.0289 143.571C50.1176 143.517 49.216 143.353 48.3435 143.085C47.9923 143 47.6742 142.813 47.4298 142.547C47.1854 142.281 47.0256 141.948 46.9708 141.591C53.8432 142.308 62.3292 142.278 68.9775 140.556H68.9714Z" fill="black"/>
<path d="M124.612 70.2377C122.064 87.0063 122.45 84.4321 119.886 101.235C119.721 101.827 119.759 102.457 119.993 103.025C120.207 103.436 120.565 103.754 120.998 103.918C121.432 104.083 121.911 104.081 122.343 103.914L135.789 105.674C135.865 105.674 135.939 105.649 136 105.603C136.06 105.557 136.104 105.492 136.124 105.418C136.171 105.111 136.841 100.815 136.933 100.218C138.266 102.792 140.638 102.443 141.265 100.908C141.944 99.3377 140.931 97.8807 139.841 96.8127C139.157 96.1449 138.467 95.4838 137.77 94.8293L141.467 71.0794C141.493 70.9129 141.426 70.6781 141.224 70.6513C139.894 70.4712 138.562 70.2922 137.227 70.1142C137.882 68.4768 138.398 66.7206 137.864 64.9873C137.694 64.3281 137.356 63.7244 136.882 63.2356C136.408 62.7467 135.815 62.3895 135.162 62.1991C133.534 61.827 131.958 62.7085 130.712 63.6707C128.801 65.1684 127.063 66.8737 125.53 68.7554C125.269 68.9111 125.05 69.127 124.89 69.3849C124.731 69.6428 124.635 69.9353 124.612 70.2377ZM120.868 103.035C120.678 102.838 120.547 102.591 120.49 102.324C120.432 102.056 120.45 101.778 120.542 101.52C122.179 90.7705 122.069 91.3728 122.147 91.2585C122.52 90.6155 122.31 90.8464 125.474 85.0359C124.946 88.2584 122.96 101.588 122.897 102.078C122.905 102.316 122.842 102.551 122.718 102.755C122.593 102.958 122.412 103.121 122.197 103.222C121.981 103.324 121.74 103.361 121.504 103.327C121.268 103.294 121.047 103.193 120.868 103.035ZM128.392 69.6185L136.257 70.6781C133.04 77.9759 129.328 85.0451 125.147 91.8362C125.826 87.3907 126.483 83.0894 126.482 83.0817C126.522 83.005 128.443 71.4577 128.549 70.6988C128.599 70.3311 128.544 69.9569 128.392 69.6185ZM138.459 96.4574C139.445 97.3935 140.926 98.5214 140.78 100.05C140.773 100.33 140.685 100.602 140.526 100.833C140.368 101.065 140.147 101.246 139.888 101.354C139.539 101.428 139.176 101.398 138.844 101.268C138.512 101.139 138.225 100.915 138.018 100.624C137.586 100.046 137.244 99.4053 137.002 98.7247C136.248 96.9888 135.642 95.192 135.191 93.3538L138.459 96.4574ZM140.739 71.2827L137.163 94.25L134.902 92.117C134.844 92.0635 134.77 92.0308 134.692 92.0241C134.613 92.0173 134.535 92.0368 134.469 92.0796C134.403 92.1224 134.353 92.186 134.327 92.2603C134.301 92.3346 134.301 92.4154 134.326 92.4899C134.745 94.767 135.445 96.9834 136.409 99.0884C136.013 101.628 135.525 104.607 135.489 104.935L123.154 103.324C123.493 102.791 123.671 102.172 123.665 101.541C123.665 101.53 124.251 97.7127 124.887 93.5526C124.91 93.5318 124.93 93.508 124.947 93.482C126.856 90.4405 128.67 87.3421 130.389 84.1866C133.338 78.7697 136.067 72.9224 136.966 70.7756L140.739 71.2827ZM130.435 64.7917C131.469 63.9216 132.66 62.9725 134.054 62.8244C134.699 62.7734 135.343 62.9369 135.886 63.2894C136.429 63.6419 136.841 64.1638 137.057 64.774C137.784 66.4942 137.206 68.3226 136.531 70.019L127.768 68.8375C127.443 68.6062 127.053 68.483 126.654 68.4853C127.822 67.1624 129.086 65.9278 130.435 64.7917ZM127.814 70.9298C127.701 71.5988 125.948 82.1702 125.842 82.8147C124.686 84.9155 123.55 87.0257 122.432 89.1454L125.204 70.9712C125.265 68.1745 128.409 68.971 127.81 70.9259L127.814 70.9298Z" fill="black"/>
<path d="M147.661 100.916C146.705 99.9845 143.764 96.8494 143.149 96.5149C142.836 96.2686 142.431 96.6492 142.601 96.9254C143.599 100.517 144.16 104.615 146.059 106.395C146.349 106.712 146.737 106.921 147.161 106.99C147.584 107.058 148.019 106.982 148.393 106.772C148.944 106.35 149.341 105.759 149.523 105.089C149.706 104.419 149.664 103.708 149.403 103.065C148.996 102.224 148.4 101.489 147.661 100.916ZM148.497 105.686C148.406 105.848 148.283 105.989 148.135 106.1C147.987 106.211 147.817 106.291 147.636 106.333C147.26 106.34 146.894 106.205 146.613 105.955C144.988 104.488 144.424 101.245 143.544 97.7763C144.519 98.6671 145.422 99.6262 146.343 100.578C147.757 102.036 148.73 102.536 148.904 104.02C148.978 104.606 148.834 105.2 148.497 105.686Z" fill="black"/>
<path d="M34.1933 83.1102L38.114 85.9245C38.4785 86.1862 38.8268 85.5831 38.4654 85.3238L34.5447 82.5087C34.1803 82.2509 33.8365 82.8509 34.1933 83.1102Z" fill="black"/>
<path d="M66.5587 93.4783V84.031C66.5545 83.9415 66.516 83.8571 66.4512 83.7953C66.3864 83.7335 66.3003 83.699 66.2108 83.699C66.1212 83.699 66.0351 83.7335 65.9703 83.7953C65.9055 83.8571 65.867 83.9415 65.8628 84.031V93.4783C65.867 93.5678 65.9055 93.6522 65.9703 93.714C66.0351 93.7758 66.1212 93.8103 66.2108 93.8103C66.3003 93.8103 66.3864 93.7758 66.4512 93.714C66.516 93.6522 66.5545 93.5678 66.5587 93.4783Z" fill="black"/>
<path d="M96.5716 90.8573C96.6529 90.9011 96.7483 90.9109 96.8367 90.8844C96.9252 90.858 96.9996 90.7974 97.0434 90.7161C97.0864 90.6386 97.0979 90.5475 97.0755 90.4618C97.053 90.3761 96.9984 90.3023 96.923 90.2558C95.8721 89.6414 94.8887 88.9182 93.989 88.0982C93.6613 87.7913 93.168 88.2847 93.4964 88.5908C94.4306 89.4624 95.4625 90.223 96.5716 90.8573Z" fill="black"/>
<path d="M113.786 140.486C113.876 140.482 113.96 140.443 114.022 140.378C114.084 140.314 114.118 140.228 114.118 140.138C114.118 140.048 114.084 139.962 114.022 139.898C113.96 139.833 113.876 139.794 113.786 139.79H105.085C104.996 139.794 104.912 139.833 104.85 139.898C104.788 139.962 104.753 140.048 104.753 140.138C104.753 140.228 104.788 140.314 104.85 140.378C104.912 140.443 104.996 140.482 105.085 140.486H113.786Z" fill="black"/>
<path d="M109.56 137.526L118.012 137.812C118.46 137.827 118.46 137.131 118.012 137.116L109.56 136.83C109.112 136.815 109.113 137.511 109.56 137.526Z" fill="black"/>
<path d="M88.1799 136.057C88.0875 136.057 87.9989 136.094 87.9336 136.16C87.8682 136.225 87.8315 136.313 87.8315 136.406C87.8315 136.498 87.8682 136.587 87.9336 136.652C87.9989 136.717 88.0875 136.754 88.1799 136.754H96.075C96.1674 136.754 96.256 136.717 96.3213 136.652C96.3867 136.587 96.4234 136.498 96.4234 136.406C96.4234 136.313 96.3867 136.225 96.3213 136.16C96.256 136.094 96.1674 136.057 96.075 136.057H88.1799Z" fill="black"/>
<path d="M19.1473 13.5224C19.063 13.5486 18.9918 13.606 18.9481 13.6828C18.9045 13.7596 18.8918 13.8501 18.9126 13.936C20.3236 19.5654 20.1402 18.693 20.4087 19.6138C20.4368 19.6986 20.4965 19.7694 20.5753 19.8116C20.6542 19.8537 20.7462 19.8638 20.8324 19.84C20.9185 19.8161 20.9922 19.7601 21.0382 19.6834C21.0841 19.6067 21.0989 19.5153 21.0793 19.4281L19.5839 13.7503C19.5562 13.6622 19.4947 13.5887 19.4128 13.546C19.3309 13.5033 19.2354 13.4948 19.1473 13.5224Z" fill="black"/>
<path d="M25.1381 9.13741L22.7811 19.4057C22.6813 19.8415 23.3527 20.028 23.4524 19.5906L25.8095 9.32308C25.91 8.88651 25.2386 8.70083 25.1381 9.13741Z" fill="black"/>
</svg>
