<svg width="154" height="154" viewBox="0 0 154 154" fill="none" xmlns="http://www.w3.org/2000/svg">
<path d="M128.818 34.6502C128.084 34.2321 127.83 34.661 128.399 34.1983C130.489 32.4988 128.299 31.2827 126.404 32.3922C126.467 32.1883 126.463 31.9691 126.391 31.7681C126.319 31.567 126.183 31.395 126.004 31.2781C125.716 31.1368 125.398 31.0666 125.077 31.0735C124.756 31.0803 124.441 31.1638 124.159 31.3172C122.562 31.9235 121.234 33.078 120.411 34.5743C122.668 33.5852 125.475 36.065 124.255 38.2356C125.516 37.5933 126.871 37.1561 128.269 36.9405C128.54 36.9184 128.799 36.8189 129.015 36.6539C129.231 36.4889 129.395 36.2654 129.487 36.0098C129.527 35.742 129.483 35.4687 129.364 35.2259C129.244 34.9831 129.054 34.7824 128.818 34.6502Z" fill="black"/>
<path d="M88.1513 63.5494C88.1332 63.6155 88.1421 63.6862 88.176 63.7457C88.21 63.8053 88.2662 63.8489 88.3323 63.8671C88.3983 63.884 88.4683 63.8746 88.5275 63.841C88.5868 63.8074 88.6307 63.7521 88.65 63.6868L90.0157 60.4297L89.5454 60.2249L88.1513 63.5494Z" fill="black"/>
<path d="M102.15 69.2883C102.004 69.586 102.449 69.8484 102.596 69.5492L104.064 66.5569L103.592 66.3505L102.15 69.2883Z" fill="black"/>
<path d="M122.666 34.5903C122.269 34.393 121.828 34.3012 121.385 34.3236C120.943 34.3461 120.513 34.4821 120.138 34.7185C119.764 34.955 119.456 35.284 119.245 35.6738C119.034 36.0636 118.927 36.5011 118.934 36.9443C119.164 38.8011 121.51 39.9136 123.017 39.3228C123.396 39.173 123.732 38.9307 123.993 38.6181C124.254 38.3054 124.433 37.9323 124.513 37.5328C124.579 36.9063 124.433 36.2757 124.098 35.7422C123.763 35.2086 123.259 34.8029 122.666 34.5903Z" fill="#FC9070"/>
<path d="M115.65 66.9822C114.715 65.5827 114.152 64.5361 113.709 63.95L112.392 66.9714C113.624 66.9822 114.092 66.9822 115.65 66.9822Z" fill="#FFD2D2"/>
<path d="M136.931 50.9354C135.561 47.8073 132.604 45.3889 129.347 44.1252C127.869 43.5329 126.278 43.2792 124.69 43.3825C122.794 43.4508 120.916 43.7692 119.103 44.3293C119.575 46.4891 119.571 48.726 119.09 50.884C119.202 51.0326 119.275 51.2066 119.303 51.3904C119.343 51.9019 119.329 52.4163 119.262 52.9249C119.16 53.7284 119.242 54.5444 119.5 55.3119C120.106 56.6579 120.839 57.9426 121.691 59.1482C122.258 59.9867 122.955 60.73 123.755 61.3503C124.854 62.1858 125.845 62.1122 126.517 60.9244C127.336 59.4797 127.122 59.0792 127.736 57.082C128.128 56.0889 128.836 55.2527 129.752 54.7032C130.667 54.1536 131.738 53.9214 132.799 54.0423C133.859 54.1633 134.851 54.6308 135.619 55.3723C136.387 56.1139 136.889 57.088 137.047 58.1439C137.124 58.8302 137.106 59.524 136.994 60.2055C136.795 62.5425 136.22 64.8319 135.29 66.985H138.78C138.848 66.9864 138.913 67.014 138.961 67.062C139.009 67.1101 139.037 67.1748 139.039 67.2428C138.705 62.2871 138.923 55.483 136.931 50.9354ZM129.327 46.4354C127.967 46.8374 126.618 47.2744 125.281 47.7459C124.966 47.8571 124.832 47.3577 125.144 47.2479C126.479 46.7768 127.817 46.2919 129.189 45.9367C129.255 45.9185 129.326 45.9273 129.386 45.9612C129.445 45.995 129.489 46.0512 129.507 46.1174C129.526 46.1835 129.517 46.2542 129.483 46.3138C129.449 46.3735 129.393 46.4172 129.327 46.4354Z" fill="#FFD2D2"/>
<path d="M101.995 40.5636C101.918 40.5542 101.84 40.5651 101.769 40.5951C101.698 40.6251 101.636 40.6732 101.589 40.7347C101.239 41.0968 101.205 42.5907 102.126 43.447C102.262 42.8088 102.361 42.1635 102.425 41.5142C102.445 41.1805 102.333 40.6211 101.995 40.5636Z" fill="#F7DA31"/>
<path d="M106.18 42.075C106.208 41.9784 106.22 41.8817 106.153 41.8303C106.051 41.7686 105.935 41.7367 105.816 41.7382C105.36 41.7635 105.238 42.7993 105.254 43.2605C105.666 42.958 105.986 42.5478 106.18 42.075Z" fill="#F7DA31"/>
<path d="M111.74 45.9522C111.768 45.8963 111.781 45.8346 111.779 45.7724C111.777 45.7103 111.76 45.6495 111.73 45.5954C111.622 45.4089 111.4 45.59 111.269 45.6967C110.716 46.2052 110.192 46.745 109.7 47.3133C110.131 47.2221 110.541 47.0531 110.911 46.8146C111.271 46.6212 111.561 46.3195 111.74 45.9522Z" fill="#F7DA31"/>
<path d="M109.052 44.1644C109.119 44.0295 109.154 43.8812 109.154 43.7309C109.166 43.6733 109.114 43.6211 109.064 43.5904C109.022 43.5739 108.976 43.5663 108.931 43.5683C108.886 43.5703 108.841 43.5817 108.801 43.602C108.059 43.8713 107.796 44.9124 107.826 45.6789C108.337 45.2662 108.755 44.75 109.052 44.1644Z" fill="#F7DA31"/>
<path d="M110.417 33.7703C106.883 32.2206 102.889 32.0824 99.2552 33.3842C95.6217 34.686 92.6241 37.3289 90.8776 40.7708C90.6205 41.2779 90.5308 41.5066 89.5218 43.8207C89.7336 43.6685 89.972 43.5571 90.2246 43.4923C90.4507 43.4366 90.6882 43.4501 90.9065 43.531C91.1248 43.612 91.3137 43.7567 91.4487 43.9463C91.5838 44.1359 91.6588 44.3618 91.6639 44.5945C91.669 44.8273 91.6041 45.0562 91.4776 45.2516C91.0824 46.0097 90.596 46.0565 89.8517 46.7792C89.254 47.4851 90.4402 47.9608 90.9259 48.1833C91.5336 48.4611 92.3768 49.0872 92.0001 49.8629C91.8859 50.0934 91.7011 50.2814 91.4725 50.3995C91.2439 50.5175 90.9836 50.5593 90.7295 50.5189C89.5187 50.3355 88.3778 48.9982 88.1714 48.9675C88.1992 49.0331 88.2334 49.0958 88.2735 49.1547C89.0131 50.4951 89.8847 51.1081 90.0382 51.913C90.1441 52.4631 89.8648 53.1751 89.2011 53.1115C88.506 53.0447 87.9551 52.4547 87.0719 51.8509C87.006 51.8056 86.8341 51.6414 86.7558 51.692C86.7466 51.6974 86.7466 51.692 86.7827 51.7396C86.8187 51.7872 87.1226 52.2291 87.3144 52.5391C87.6075 53.0125 88.0817 53.7153 87.9075 54.3038C87.8535 54.4775 87.7606 54.6365 87.6359 54.7689C87.5113 54.9014 87.3581 55.0037 87.188 55.0681C87.0179 55.1325 86.8354 55.1573 86.6543 55.1407C86.4732 55.124 86.2983 55.0664 86.1428 54.9721C85.7549 54.6984 85.3926 54.3902 85.0602 54.0514C84.5929 55.1255 83.6384 57.3122 83.6277 57.3368C83.5941 57.3962 83.585 57.4664 83.6023 57.5325C83.6197 57.5985 83.6621 57.6552 83.7205 57.6905L110.948 69.5609C111.007 69.5944 111.077 69.6035 111.143 69.5862C111.209 69.5689 111.266 69.5265 111.301 69.468L113.706 63.9521C113.489 63.6015 113.191 63.3088 112.836 63.0993C112.481 62.8897 112.081 62.7695 111.669 62.7491C111.004 62.7383 110.178 62.8112 109.702 62.235C109.54 62.0409 109.45 61.7969 109.447 61.544C109.444 61.2912 109.528 61.045 109.686 60.847C110.403 60.1879 111.271 60.1657 113.388 59.8051C113.172 59.7461 112.95 59.7103 112.726 59.6984C112.015 59.6663 111.307 59.5895 110.606 59.4683C110.174 59.4376 109.757 59.2933 109.398 59.0501C109.244 58.9124 109.13 58.7364 109.068 58.5401C109.005 58.3438 108.995 58.1343 109.04 57.9331C109.085 57.7319 109.182 57.5462 109.323 57.3952C109.463 57.2442 109.641 57.1332 109.838 57.0736C110.978 56.6133 111.674 56.9831 113.353 56.9347C113.404 56.9347 113.548 56.9524 113.513 56.858C113.485 56.7813 113.331 56.7629 113.26 56.7376C112.903 56.6079 112.547 56.4736 112.191 56.3386C111.683 56.1452 111.05 56.0163 110.815 55.467C110.724 55.2578 110.699 55.0258 110.744 54.802C110.788 54.5783 110.901 54.3737 111.065 54.2156C111.499 53.8043 112.25 53.9018 112.799 53.9179C114.001 53.9434 115.183 54.2328 116.26 54.7657C116.692 52.0872 116.75 51.3851 117.345 50.7161C117.512 50.579 117.712 50.4886 117.925 50.4542C118.138 50.4199 118.356 50.4427 118.557 50.5204C118.587 50.5289 118.608 50.5457 118.634 50.5565C118.812 50.624 118.968 50.7395 119.085 50.8902C119.851 47.4742 119.405 43.8982 117.824 40.7748C116.242 37.6514 113.624 35.1751 110.417 33.7703ZM111.897 46.6565C111.193 47.4037 110.223 47.8427 109.198 47.878C104.847 52.6454 101.232 58.0348 98.4704 63.8685C98.3269 64.1693 97.8819 63.9069 98.0239 63.6084C100.754 57.8439 104.314 52.5107 108.591 47.779C108.327 47.6657 108.09 47.4971 107.896 47.2846C107.703 47.072 107.557 46.8204 107.468 46.5468L107.457 46.5537C107.275 46.679 107.063 46.7532 106.843 46.7683C106.623 46.7834 106.403 46.739 106.206 46.6396C105.447 46.0271 104.961 45.1402 104.852 44.1713C104.497 44.3795 104.098 44.5003 103.688 44.5237C103.277 44.547 102.867 44.4722 102.491 44.3056C101.279 50.7758 98.7625 56.9314 95.0937 62.3969C94.9088 62.6723 94.4615 62.413 94.6471 62.136C98.32 56.6697 100.829 50.5061 102.017 44.0286C100.819 43.1148 100.537 41.3232 101.146 40.4685C101.26 40.3045 101.422 40.1797 101.61 40.1111C101.798 40.0425 102.002 40.0333 102.195 40.0848C102.855 40.2698 102.987 41.1475 102.928 41.726C102.856 42.4184 102.744 43.1062 102.595 43.7861C102.938 43.9651 103.324 44.0449 103.709 44.0166C104.095 43.9883 104.465 43.8529 104.777 43.6258C104.725 43.1749 104.747 42.7186 104.841 42.2746C104.871 42.0818 104.941 41.8975 105.047 41.7335C105.152 41.5696 105.291 41.4298 105.455 41.3232C105.642 41.2322 105.854 41.2045 106.058 41.2444C106.262 41.2842 106.448 41.3895 106.587 41.5442C107.104 42.2163 105.997 43.3856 105.317 43.8859C105.413 44.6832 105.748 45.4328 106.278 46.0358C106.37 46.1348 106.484 46.2115 106.61 46.2598C106.872 46.2643 107.128 46.1835 107.339 46.0296C107.116 44.3416 108.037 43.0687 108.955 43.0511C109.569 43.0396 109.774 43.6511 109.61 44.1391C109.257 44.9935 108.669 45.7307 107.915 46.2659C107.972 46.5276 108.101 46.7679 108.289 46.9588C108.476 47.1497 108.714 47.2832 108.975 47.3439C109.538 46.7202 110.099 46.0795 110.711 45.5025C110.937 45.244 111.241 45.0662 111.577 44.9961C112.339 44.9531 112.537 46.0626 111.897 46.6565Z" fill="#F7DA31"/>
<path d="M62.8986 50.8202C62.6123 49.3923 62.0235 48.0422 61.1721 46.8606C60.3206 45.6791 59.2261 44.6935 57.962 43.9701C54.2984 41.8386 49.4677 41.6069 45.2462 41.9883C42.1926 42.2001 39.2924 43.406 36.9889 45.4218C34.7446 47.5348 31.104 46.5466 30.6413 44.29C30.5444 43.7937 30.5255 43.2853 30.5853 42.7831C30.5837 42.851 30.5561 42.9157 30.508 42.9637C30.46 43.0117 30.3954 43.0394 30.3275 43.0409H21.1617C21.0935 43.0403 21.0282 43.013 20.9798 42.9648C20.9315 42.9166 20.904 42.8514 20.9032 42.7831C20.4891 45.7447 21.1289 48.7575 22.7108 51.2952C25.1991 54.9972 29.1965 56.9844 33.616 57.6405C33.5722 59.8402 33.4057 69.4816 33.3658 72.1019C34.8219 72.7938 36.1366 73.7504 37.2428 74.9231C40.1761 72.9205 40.7416 70.0011 40.7393 66.4341C40.7393 62.2356 41.0761 66.0182 40.5766 52.222C40.5348 51.859 40.5348 51.4924 40.5766 51.1294C40.6389 50.8068 40.8184 50.5186 41.0804 50.3202C41.3424 50.1219 41.6684 50.0273 41.9959 50.0549C42.3234 50.0824 42.6291 50.23 42.8543 50.4693C43.0795 50.7086 43.2084 51.0227 43.216 51.3512C43.4416 52.5543 43.6971 54.9052 43.7914 56.0844C44.4239 55.5593 45.2347 55.2984 46.0547 55.3563C46.8748 55.4142 47.6408 55.7864 48.1932 56.3952C48.9007 55.1284 51.0574 55.2965 51.7227 57.7809C51.9178 58.3277 52.0553 58.8934 52.1331 59.4688C52.7922 65.6869 51.8783 71.9708 49.4753 77.7435C48.0366 81.2597 45.8298 84.4097 43.0165 86.963C43.4637 88.8654 43.7942 90.7932 44.0063 92.7359C44.0099 92.7772 43.9997 92.8185 43.9771 92.8533C44.0538 93.0651 44.3308 93.8362 44.3899 94.0088L53.6991 94.0855C53.6991 82.8574 53.6592 83.4305 53.7613 83.3131C53.8188 83.2364 53.5986 83.3899 63.7411 77.2218C63.8147 69.9497 63.9897 55.9333 62.8986 50.8202Z" fill="#78B5FF"/>
<path d="M50.8695 28.1968C50.8919 27.7858 50.8033 27.3764 50.6132 27.0113C50.5947 26.9984 50.5806 26.9802 50.5725 26.9592C50.1173 26.5527 49.5323 26.3216 48.9222 26.307C48.329 26.1879 47.7157 26.2174 47.1367 26.3929C46.8886 26.5144 46.682 26.7066 46.5429 26.9452C46.4038 27.1839 46.3384 27.4584 46.3549 27.7341C46.2194 29.2601 46.2158 30.795 46.3441 32.3216C46.4044 31.9553 46.5529 31.6092 46.7768 31.3131C47.0007 31.017 47.2933 30.7799 47.6293 30.6222C47.9653 30.4645 48.3347 30.3909 48.7055 30.4079C49.0763 30.4249 49.4375 30.5318 49.7577 30.7195C50.2921 31.1009 50.6604 31.6721 50.7874 32.3162C50.9146 30.9469 50.9421 29.5701 50.8695 28.1968Z" fill="black"/>
<path d="M30.9602 63.9611C29.3067 62.0099 26.2093 62.4265 24.4584 64.1544C23.5278 65.0952 22.8021 66.2186 22.3269 67.4537C21.6073 69.2567 20.9881 71.4204 20.764 71.8378C19.4307 73.9091 17.4877 75.516 15.2029 76.4368C13.8586 76.9662 12.4292 77.234 11.2407 78.1064C10.1309 78.9197 9.32796 80.0838 8.96196 81.4102C8.77144 82.0695 8.79023 82.7716 9.01576 83.4198C9.24128 84.0679 9.66242 84.63 10.221 85.0286C9.0043 85.459 7.98821 86.3216 7.36605 87.4524C6.38242 89.524 7.6016 91.4782 9.3502 91.5757C8.765 92.1924 8.3304 92.936 8.08038 93.7486C7.9423 94.1992 7.92689 94.6785 8.03573 95.137C8.14456 95.5956 8.37371 96.0168 8.69956 96.3573C9.03593 96.6314 9.43036 96.8252 9.85289 96.924C10.2754 97.0228 10.7149 97.0239 11.1379 96.9274C11.1909 96.9189 11.2438 96.9066 11.2967 96.8959C11.4955 95.8601 13.2095 87.5583 13.5218 86.2954C14.7172 81.4693 16.9369 76.3455 20.9735 73.4122C22.4717 72.3239 24.1921 71.5806 26.0115 71.2357C27.8308 70.8908 29.704 70.9528 31.4965 71.4173C31.607 71.4473 31.9032 71.5294 32.0114 71.5708C32.072 68.2815 32.4403 65.7074 30.9602 63.9611ZM30.3234 67.8657C30.1711 68.4936 29.7974 69.0456 29.2711 69.4203C28.7447 69.7951 28.1008 69.9674 27.4576 69.9058C26.7797 69.8454 26.1477 69.5373 25.6826 69.0404C25.2175 68.5434 24.9518 67.8925 24.9364 67.212C24.8979 66.6712 25.0494 66.134 25.3647 65.693C25.68 65.2521 26.1394 64.935 26.6635 64.7966C27.4553 64.587 28.295 64.6558 29.042 64.9915C29.5436 65.2612 29.9415 65.6897 30.1734 66.2098C30.4053 66.73 30.458 67.3124 30.3234 67.8657Z" fill="black"/>
<path d="M29.0452 64.9918C28.4631 64.6982 27.8036 64.5951 27.1597 64.697C26.5159 64.7989 25.9204 65.1006 25.4574 65.5595C25.1757 65.955 25.0034 66.4177 24.9579 66.9011C24.9124 67.3845 24.9954 67.8713 25.1983 68.3123C25.4013 68.7533 25.7171 69.133 26.1138 69.4128C26.5105 69.6927 26.9741 69.8628 27.4577 69.9061C28.1009 69.9677 28.7447 69.7953 29.2711 69.4206C29.7975 69.0458 30.1711 68.4939 30.3234 67.8659C30.4583 67.3129 30.406 66.7308 30.1747 66.2107C29.9434 65.6906 29.5462 65.2619 29.0452 64.9918Z" fill="#FFD2D2"/>
<path d="M52.1358 59.472C52.2494 60.5884 51.7031 61.7807 50.5652 61.8505C50.1799 61.8277 49.8079 61.7011 49.4887 61.4842C49.1694 61.2673 48.9146 60.9681 48.7514 60.6183C48.6561 60.9033 48.4828 61.156 48.2514 61.3477C48.0199 61.5395 47.7395 61.6627 47.4417 61.7034C47.1439 61.7441 46.8406 61.7007 46.5662 61.5781C46.2918 61.4555 46.0571 61.2586 45.8888 61.0096C45.8097 61.6297 45.8919 62.2597 46.1274 62.8388C46.2732 63.1365 45.8274 63.3981 45.6808 63.0996C44.9834 61.681 45.7514 60.184 45.1322 59.027C45.0223 58.8501 44.8665 58.7064 44.6813 58.6112C44.4961 58.5159 44.2886 58.4726 44.0808 58.486C43.873 58.4994 43.6727 58.5689 43.5013 58.6872C43.3299 58.8054 43.1938 58.9679 43.1074 59.1574C42.7017 60.1098 42.4929 61.1345 42.4936 62.1697C42.4622 62.4981 41.945 62.5004 41.9765 62.1697C42.1092 60.7986 42.1491 59.6055 42.865 58.5897C43.0028 58.4129 43.1756 58.2666 43.3726 58.1597C43.5695 58.0529 43.7864 57.9878 44.0097 57.9687C44.233 57.9495 44.4578 57.9766 44.6701 58.0484C44.8824 58.1201 45.0776 58.2349 45.2435 58.3856C45.2074 58.2187 45.1531 58.0564 45.0816 57.9014C44.942 57.6014 45.3885 57.3398 45.5274 57.6405C45.7617 58.3545 45.901 59.0961 45.9417 59.8464C45.9689 60.1462 46.0836 60.4313 46.2716 60.6664C46.4596 60.9015 46.7125 61.076 46.999 61.1684C47.2606 61.2351 47.5378 61.1982 47.7728 61.0653C48.0079 60.9325 48.1825 60.7141 48.2604 60.4556C48.4543 59.8182 48.4961 59.1441 48.3824 58.4876C48.3275 57.9884 48.2163 57.4971 48.0509 57.0229C48.0371 56.9907 48.03 56.956 48.03 56.921C48.0299 56.886 48.037 56.8513 48.0507 56.8191C48.0645 56.7869 48.0846 56.7578 48.1099 56.7335C48.1352 56.7093 48.1651 56.6904 48.1979 56.6781C48.2307 56.6657 48.2656 56.6602 48.3006 56.6617C48.3356 56.6632 48.3699 56.6718 48.4015 56.687C48.4331 56.7021 48.4613 56.7235 48.4844 56.7499C48.5075 56.7762 48.525 56.807 48.5358 56.8403C48.8407 57.7367 48.977 58.6818 48.9379 59.6278C48.9603 59.659 48.9753 59.6949 48.9816 59.7329C49.0318 60.1257 49.2054 60.4926 49.4773 60.7806C49.7491 61.0686 50.1053 61.2629 50.4947 61.3357C50.6865 61.3321 50.8735 61.275 51.0346 61.1707C51.1957 61.0664 51.3244 60.9192 51.4062 60.7457C51.5909 60.3482 51.6636 59.9078 51.6164 59.472C51.6026 59.139 52.1197 59.1413 52.1335 59.472C52.052 58.8973 51.9145 58.332 51.7231 57.784C51.5739 57.2199 51.2964 56.6978 50.9121 56.2587C50.7469 56.0494 50.534 55.8827 50.2912 55.7726C50.0483 55.6625 49.7826 55.6121 49.5164 55.6258C49.2501 55.6395 48.991 55.7168 48.7607 55.8512C48.5304 55.9856 48.3357 56.1732 48.1929 56.3983C47.6405 55.7895 46.8744 55.4174 46.0543 55.3595C45.2343 55.3016 44.4235 55.5624 43.7911 56.0876C43.6967 54.9122 43.442 52.5582 43.2156 51.3544C43.208 51.0258 43.0792 50.7117 42.8539 50.4724C42.6287 50.2331 42.323 50.0855 41.9955 50.058C41.6681 50.0305 41.342 50.125 41.08 50.3234C40.818 50.5218 40.6386 50.81 40.5762 51.1326C40.5281 51.9213 40.5433 52.7126 40.6215 53.4989C41.0512 65.1183 40.7351 63.0214 40.7381 66.4372C40.7381 70.0035 40.1757 72.9237 37.2417 74.9262C40.2824 78.0966 42.0248 82.6756 43.0169 86.9723C45.8302 84.419 48.037 81.269 49.4757 77.7528C51.8859 71.98 52.8008 65.6924 52.1358 59.472Z" fill="#FFD2D2"/>
<path d="M49.7556 30.7195C49.3963 30.5112 48.9873 30.404 48.5719 30.4092C48.1565 30.4145 47.7504 30.5321 47.3964 30.7495C47.0424 30.9669 46.7539 31.276 46.5614 31.6441C46.3689 32.0122 46.2796 32.4255 46.303 32.8403C46.363 33.2575 46.5474 33.6469 46.8321 33.9577C47.1168 34.2685 47.4886 34.4863 47.8989 34.5827C48.4558 34.7144 49.0411 34.6487 49.555 34.3969C50.0688 34.145 50.4793 33.7225 50.7163 33.2016C50.8351 32.7394 50.8064 32.2516 50.6342 31.8065C50.4619 31.3614 50.1547 30.9813 49.7556 30.7195Z" fill="#9E647B"/>
<path d="M43.0195 86.9663C41.4972 80.3019 38.122 73.2008 31.499 71.4185C29.7065 70.9541 27.8334 70.8922 26.014 71.2371C24.1947 71.582 22.4742 72.3252 20.976 73.4134C16.3218 76.7947 14.0921 83.0433 12.9964 88.6957C12.9518 88.8508 12.9222 89.0099 12.9082 89.1707C13.112 88.25 13.5536 87.3988 14.1889 86.7019C14.8242 86.0051 15.6311 85.4869 16.5291 85.1992C17.4271 84.9114 18.3849 84.864 19.3069 85.0618C20.2289 85.2596 21.083 85.6956 21.7839 86.3264C22.4093 86.899 22.8954 87.6069 23.2051 88.3962C23.5149 89.1855 23.64 90.0351 23.5709 90.8801C23.5571 91.7165 23.6246 97.9075 23.643 100.164C24.5276 98.2256 25.5512 96.3537 26.7059 94.563C28.7691 91.306 31.766 87.6952 35.5617 87.0323C36.4152 86.8638 37.2936 86.8659 38.1463 87.0386C38.9989 87.2112 39.809 87.5509 40.5297 88.0382C41.9265 89.0064 43.0067 90.3651 43.6348 91.9443C43.7568 92.2512 43.8696 92.5582 43.9839 92.8605C44.0065 92.8257 44.0168 92.7843 44.0131 92.7431C43.8022 90.7987 43.4704 88.8694 43.0195 86.9663Z" fill="#C0C195"/>
<path d="M40.095 32.5318C40.5646 32.5924 41.0365 32.6377 41.5076 32.6807C41.9571 32.7492 42.4123 32.7726 42.8664 32.7505C44.3879 32.5786 44.5981 30.5385 42.2196 30.4249C41.3654 30.373 40.5212 30.2137 39.7068 29.9508C39.7567 29.7582 40.7043 29.7421 41.3181 29.805C41.7281 29.8482 42.1423 29.8267 42.5457 29.7413C42.7587 29.6661 42.9333 29.5098 43.0316 29.3065C43.1299 29.1032 43.1439 28.8692 43.0705 28.6556C42.7014 27.5638 40.4234 27.3513 39.2288 27.2745C36.8756 27.0923 34.5092 27.3595 32.2559 28.0618C25.8209 30.1065 21.5863 36.118 20.9004 42.784C20.9012 42.8523 20.9287 42.9175 20.9771 42.9657C21.0254 43.0139 21.0907 43.0412 21.159 43.0418H30.3278C30.3957 43.0403 30.4603 43.0126 30.5083 42.9646C30.5563 42.9166 30.584 42.8519 30.5856 42.784C30.6775 41.1997 31.3277 39.6992 32.4209 38.5487C32.8643 38.116 33.4183 37.8114 33.7866 38.304C34.1702 38.8111 35.084 41.162 36.5142 40.2221C38.0388 39.2178 35.8237 37.0625 36.7444 36.0697C37.1503 35.7121 37.6795 35.5266 38.2199 35.5526C40.2477 35.5219 41.1355 36.372 42.2472 36.3528C43.2531 36.3996 44.1017 35.3646 43.4595 34.5536C43.1588 34.1793 42.7732 33.882 42.3347 33.6866C41.6895 33.3917 41.0112 33.1753 40.3145 33.0421C40.1365 33.0083 39.6531 33.0221 39.6447 32.7574C39.6362 32.4927 39.9132 32.5065 40.095 32.5318ZM35.325 31.1822C35.5175 30.916 35.9687 31.1753 35.7707 31.4431C35.6221 31.6433 35.5145 31.871 35.4544 32.113C35.3942 32.355 35.3827 32.6065 35.4203 32.853C35.458 33.0996 35.5442 33.3361 35.6739 33.5491C35.8035 33.7622 35.9742 33.9473 36.1759 34.094C36.4459 34.2858 36.1889 34.73 35.915 34.5398C35.6541 34.3592 35.4317 34.1287 35.2606 33.8616C35.0895 33.5944 34.9731 33.2959 34.9182 32.9835C34.8634 32.671 34.871 32.3508 34.9409 32.0413C35.0107 31.7318 35.1412 31.4393 35.325 31.1807V31.1822ZM22.6459 39.3919C22.7004 39.0643 23.1983 39.204 23.1446 39.5293L22.8139 41.5318C22.7595 41.8595 22.2615 41.7198 22.3152 41.3945L22.6459 39.3919Z" fill="#9E647B"/>
<path d="M55.7242 24.6496C55.7413 24.6203 55.7525 24.5879 55.7571 24.5543C55.7617 24.5206 55.7596 24.4864 55.751 24.4536C55.7424 24.4207 55.7274 24.3899 55.7068 24.3628C55.6863 24.3358 55.6606 24.3131 55.6313 24.2959C55.602 24.2788 55.5696 24.2676 55.536 24.263C55.5023 24.2584 55.4681 24.2605 55.4352 24.2691C55.4024 24.2777 55.3716 24.2927 55.3445 24.3133C55.3175 24.3338 55.2947 24.3594 55.2776 24.3888C54.3075 25.985 53.3497 27.5886 52.4042 29.1995C52.3736 29.2584 52.3667 29.3268 52.3851 29.3905C52.4035 29.4543 52.4457 29.5085 52.503 29.5421C52.5602 29.5756 52.6282 29.5858 52.6928 29.5706C52.7574 29.5554 52.8137 29.5159 52.85 29.4604L55.7242 24.6496Z" fill="black"/>
<path d="M54.3169 29.9708L57.2609 27.7503C57.5233 27.5523 57.2662 27.1035 57.0008 27.3037L54.056 29.5288C53.7944 29.7222 54.0514 30.171 54.3169 29.9708Z" fill="black"/>
<path d="M44.3934 94.012C44.1523 93.3168 43.8983 92.6261 43.6315 91.9404C43.0774 90.5504 42.1741 89.3268 41.009 88.3879C38.2092 86.1836 34.6821 86.601 31.8126 88.7386C28.422 91.2644 25.2747 96.5585 23.6396 100.274C23.6396 100.729 23.6834 107.215 23.6842 107.388H53.7026V94.0864L44.3934 94.012ZM36.6885 99.514C35.6899 101.969 34.771 104.456 33.9333 106.971C33.9151 107.037 33.8713 107.093 33.8117 107.127C33.752 107.161 33.6814 107.17 33.6152 107.152C33.5491 107.134 33.4929 107.09 33.459 107.03C33.4251 106.971 33.4163 106.9 33.4345 106.834C34.2719 104.319 35.1906 101.833 36.1906 99.3767C36.3149 99.0721 36.8143 99.2071 36.6885 99.514ZM39.8343 90.5432L38.3182 90.0099C38.0059 89.9002 38.1409 89.4015 38.4555 89.512L39.9724 90.0445C40.2855 90.1534 40.1504 90.6529 39.8358 90.5432H39.8343ZM45.7514 102.291C45.5642 103.868 45.1721 105.413 44.5852 106.889C44.5674 106.955 44.524 107.012 44.4646 107.046C44.4052 107.08 44.3346 107.089 44.2683 107.072C44.2021 107.054 44.1456 107.01 44.1114 106.951C44.0771 106.892 44.0679 106.821 44.0857 106.755C45.5826 102.641 45.8888 99.3307 44.1624 94.6573C44.0458 94.3442 44.5507 94.2115 44.6604 94.5199C45.6413 96.9854 46.016 99.6504 45.753 102.291H45.7514Z" fill="#2755A0"/>
<path d="M142.7 89.4312C139.868 87.0972 134.444 82.4767 132.126 79.6187C127.155 82.7092 122.575 85.6432 119.645 90.744C123.032 94.8147 127.361 97.9977 132.257 100.017C132.301 100.029 132.347 100.029 132.392 100.018C132.436 100.006 132.476 99.9827 132.508 99.9504C135.027 97.4829 141.802 90.6995 142.7 89.7964C142.748 89.7479 142.775 89.6822 142.775 89.6138C142.775 89.5454 142.748 89.4798 142.7 89.4312Z" fill="#FFD2D2"/>
<path d="M90.9282 48.1839C90.441 47.9614 89.2548 47.4857 89.8541 46.7798C90.1274 46.514 90.4274 46.2772 90.7495 46.0731C92.5778 44.7688 91.2865 42.592 89.5218 43.8212C89.1812 44.0583 88.8635 44.3514 88.5835 44.58C87.1151 45.6368 85.7882 46.8774 84.6351 48.2713C84.0855 48.9925 83.7686 49.8639 83.7265 50.7696C83.6844 51.6754 83.9192 52.5724 84.3996 53.3414C84.6541 53.6709 84.947 53.9689 85.272 54.2291C85.5398 54.5038 85.8335 54.752 86.1489 54.9703C86.3044 55.0648 86.4794 55.1226 86.6605 55.1393C86.8417 55.156 87.0242 55.1312 87.1943 55.0668C87.3645 55.0023 87.5177 54.9 87.6423 54.7675C87.767 54.635 87.8597 54.4758 87.9136 54.302C88.0901 53.7151 87.6136 53.0123 87.3205 52.5373C87.1287 52.2266 86.8287 51.7892 86.7888 51.7378C86.7489 51.6864 86.7528 51.6956 86.762 51.6903C86.8387 51.6396 87.0121 51.8038 87.0781 51.8491C87.975 52.4629 88.5129 53.043 89.2073 53.1097C89.8709 53.1734 90.1502 52.4614 90.0443 51.9112C89.863 51.362 89.5577 50.8619 89.152 50.4496C88.7877 49.9819 88.4616 49.4857 88.1768 48.9657C88.384 48.9964 89.5318 50.3353 90.7349 50.5171C90.9889 50.5576 91.2493 50.5157 91.4779 50.3977C91.7065 50.2797 91.8913 50.0917 92.0055 49.8611C92.3791 49.0869 91.5351 48.4609 90.9282 48.1839ZM86.7244 46.8028C86.7608 46.8079 86.7955 46.8213 86.826 46.8419C86.8564 46.8626 86.8818 46.8898 86.9001 46.9217C87.1003 47.2662 87.319 47.5992 87.5139 47.9445C87.5445 48.0033 87.5514 48.0717 87.533 48.1355C87.5146 48.1993 87.4724 48.2535 87.4151 48.287C87.3579 48.3205 87.2899 48.3308 87.2253 48.3156C87.1607 48.3004 87.1044 48.2609 87.0681 48.2054C86.8587 47.867 86.6569 47.5233 86.4543 47.1826C86.4314 47.1399 86.4209 47.0917 86.4239 47.0433C86.427 46.995 86.4435 46.9484 86.4716 46.9089C86.4996 46.8695 86.5382 46.8386 86.5829 46.8198C86.6275 46.8011 86.6765 46.7952 86.7244 46.8028ZM84.9405 51.4923L84.3681 50.7013C84.1725 50.432 84.6205 50.1742 84.8139 50.4412L85.3863 51.2314C85.5819 51.5008 85.1338 51.7586 84.9405 51.4915V51.4923Z" fill="#FC9070"/>
<path d="M36.1901 99.3766C35.1911 101.832 34.2725 104.318 33.4341 106.834C33.4159 106.9 33.4247 106.97 33.4586 107.03C33.4925 107.09 33.5486 107.133 33.6148 107.152C33.6809 107.17 33.7516 107.161 33.8112 107.127C33.8709 107.093 33.9146 107.037 33.9328 106.971C34.7699 104.459 35.6975 101.949 36.6881 99.514C36.8139 99.2071 36.3144 99.072 36.1901 99.3766Z" fill="#2755A0"/>
<path d="M139.04 67.2383C139.038 67.1703 139.011 67.1056 138.962 67.0577C138.914 67.0097 138.85 66.982 138.782 66.9805H135.291C134.637 68.4929 133.678 69.854 132.473 70.9786C131.269 72.1031 129.845 72.967 128.292 73.516C125.186 74.4743 121.419 73.6618 118.026 70.0211C117.152 69.0738 116.356 68.0569 115.647 66.9805C115.647 66.9805 112.827 66.9743 112.389 66.9697L111.302 69.4641C111.267 69.5226 111.21 69.565 111.144 69.5823C111.078 69.5996 111.008 69.5905 110.948 69.5569C110.948 69.5569 110.494 69.3598 110.307 69.2769C110.622 71.1722 111.134 73.0295 111.834 74.8188C108.759 77.4621 104.565 81.5439 102.94 85.2536C101.182 89.6945 100.171 94.3956 99.9473 99.1664C99.9479 99.2347 99.9752 99.3 100.023 99.3484C100.072 99.3967 100.137 99.4242 100.205 99.425H116.591C116.647 99.4246 116.702 99.4059 116.747 99.3715C116.792 99.3372 116.825 99.2892 116.84 99.2347C117.173 96.3287 118.082 93.5182 119.513 90.9672C120.945 88.4163 122.87 86.1761 125.176 84.3774C127.379 82.634 129.7 81.0445 132.122 79.6204C134.884 77.9715 137.231 75.9598 138.337 72.9567C138.677 72.0153 138.902 71.0364 139.008 70.0411C139.07 69.1081 139.081 68.1724 139.04 67.2383ZM109.405 80.7421C108.899 81.2943 108.449 81.8946 108.061 82.5345C108.025 82.591 107.969 82.6314 107.904 82.6473C107.839 82.6631 107.77 82.6532 107.713 82.6195C107.655 82.5858 107.612 82.5311 107.594 82.4667C107.576 82.4023 107.583 82.3334 107.615 82.2744C108.016 81.5896 108.494 80.953 109.039 80.3769C109.266 80.1329 109.63 80.4989 109.405 80.7429V80.7421ZM115.785 72.2915C115.695 72.4917 114.422 73.1355 112.367 75.0275C112.137 75.2408 111.799 74.924 111.975 74.6984C113.055 73.6952 114.212 72.7776 115.434 71.9539C115.665 71.7981 115.878 72.0843 115.785 72.2922V72.2915Z" fill="#FF4848"/>
<path d="M26.5704 110.039C25.9842 110.039 25.398 110.026 24.8126 110.012C24.4528 110.003 24.0837 109.979 23.7208 109.992C23.6993 109.124 23.5535 91.7132 23.5673 90.8769C23.6005 90.0058 23.4667 89.1365 23.173 88.3158C22.9124 87.6555 22.5233 87.0535 22.0283 86.5448C21.5332 86.0361 20.942 85.6307 20.289 85.3524C19.636 85.074 18.9342 84.9281 18.2244 84.9231C17.5146 84.9181 16.8108 85.0542 16.154 85.3234C15.3363 85.6602 14.6124 86.1899 14.044 86.8673C13.4756 87.5447 13.0797 88.3497 12.8901 89.2135C11.4561 95.5541 9.92767 104.38 8.94787 110.116C7.75972 109.896 6.53538 109.975 5.38546 110.346C3.39518 111.044 3.49722 112.934 4.71027 113.344C5.33022 113.512 5.37856 113.464 8.35785 113.525C7.81385 116.039 7.17626 116.725 7.67651 117.548C7.84783 117.826 8.11566 118.032 8.42886 118.125C8.74205 118.218 9.07868 118.193 9.37447 118.054C9.73188 117.841 10.0593 117.581 10.3481 117.282C12.4865 115.386 14.5596 112.822 15.5041 113.759C16.0573 114.483 16.3842 116.23 17.0494 117.506C17.1569 117.758 17.3516 117.963 17.5979 118.083C17.8442 118.204 18.1256 118.231 18.3906 118.161C18.7026 118.058 18.9843 117.879 19.2103 117.64C19.4363 117.402 19.5996 117.111 19.6857 116.794C19.9673 115.759 20.0441 114.212 20.4622 113.768C21.0019 113.478 21.6217 113.373 22.2269 113.468C23.0533 113.493 26.1001 113.603 26.7952 113.604C27.1953 113.608 27.5847 113.476 27.9005 113.23C28.2162 112.984 28.4397 112.639 28.5346 112.251C28.5707 111.973 28.5468 111.69 28.4643 111.422C28.3819 111.154 28.2428 110.907 28.0566 110.697C27.8704 110.487 27.6414 110.32 27.385 110.206C27.1286 110.093 26.8508 110.036 26.5704 110.039ZM17.1614 111.004C16.8332 111.255 16.5254 111.532 16.2407 111.832C16.0105 112.073 15.6453 111.707 15.8755 111.466C16.1933 111.137 16.5368 110.833 16.9029 110.557C17.1668 110.357 17.4231 110.805 17.1614 111.004ZM12.1896 110.837L10.8039 111.604C10.5123 111.764 10.2515 111.318 10.543 111.157L11.9287 110.39C12.2203 110.23 12.4811 110.676 12.1896 110.837ZM12.9223 98.2342C13.1755 97.4976 13.3612 96.7395 13.477 95.9692C13.5269 95.6416 14.0241 95.7813 13.9758 96.1066C13.8593 96.8768 13.6734 97.6349 13.4203 98.3715C13.3128 98.6846 12.8134 98.5495 12.9223 98.2342Z" fill="#FFD2D2"/>
<path d="M117.364 103.22C112.824 101.102 107.697 100.594 102.83 101.78C101.496 102.116 100.202 102.597 98.9736 103.215C98.9235 103.243 98.884 103.286 98.8611 103.338C98.8382 103.391 98.8332 103.449 98.847 103.505C98.8607 103.56 98.8924 103.61 98.937 103.645C98.9817 103.681 99.0369 103.701 99.094 103.702H117.234C117.475 103.702 117.604 103.333 117.364 103.22Z" fill="black"/>
<path d="M146.214 90.6751C142.722 94.1738 142.12 95.607 139.922 97.7976C138.111 99.6224 135.922 101.029 133.51 101.918C133.449 101.929 133.394 101.962 133.354 102.009C133.314 102.057 133.292 102.117 133.291 102.179C133.29 102.241 133.311 102.302 133.35 102.35C133.389 102.399 133.443 102.433 133.504 102.446C136.153 103.48 139.977 102.472 142.726 98.416C144.268 96.0756 145.572 93.5873 146.619 90.9881C146.727 90.7349 146.438 90.4503 146.214 90.6751Z" fill="black"/>
<path d="M90.3239 33.8738C90.581 34.0802 90.9492 33.7204 90.6899 33.5086L87.6017 31.0296C87.3454 30.8239 86.9771 31.183 87.2364 31.3955L90.3239 33.8738Z" fill="black"/>
<path d="M137.048 58.1392C136.89 57.0834 136.388 56.1092 135.62 55.3677C134.852 54.6262 133.861 54.1587 132.8 54.0377C131.739 53.9167 130.668 54.149 129.753 54.6986C128.838 55.2481 128.129 56.0842 127.738 57.0773C127.14 59.0216 127.333 59.4835 126.518 60.9198C125.842 62.1121 124.846 62.1743 123.756 61.3456C122.956 60.7253 122.26 59.9821 121.692 59.1436C120.9 58.0216 120.207 56.8327 119.621 55.5904C119.264 54.7489 119.139 53.8271 119.259 52.9211C119.327 52.4124 119.341 51.8981 119.301 51.3865C119.275 51.1999 119.201 51.0235 119.084 50.8757C118.967 50.7279 118.813 50.6142 118.637 50.5464C118.609 50.5356 118.588 50.5188 118.56 50.5103C118.359 50.4326 118.141 50.4098 117.928 50.4441C117.715 50.4785 117.515 50.5689 117.348 50.706C117.055 51.0364 116.857 51.4407 116.776 51.8753C116.535 52.8727 116.46 53.5441 116.263 54.7556C115.186 54.2227 114.004 53.9333 112.802 53.9078C112.253 53.8917 111.501 53.7942 111.068 54.2055C110.904 54.3636 110.791 54.5682 110.747 54.7919C110.702 55.0157 110.727 55.2477 110.818 55.4569C111.053 56.0062 111.686 56.1351 112.194 56.3285C112.55 56.4635 112.906 56.5978 113.263 56.7275C113.334 56.7528 113.488 56.7681 113.516 56.8479C113.551 56.9454 113.407 56.9247 113.356 56.9247C111.689 56.973 110.977 56.6047 109.841 57.0635C109.644 57.1231 109.466 57.2341 109.326 57.3851C109.185 57.5361 109.088 57.7218 109.043 57.923C108.998 58.1242 109.008 58.3337 109.071 58.53C109.133 58.7263 109.247 58.9023 109.401 59.04C109.76 59.2833 110.177 59.4275 110.609 59.4582C111.31 59.5793 112.018 59.6561 112.729 59.6883C112.953 59.7006 113.174 59.7363 113.391 59.795C111.296 60.1518 110.398 60.1832 109.688 60.8369C109.531 61.0349 109.447 61.2811 109.45 61.5339C109.453 61.7868 109.543 62.0308 109.705 62.2249C110.181 62.8011 111.01 62.7275 111.672 62.739C114.073 62.7804 114.256 65.973 118.025 70.015C121.425 73.661 125.192 74.4651 128.291 73.5098C129.844 72.9606 131.268 72.0967 132.472 70.9721C133.677 69.8476 134.636 68.4866 135.291 66.9743C136.235 64.8261 136.811 62.5342 136.995 60.1947C137.107 59.5153 137.125 58.8236 137.048 58.1392ZM119.31 62.5318C119.47 62.6208 123.141 64.7247 123.141 64.7247C123.2 64.7592 123.243 64.8157 123.26 64.8819C123.278 64.9481 123.268 65.0185 123.234 65.0776C123.199 65.1367 123.143 65.1797 123.076 65.1971C123.01 65.2145 122.94 65.2049 122.881 65.1705C122.72 65.0814 119.049 62.9784 119.049 62.9784C119.02 62.9612 118.994 62.9385 118.974 62.9115C118.953 62.8844 118.938 62.8536 118.929 62.8207C118.921 62.7879 118.919 62.7537 118.923 62.72C118.928 62.6864 118.939 62.654 118.956 62.6247C118.973 62.5953 118.996 62.5697 119.023 62.5492C119.05 62.5286 119.081 62.5136 119.114 62.505C119.147 62.4964 119.181 62.4943 119.215 62.4989C119.248 62.5035 119.281 62.5147 119.31 62.5318ZM124.915 71.5004C125.674 71.7086 126.476 71.6966 127.229 71.4659C127.547 71.3646 127.682 71.8641 127.366 71.9638C126.526 72.235 125.624 72.2473 124.777 71.9991C124.745 71.9901 124.714 71.9747 124.687 71.9538C124.66 71.933 124.638 71.907 124.621 71.8775C124.587 71.8179 124.579 71.7472 124.597 71.6811C124.615 71.6149 124.659 71.5587 124.718 71.5249C124.778 71.491 124.849 71.4822 124.915 71.5004ZM116.091 56.9162C116.419 56.9699 116.279 57.4679 115.954 57.4149L114.661 57.2055C114.333 57.1525 114.473 56.6546 114.798 56.7068L116.091 56.9162ZM114.805 59.8464C115.27 59.9846 115.751 60.0649 116.236 60.0858C116.569 60.0996 116.569 60.6167 116.236 60.6022C115.705 60.5825 115.177 60.4961 114.667 60.3451C114.634 60.3361 114.604 60.3207 114.577 60.2999C114.55 60.279 114.528 60.2531 114.511 60.2235C114.494 60.194 114.483 60.1614 114.479 60.1277C114.475 60.094 114.478 60.0598 114.487 60.0271C114.496 59.9943 114.511 59.9637 114.532 59.9369C114.553 59.9101 114.579 59.8877 114.608 59.8709C114.638 59.8541 114.67 59.8433 114.704 59.8391C114.738 59.8349 114.772 59.8374 114.805 59.8464Z" fill="#FC9070"/>
<path d="M103.288 28.5691L102.65 24.4535C102.598 24.1259 102.1 24.2655 102.151 24.5908L102.789 28.7064C102.84 29.0341 103.339 28.8944 103.288 28.5691Z" fill="black"/>
<path d="M115.195 30.3189L117.33 25.9693C117.476 25.6724 117.03 25.41 116.883 25.7092L114.749 30.0581C114.602 30.355 115.048 30.6174 115.195 30.3189Z" fill="black"/>
<path d="M125.281 47.746C126.616 47.2749 127.966 46.8375 129.327 46.4355C129.359 46.4265 129.39 46.4111 129.417 46.3902C129.444 46.3694 129.466 46.3434 129.483 46.3139C129.5 46.2844 129.511 46.2518 129.515 46.2181C129.519 46.1844 129.516 46.1502 129.507 46.1175C129.498 46.0847 129.483 46.0541 129.462 46.0273C129.441 46.0005 129.415 45.978 129.386 45.9613C129.356 45.9445 129.324 45.9337 129.29 45.9295C129.256 45.9253 129.222 45.9278 129.189 45.9368C127.818 46.292 126.479 46.7769 125.144 47.248C124.834 47.3577 124.966 47.8572 125.281 47.746Z" fill="black"/>
<path d="M79.3034 42.8023C79.2374 42.7842 79.1669 42.793 79.1073 42.8268C79.0478 42.8606 79.004 42.9166 78.9858 42.9826C78.9689 43.0486 78.9782 43.1186 79.0118 43.1778C79.0455 43.2371 79.1008 43.281 79.1661 43.3003L83.1558 44.9744C83.2219 44.9926 83.2924 44.9838 83.352 44.95C83.4115 44.9162 83.4552 44.8601 83.4735 44.7941C83.4904 44.7282 83.481 44.6582 83.4474 44.5989C83.4138 44.5397 83.3585 44.4958 83.2932 44.4765L79.3034 42.8023Z" fill="black"/>
<path d="M148.97 62.6731H144.614C144.545 62.6731 144.48 62.7003 144.431 62.7488C144.383 62.7973 144.355 62.8631 144.355 62.9317C144.355 63.0002 144.383 63.066 144.431 63.1145C144.48 63.163 144.545 63.1902 144.614 63.1902H148.97C149.038 63.1902 149.104 63.163 149.153 63.1145C149.201 63.066 149.228 63.0002 149.228 62.9317C149.228 62.8631 149.201 62.7973 149.153 62.7488C149.104 62.7003 149.038 62.6731 148.97 62.6731Z" fill="black"/>
<path d="M140.256 52.4976H143.424C143.493 52.4976 143.559 52.4704 143.607 52.4219C143.655 52.3734 143.683 52.3076 143.683 52.239C143.683 52.1705 143.655 52.1047 143.607 52.0562C143.559 52.0077 143.493 51.9805 143.424 51.9805H140.256C140.188 51.9805 140.122 52.0077 140.073 52.0562C140.025 52.1047 139.998 52.1705 139.998 52.239C139.998 52.3076 140.025 52.3734 140.073 52.4219C140.122 52.4704 140.188 52.4976 140.256 52.4976Z" fill="black"/>
<path d="M149.365 47.3645H143.074C143.008 47.3681 142.945 47.3969 142.9 47.4449C142.854 47.4929 142.829 47.5565 142.829 47.6227C142.829 47.6888 142.854 47.7525 142.9 47.8005C142.945 47.8485 143.008 47.8773 143.074 47.8809H149.365C149.431 47.8773 149.493 47.8485 149.539 47.8005C149.584 47.7525 149.61 47.6888 149.61 47.6227C149.61 47.5565 149.584 47.4929 149.539 47.4449C149.493 47.3969 149.431 47.3681 149.365 47.3645Z" fill="black"/>
<path d="M52.1363 59.472C52.1225 59.1413 51.6054 59.139 51.6192 59.472C51.666 59.908 51.5925 60.3485 51.4066 60.7457C51.3244 60.9193 51.1953 61.0664 51.0338 61.1704C50.8723 61.2744 50.6849 61.3312 50.4928 61.3342C50.1039 61.261 49.7482 61.0664 49.4768 60.7784C49.2054 60.4905 49.0322 60.1239 48.9821 59.7313C48.9759 59.6934 48.961 59.6574 48.9384 59.6262C48.9776 58.6802 48.8413 57.7351 48.5363 56.8388C48.5254 56.8055 48.5079 56.7747 48.4848 56.7484C48.4618 56.722 48.4336 56.7006 48.402 56.6855C48.3704 56.6703 48.3361 56.6617 48.3011 56.6602C48.2661 56.6586 48.2312 56.6642 48.1984 56.6766C48.1656 56.6889 48.1357 56.7078 48.1104 56.732C48.0851 56.7562 48.0649 56.7853 48.0512 56.8176C48.0375 56.8498 48.0304 56.8845 48.0304 56.9195C48.0305 56.9545 48.0376 56.9892 48.0514 57.0214C48.2168 57.4955 48.328 57.9869 48.3829 58.4861C48.4962 59.1426 48.4544 59.8166 48.2609 60.4541C48.1828 60.7125 48.0081 60.9308 47.7732 61.0636C47.5382 61.1963 47.2611 61.2334 46.9995 61.1669C45.4757 60.6743 46.1294 58.9219 45.524 57.6421C45.3821 57.3413 44.9386 57.603 45.0782 57.903C45.1494 58.0581 45.2037 58.2204 45.2401 58.3871C45.0735 58.238 44.8781 58.1246 44.666 58.0538C44.4539 57.9831 44.2296 57.9564 44.0068 57.9755C43.784 57.9946 43.5675 58.0591 43.3706 58.165C43.1736 58.2709 43.0004 58.4159 42.8616 58.5912C42.1465 59.6063 42.1082 60.7764 41.9731 62.1712C41.9409 62.5019 42.458 62.4996 42.4903 62.1712C42.4896 61.136 42.6983 60.1114 43.1041 59.159C43.1904 58.9695 43.3265 58.8069 43.4979 58.6887C43.6693 58.5705 43.8696 58.501 44.0774 58.4876C44.2852 58.4742 44.4928 58.5174 44.6779 58.6127C44.8631 58.708 45.019 58.8517 45.1289 59.0285C45.7427 60.1794 44.9816 61.6871 45.6775 63.1012C45.824 63.3996 46.2698 63.138 46.124 62.8403C45.8889 62.2611 45.8067 61.6312 45.8854 61.0111C46.0538 61.2601 46.2884 61.457 46.5629 61.5796C46.8373 61.7022 47.1405 61.7456 47.4383 61.7049C47.7361 61.6642 48.0166 61.541 48.248 61.3493C48.4795 61.1575 48.6527 60.9049 48.7481 60.6198C48.9113 60.9698 49.1662 61.269 49.4856 61.4859C49.8051 61.7028 50.1772 61.8293 50.5627 61.8521C51.7013 61.7815 52.2506 60.5753 52.1363 59.472Z" fill="#FF4848"/>
<path d="M95.9998 109.204C95.9998 88.8719 96.0435 84.5491 95.9829 83.5778C95.9637 83.2709 95.9338 83.3016 95.8893 83.2709C95.8087 83.2103 75.223 70.4906 75.1463 70.4438C75.1068 70.4204 75.0617 70.4081 75.0158 70.4081C74.9699 70.4081 74.9249 70.4204 74.8854 70.4438C74.4342 70.7138 53.9882 83.1266 53.9076 83.1873C53.6007 83.4174 53.7089 83.4105 53.702 83.475C53.702 110.957 53.6767 109.464 53.7373 109.678C53.7994 109.768 52.3224 108.723 74.5762 124.247C74.6154 124.272 74.6606 124.284 74.7066 124.284C74.7527 124.284 74.7978 124.272 74.8371 124.247C79.3808 121.121 95.8417 109.803 95.9238 109.73C96.0458 109.603 95.9998 109.365 95.9998 109.204ZM75.0174 70.9716C75.0174 70.9716 95.076 83.3798 95.2317 83.478C95.2317 83.478 75.0741 95.5809 74.8478 95.7382C74.1995 95.3484 55.2058 83.8908 54.4677 83.4665C57.5974 81.5668 74.9422 71.0253 75.0174 70.9716ZM75.1424 115.642C75.1424 115.71 75.1152 115.776 75.0667 115.825C75.0182 115.873 74.9524 115.9 74.8839 115.9C74.8153 115.9 74.7495 115.873 74.701 115.825C74.6525 115.776 74.6253 115.71 74.6253 115.642V102.574C74.6279 102.506 74.6575 102.441 74.7077 102.395C74.7579 102.348 74.8245 102.323 74.8931 102.325C74.9587 102.327 75.0211 102.354 75.0675 102.4C75.1139 102.446 75.1407 102.509 75.1424 102.574C75.1869 105.146 75.2007 112.273 75.1424 115.643V115.642Z" fill="#FFC431"/>
<path d="M90.2648 82.6107C89.9978 82.2136 89.6323 81.8927 89.2041 81.6794C88.7758 81.4661 88.2995 81.3677 87.8218 81.3938C87.8218 81.3938 62.3003 81.3754 61.9381 81.4053C61.4615 81.4088 60.9953 81.546 60.5929 81.8014C60.1904 82.0569 59.8677 82.4202 59.6617 82.8501C59.232 84.0409 60.4473 85.4588 62.7353 85.2992C62.7353 85.2992 87.373 85.2946 87.7796 85.2992C89.7553 85.3199 90.9285 83.8483 90.2648 82.6107ZM82.2169 82.6398C82.2169 82.5713 82.2442 82.5055 82.2927 82.457C82.3412 82.4085 82.4069 82.3813 82.4755 82.3813C82.5441 82.3813 82.6098 82.4085 82.6583 82.457C82.7068 82.5055 82.7341 82.5713 82.7341 82.6398V83.9572C82.7341 84.0258 82.7068 84.0916 82.6583 84.1401C82.6098 84.1885 82.5441 84.2158 82.4755 84.2158C82.4069 84.2158 82.3412 84.1885 82.2927 84.1401C82.2442 84.0916 82.2169 84.0258 82.2169 83.9572V82.6398ZM66.508 82.6398C66.5116 82.5738 66.5403 82.5116 66.5884 82.4662C66.6364 82.4207 66.7 82.3953 66.7661 82.3953C66.8323 82.3953 66.8959 82.4207 66.9439 82.4662C66.992 82.5116 67.0207 82.5738 67.0243 82.6398V83.8621C67.0207 83.9281 66.992 83.9903 66.9439 84.0357C66.8959 84.0812 66.8323 84.1066 66.7661 84.1066C66.7 84.1066 66.6364 84.0812 66.5884 84.0357C66.5403 83.9903 66.5116 83.9281 66.508 83.8621V82.6398Z" fill="#2755A0"/>
<path d="M38.3193 90.01L39.8354 90.5433C40.15 90.6538 40.2858 90.1543 39.9735 90.0445L38.4566 89.5121C38.142 89.4016 38.007 89.9011 38.3193 90.01Z" fill="#2755A0"/>
<path d="M123.147 64.7211C123.147 64.7211 119.476 62.6172 119.316 62.5282C119.257 62.4936 119.186 62.484 119.12 62.5014C119.053 62.5188 118.997 62.5618 118.962 62.6211C118.927 62.6803 118.918 62.7508 118.935 62.8171C118.953 62.8835 118.996 62.9402 119.055 62.9748C119.055 62.9748 122.726 65.0778 122.887 65.1669C122.945 65.1964 123.013 65.2024 123.076 65.1836C123.139 65.1649 123.193 65.1229 123.226 65.0661C123.259 65.0093 123.269 64.942 123.255 64.8779C123.24 64.8138 123.201 64.7577 123.147 64.7211Z" fill="black"/>
<path d="M95.4839 112.278V118.416C95.4875 118.482 95.5163 118.544 95.5643 118.589C95.6123 118.635 95.6759 118.66 95.7421 118.66C95.8082 118.66 95.8718 118.635 95.9199 118.589C95.9679 118.544 95.9967 118.482 96.0003 118.416V112.278C95.9967 112.212 95.9679 112.149 95.9199 112.104C95.8718 112.058 95.8082 112.033 95.7421 112.033C95.6759 112.033 95.6123 112.058 95.5643 112.104C95.5163 112.149 95.4875 112.212 95.4839 112.278Z" fill="black"/>
<path d="M11.9286 110.391L10.543 111.158C10.2514 111.319 10.5123 111.765 10.8038 111.605L12.1895 110.837C12.4811 110.676 12.2202 110.23 11.9286 110.391Z" fill="#FF4848"/>
<path d="M54.8794 118.416V112.277C54.8794 112.209 54.8522 112.143 54.8037 112.095C54.7552 112.046 54.6895 112.019 54.6209 112.019C54.5523 112.019 54.4865 112.046 54.438 112.095C54.3895 112.143 54.3623 112.209 54.3623 112.277V118.416C54.3623 118.484 54.3895 118.55 54.438 118.598C54.4865 118.647 54.5523 118.674 54.6209 118.674C54.6895 118.674 54.7552 118.647 54.8037 118.598C54.8522 118.55 54.8794 118.484 54.8794 118.416Z" fill="black"/>
<path d="M74.4482 125.742V128.936C74.4482 129.004 74.4755 129.07 74.524 129.118C74.5725 129.167 74.6382 129.194 74.7068 129.194C74.7754 129.194 74.8412 129.167 74.8896 129.118C74.9381 129.07 74.9654 129.004 74.9654 128.936V125.742C74.9654 125.674 74.9381 125.608 74.8896 125.559C74.8412 125.511 74.7754 125.484 74.7068 125.484C74.6382 125.484 74.5725 125.511 74.524 125.559C74.4755 125.608 74.4482 125.674 74.4482 125.742Z" fill="black"/>
<path d="M16.9009 110.557C16.5349 110.833 16.1914 111.137 15.8736 111.466C15.6434 111.707 16.0086 112.073 16.2388 111.832C16.5234 111.532 16.8313 111.255 17.1595 111.004C17.4227 110.805 17.1664 110.357 16.9009 110.557Z" fill="#FF4848"/>
<path d="M13.4777 95.9694C13.3619 96.7396 13.1762 97.4977 12.923 98.2343C12.8148 98.5497 13.3135 98.6847 13.4209 98.3717C13.674 97.635 13.86 96.8769 13.9764 96.1067C14.0248 95.7814 13.5276 95.6417 13.4777 95.9694Z" fill="#FF4848"/>
<path d="M75.1426 115.643V102.575C75.1426 102.506 75.1154 102.44 75.0669 102.392C75.0184 102.343 74.9526 102.316 74.8841 102.316C74.8155 102.316 74.7497 102.343 74.7012 102.392C74.6527 102.44 74.6255 102.506 74.6255 102.575V115.643C74.6255 115.712 74.6527 115.778 74.7012 115.826C74.7497 115.875 74.8155 115.902 74.8841 115.902C74.9526 115.902 75.0184 115.875 75.0669 115.826C75.1154 115.778 75.1426 115.712 75.1426 115.643Z" fill="black"/>
<path d="M44.6602 94.5199C44.6482 94.4857 44.6292 94.4543 44.6043 94.4279C44.5795 94.4015 44.5494 94.3805 44.516 94.3664C44.3341 94.2897 44.0756 94.4247 44.1623 94.658C45.8779 99.2961 45.5978 102.605 44.0855 106.755C44.0677 106.822 44.077 106.892 44.1112 106.952C44.1454 107.011 44.2019 107.055 44.2681 107.072C44.3344 107.09 44.405 107.081 44.4644 107.047C44.5238 107.012 44.5672 106.956 44.585 106.89C45.1652 105.412 45.557 103.867 45.7513 102.292C46.0147 99.651 45.6406 96.9858 44.6602 94.5199Z" fill="#2755A0"/>
<path d="M35.9145 34.5382C36.1884 34.7285 36.4454 34.2842 36.1754 34.0924C35.9737 33.9458 35.803 33.7606 35.6734 33.5476C35.5437 33.3346 35.4575 33.098 35.4198 32.8515C35.3822 32.605 35.3937 32.3534 35.4539 32.1114C35.514 31.8694 35.6215 31.6417 35.7702 31.4415C35.9682 31.1738 35.517 30.9144 35.3245 31.1807C35.141 31.4392 35.0106 31.7316 34.9409 32.041C34.8712 32.3503 34.8636 32.6703 34.9185 32.9826C34.9734 33.2949 35.0897 33.5932 35.2606 33.8602C35.4316 34.1272 35.6538 34.3577 35.9145 34.5382Z" fill="black"/>
<path d="M22.8138 41.5272L23.1445 39.5247C23.1982 39.1993 22.7002 39.0597 22.6458 39.3873L22.3151 41.3899C22.2614 41.7152 22.7593 41.8548 22.8138 41.5272Z" fill="black"/>
<path d="M127.231 71.462C126.479 71.6927 125.676 71.7047 124.917 71.4965C124.884 71.4875 124.85 71.485 124.817 71.4892C124.783 71.4934 124.75 71.5042 124.721 71.521C124.661 71.5549 124.617 71.611 124.599 71.6772C124.581 71.7433 124.59 71.814 124.624 71.8736C124.657 71.9333 124.714 71.977 124.78 71.9952C125.626 72.2428 126.527 72.2305 127.365 71.9599C127.685 71.8602 127.55 71.3607 127.231 71.462Z" fill="#FF4848"/>
<path d="M114.662 57.2016L115.955 57.4111C116.28 57.464 116.42 56.9661 116.092 56.9124L114.799 56.7029C114.476 56.6507 114.334 57.1487 114.662 57.2016Z" fill="#FF4848"/>
<path d="M116.236 60.0889C115.751 60.0671 115.27 59.9856 114.804 59.8464C114.772 59.8374 114.737 59.8349 114.704 59.8391C114.67 59.8433 114.637 59.8541 114.608 59.8709C114.578 59.8877 114.552 59.9101 114.532 59.9369C114.511 59.9637 114.495 59.9944 114.486 60.0271C114.477 60.0599 114.475 60.0941 114.479 60.1278C114.483 60.1615 114.494 60.194 114.511 60.2236C114.528 60.2531 114.55 60.279 114.577 60.2999C114.604 60.3208 114.634 60.3361 114.667 60.3452C115.177 60.4965 115.704 60.5829 116.236 60.6022C116.569 60.6198 116.568 60.1027 116.236 60.0889Z" fill="#FF4848"/>
<path d="M115.434 71.9545C114.227 72.7743 113.079 73.6792 112 74.6622C111.957 74.7117 111.934 74.7759 111.936 74.8417C111.938 74.9075 111.965 74.9701 112.012 75.0167C112.059 75.0633 112.121 75.0904 112.187 75.0925C112.253 75.0946 112.317 75.0716 112.366 75.0282C113.41 74.0723 114.523 73.194 115.695 72.4003C115.957 72.2231 115.716 71.765 115.434 71.9545Z" fill="#FC9070"/>
<path d="M109.039 80.3778C108.493 80.9538 108.015 81.5904 107.614 82.2752C107.583 82.3342 107.576 82.4032 107.594 82.4675C107.612 82.5319 107.655 82.5867 107.712 82.6204C107.77 82.654 107.839 82.664 107.904 82.6481C107.969 82.6323 108.025 82.5918 108.061 82.5353C108.449 81.8954 108.899 81.2951 109.404 80.743C109.63 80.499 109.266 80.133 109.039 80.3778Z" fill="#FC9070"/>
<path d="M84.8135 50.4404C84.6202 50.1733 84.1721 50.4312 84.3677 50.7005L84.9401 51.4915C85.1335 51.7585 85.5815 51.5007 85.3859 51.2306L84.8135 50.4404Z" fill="#FF4848"/>
<path d="M87.0703 48.2047C87.1066 48.2603 87.1629 48.2997 87.2275 48.3149C87.2921 48.3302 87.36 48.3199 87.4173 48.2864C87.4746 48.2529 87.5168 48.1987 87.5352 48.1349C87.5535 48.0711 87.5467 48.0027 87.5161 47.9439C87.3189 47.5986 87.1002 47.2656 86.9023 46.9211C86.8677 46.8619 86.811 46.8189 86.7446 46.8014C86.6783 46.784 86.6078 46.7937 86.5486 46.8283C86.4893 46.8629 86.4463 46.9196 86.4289 46.9859C86.4115 47.0522 86.4211 47.1228 86.4557 47.182C86.659 47.5227 86.8608 47.8664 87.0703 48.2047Z" fill="#FF4848"/>
<path d="M119.645 38.5413C121.075 39.9086 123.355 40.0237 124.325 38.3111C125.571 37.6795 126.909 37.2496 128.289 37.0375C130.354 36.6001 129.702 34.6229 128.34 34.3697C130.614 32.6572 128.613 31.1794 126.531 32.2168C126.556 32.0201 126.525 31.8202 126.441 31.6405C126.358 31.4608 126.224 31.3086 126.057 31.2017C125.757 31.0496 125.424 30.9728 125.087 30.9779C124.75 30.983 124.42 31.0698 124.124 31.2308C122.517 31.8419 121.178 33.0009 120.342 34.5032C119.964 34.6595 119.632 34.909 119.376 35.2285C119.12 35.5479 118.95 35.9268 118.88 36.33C118.81 36.7332 118.844 37.1474 118.978 37.534C119.111 37.9207 119.341 38.2672 119.645 38.5413ZM125.692 32.9579C125.694 33.0269 125.716 33.0938 125.755 33.1506C125.794 33.2075 125.848 33.2518 125.912 33.2784C125.976 33.3049 126.046 33.3124 126.113 33.3001C126.181 33.2877 126.244 33.2561 126.294 33.2088C127.306 32.2781 129.388 32.3886 128.374 33.4022C127.821 33.9331 127.175 34.3573 126.468 34.6536C126.084 34.8178 126.346 35.4347 126.735 35.305L126.777 35.2912C127.376 35.0932 128.196 34.8224 128.69 35.3257C128.772 35.3972 128.834 35.4899 128.867 35.5938C128.9 35.6977 128.905 35.8088 128.879 35.915C128.485 36.6055 127.371 36.1359 124.633 37.3728C124.818 35.7001 123.079 34.1579 121.334 34.2584C122.226 32.9836 123.546 32.071 125.054 31.6866C125.189 31.6471 125.332 31.6495 125.466 31.6933C125.599 31.7371 125.716 31.8204 125.801 31.9321C125.894 32.2122 125.739 32.3687 125.692 32.9579ZM123.222 38.5168C121.747 39.6255 118.81 37.8968 119.708 36.0469C120.601 34.2093 123.334 34.827 123.901 36.7981C123.961 37.1194 123.929 37.4512 123.809 37.7553C123.689 38.0594 123.486 38.3234 123.222 38.5168Z" fill="black"/>
<path d="M46.2056 32.8441C46.2849 33.384 46.5593 33.876 46.977 34.2272C47.3947 34.5783 47.9267 34.764 48.4721 34.7492C48.9651 34.7446 49.4464 34.5993 49.8596 34.3304C50.2728 34.0616 50.6007 33.6803 50.8046 33.2315C50.9134 32.9373 50.94 32.619 50.8813 32.3108C51.0083 30.943 51.0355 29.5678 50.9627 28.196C51.0394 26.775 50.3067 26.4021 48.9386 26.2126C48.3268 26.0901 47.6941 26.1212 47.0972 26.3032C46.8328 26.4314 46.6118 26.6346 46.4618 26.8873C46.3117 27.1401 46.2392 27.4313 46.2532 27.7249C46.12 29.2543 46.1156 30.7922 46.2402 32.3223C46.2098 32.4945 46.1982 32.6694 46.2056 32.8441ZM50.256 31.0425C50.039 30.8112 49.7768 30.6268 49.4857 30.5008C49.1945 30.3747 48.8807 30.3097 48.5634 30.3097C48.2462 30.3097 47.9323 30.3747 47.6412 30.5008C47.3501 30.6268 47.0879 30.8112 46.8709 31.0425C46.8184 29.8947 46.8538 28.7446 46.9767 27.6021C46.9738 27.4792 47.0028 27.3576 47.0609 27.2492C47.119 27.1408 47.2042 27.0493 47.3082 26.9837C47.6011 26.8784 47.9136 26.8386 48.2235 26.8671C48.5897 26.8718 48.9542 26.9179 49.31 27.0044C50.0657 27.1049 50.3427 27.5223 50.266 28.4569C50.3071 29.3184 50.3038 30.1814 50.256 31.0425ZM49.8195 31.6433C50.053 31.9212 50.1898 32.2675 50.2092 32.63C50.2023 33.4556 49.1473 34.0963 48.3417 34.0418C48.0065 34.0167 47.6878 33.8863 47.4311 33.6693C47.1744 33.4522 46.9928 33.1597 46.9123 32.8333C46.7903 31.1277 48.9732 30.3835 49.821 31.6433H49.8195Z" fill="black"/>
<path d="M27.4487 70.0012C28.1147 70.0636 28.7809 69.8844 29.3257 69.4963C29.8706 69.1083 30.2577 68.5372 30.4164 67.8874C30.5553 67.313 30.4999 66.7088 30.2589 66.1692C30.0179 65.6295 29.6049 65.185 29.0845 64.9051C28.482 64.6053 27.8008 64.5017 27.1365 64.6088C26.4721 64.7158 25.8579 65.0282 25.3801 65.502C25.0883 65.9111 24.9096 66.39 24.8623 66.8903C24.815 67.3906 24.9006 67.8945 25.1105 68.3511C25.3204 68.8077 25.6472 69.2007 26.0578 69.4905C26.4683 69.7802 26.9481 69.9564 27.4487 70.0012ZM26.5563 65.4797C27.9957 64.9281 29.6937 65.5672 29.765 67.1478C29.7904 67.6567 29.6246 68.1567 29.3002 68.5496C28.9758 68.9425 28.5163 69.2 28.0118 69.2716C27.4527 69.3534 26.8838 69.212 26.428 68.8779C25.9722 68.5439 25.6661 68.044 25.5758 67.4861C25.4959 67.0904 25.5487 66.6794 25.7259 66.3167C25.9032 65.954 26.1951 65.6599 26.5563 65.4797Z" fill="black"/>
<path d="M52.4633 29.6339C52.5428 29.6763 52.6354 29.687 52.7225 29.664C52.8096 29.6409 52.8848 29.5858 52.9329 29.5096L55.8086 24.695C55.8559 24.6136 55.8689 24.5167 55.8448 24.4257C55.8207 24.3347 55.7615 24.257 55.6801 24.2097C55.5987 24.1624 55.5018 24.1493 55.4108 24.1735C55.3198 24.1976 55.2421 24.2568 55.1948 24.3382C54.2247 25.9359 53.2661 27.5406 52.3191 29.152C52.2963 29.193 52.282 29.2381 52.2769 29.2847C52.2719 29.3313 52.2762 29.3784 52.2897 29.4233C52.3031 29.4682 52.3254 29.51 52.3552 29.5462C52.385 29.5823 52.4218 29.6121 52.4633 29.6339Z" fill="black"/>
<path d="M54.3752 30.0474L57.3192 27.827C57.6806 27.5538 57.3115 26.9485 56.9425 27.227L53.9985 29.452C53.6356 29.7221 54.0046 30.326 54.3752 30.0474Z" fill="black"/>
<path d="M142.768 89.8642C142.801 89.8305 142.827 89.7907 142.844 89.747C142.861 89.7033 142.87 89.6566 142.869 89.6095C142.869 89.5625 142.859 89.516 142.84 89.4728C142.822 89.4296 142.795 89.3905 142.761 89.3578C140.414 87.4235 134.73 82.6335 132.271 79.6457C133.892 78.7248 135.35 77.5412 136.584 76.1432C138.511 73.9258 139.37 70.9258 139.135 67.2329C138.696 60.2723 139.129 52.6419 135.289 48.1572C133.135 45.6597 130.192 43.9742 126.948 43.381C124.326 43.1328 121.681 43.4136 119.17 44.2066C118.471 41.1614 116.852 38.4054 114.531 36.3134C112.211 34.2215 109.302 32.8952 106.201 32.5151C103.1 32.1349 99.9573 32.7194 97.2003 34.1888C94.4432 35.6583 92.2058 37.9415 90.7925 40.7278C90.5278 41.2495 90.4027 41.5564 89.4452 43.7569C89.1091 43.9871 88.7938 44.2833 88.5244 44.505C87.0498 45.567 85.7172 46.8134 84.5592 48.214C84.132 48.7966 83.8419 49.4681 83.7105 50.1785C83.5791 50.8888 83.6098 51.6197 83.8004 52.3165C83.9959 53.0061 84.3975 53.6194 84.9513 54.0743L83.5518 57.2861C83.5287 57.3272 83.5139 57.3724 83.5084 57.4192C83.5028 57.466 83.5065 57.5135 83.5194 57.5588C83.5322 57.6042 83.5539 57.6465 83.5831 57.6835C83.6124 57.7204 83.6487 57.7512 83.6899 57.7741L89.4245 60.2746L88.0633 63.5247C88.037 63.6148 88.0475 63.7116 88.0925 63.7939C88.1375 63.8762 88.2134 63.9373 88.3035 63.9636C88.3935 63.99 88.4903 63.9795 88.5727 63.9344C88.655 63.8894 88.716 63.8135 88.7424 63.7235L90.0705 60.5562L103.465 66.3959L102.068 69.2462C101.866 69.656 102.482 70.0074 102.687 69.5915L104.114 66.6759L110.228 69.3414C110.542 71.2032 111.044 73.0284 111.727 74.789C108.563 77.5127 104.478 81.5186 102.859 85.2161C100.965 89.5412 100.068 95.2557 99.8585 99.168C99.8593 99.2617 99.8969 99.3513 99.9632 99.4175C100.03 99.4837 100.119 99.5211 100.213 99.5217H116.599C116.679 99.5203 116.755 99.4927 116.818 99.4433C116.88 99.394 116.924 99.3255 116.943 99.2486C117.319 96.3233 118.243 93.495 119.665 90.9115C123.056 94.9414 127.368 98.0957 132.235 100.108C132.295 100.124 132.359 100.125 132.419 100.109C132.48 100.093 132.535 100.062 132.58 100.018C135.121 97.5238 141.981 90.6545 142.768 89.8642ZM131.655 80.0255C134.249 83.1307 139.679 87.7281 141.994 89.6417C138.542 93.0944 136.335 95.512 132.25 99.3552C127.505 97.3592 123.315 94.2435 120.037 90.2747C123.015 85.5759 127.229 82.7386 131.655 80.0255ZM100.588 98.8143C100.822 94.8434 101.584 90.9214 102.855 87.1519C103.576 85.0534 104.718 82.6296 108.153 79.1309C110.475 76.7471 112.98 74.5481 115.644 72.5539C115.772 72.4687 115.821 72.435 115.861 72.356C116.687 71.7283 117.526 71.1172 118.377 70.523C121.356 73.5153 124.976 74.6409 128.319 73.6104C131.247 72.5914 133.661 70.4682 135.044 67.6941H138.45C138.675 70.3602 137.958 73.0207 136.425 75.2133C134.091 78.3644 131.049 79.0902 125.308 83.4997C122.843 85.307 120.772 87.5978 119.222 90.2322C117.672 92.8667 116.676 95.7894 116.293 98.822L100.588 98.8143ZM111.654 45.9107C111.483 46.2618 111.204 46.5499 110.86 46.7339C110.592 46.9066 110.303 47.0421 109.999 47.1367C110.423 46.6519 110.873 46.1909 111.347 45.7557C111.694 45.4771 111.73 45.7549 111.654 45.9107ZM107.92 45.4687C107.965 43.8114 109.071 43.503 109.058 43.7309C109.058 44.2864 108.338 45.0935 107.92 45.4687ZM105.351 43.0595C105.352 42.6983 105.433 42.3418 105.585 42.0145C105.776 41.6976 106.15 41.8326 106.09 42.0398C105.931 42.4354 105.677 42.7856 105.351 43.0595ZM101.63 40.8406C101.652 40.7927 101.686 40.7512 101.729 40.72C101.771 40.6888 101.821 40.6689 101.873 40.6622C101.925 40.6554 101.979 40.6621 102.028 40.6814C102.077 40.7008 102.12 40.7324 102.153 40.7731C102.435 41.2234 102.354 41.6408 102.063 43.2482C101.771 42.9285 101.576 42.5329 101.499 42.1069C101.422 41.6808 101.468 41.2419 101.63 40.8406ZM102.561 44.4406C102.919 44.5814 103.303 44.6432 103.687 44.6219C104.071 44.6006 104.446 44.4966 104.786 44.317C104.919 45.2676 105.414 46.1302 106.167 46.7255C106.363 46.8237 106.581 46.8719 106.8 46.8658C107.02 46.8596 107.234 46.7993 107.424 46.6902C107.612 47.1764 107.973 47.576 108.437 47.8119C104.266 52.4483 100.778 57.6567 98.0792 63.2792L95.3938 62.1107C98.9282 56.7527 101.364 50.7467 102.561 44.4406ZM109.241 47.9738C110.276 47.9297 111.253 47.4822 111.962 46.727C112.661 46.0787 112.439 44.848 111.557 44.9002C110.97 45.0237 110.706 45.2838 108.941 47.2357C108.72 47.1719 108.52 47.0522 108.36 46.8882C108.2 46.7241 108.085 46.5214 108.026 46.2997C108.769 45.7562 109.348 45.0195 109.702 44.1697C109.763 44.0415 109.791 43.9 109.784 43.7581C109.776 43.6162 109.733 43.4785 109.658 43.3576C109.583 43.2367 109.48 43.1365 109.356 43.0662C109.233 42.9959 109.093 42.9577 108.951 42.9552C108.742 42.9696 108.538 43.0282 108.353 43.1269C108.168 43.2257 108.006 43.3625 107.877 43.5283C107.611 43.8724 107.417 44.267 107.307 44.6882C107.197 45.1094 107.174 45.5485 107.238 45.9789C107.062 46.1029 106.852 46.1691 106.637 46.1685C106.527 46.1254 106.428 46.0571 106.348 45.969C105.84 45.3964 105.517 44.6841 105.42 43.925C106.07 43.4782 106.556 42.8317 106.805 42.0835C106.917 41.2879 106.015 40.9434 105.401 41.2395C105.228 41.3533 105.08 41.5021 104.968 41.6764C104.855 41.8507 104.781 42.0467 104.749 42.2516C104.656 42.6866 104.632 43.1334 104.677 43.5759C104.391 43.7727 104.058 43.8905 103.712 43.9175C103.366 43.9444 103.019 43.8795 102.707 43.7293C102.849 43.0707 102.956 42.4047 103.025 41.7344C103.081 41.1866 102.974 40.1999 102.223 39.992C102.011 39.9365 101.787 39.9471 101.582 40.0224C101.376 40.0976 101.198 40.234 101.072 40.4132C100.45 41.2864 100.689 43.0986 101.916 44.0692C100.754 50.4138 98.313 56.4554 94.7408 61.826C93.7863 61.4071 85.3434 57.7035 84.3267 57.2723L85.4999 54.58C85.6807 54.8161 85.9217 54.9992 86.1977 55.11C86.4736 55.2208 86.7743 55.2553 87.0682 55.2099C87.236 55.1699 87.3941 55.0968 87.5334 54.995C87.6726 54.8932 87.7902 54.7646 87.8792 54.6168C88.295 53.9263 87.847 53.2058 87.4518 52.5682C87.3232 52.359 87.1896 52.1528 87.0513 51.9498C87.9436 52.5636 88.4799 53.1398 89.1996 53.2089C89.8956 53.2756 90.2677 52.559 90.1403 51.8976C89.9984 51.1626 89.373 50.7252 88.4822 49.3181C89.1051 49.9355 89.8764 50.3823 90.7219 50.6155C91.9395 50.7974 93.2439 49.1255 90.8822 48.0582C90.2447 47.7697 89.4743 47.3815 89.9224 46.8498C90.1925 46.588 90.4886 46.3545 90.8063 46.1531C92.4175 45.0022 91.7017 43.2076 90.3889 43.3672C90.3889 43.3672 90.8715 42.2615 91.0388 41.8756C92.4536 38.5871 95.0353 35.9385 98.2865 34.4401C101.538 32.9417 105.229 32.6995 108.648 33.7602C112.067 34.8209 114.973 37.1094 116.805 40.1848C118.637 43.2602 119.267 46.9049 118.572 50.4168C118.355 50.3392 118.122 50.3196 117.896 50.36C117.669 50.4004 117.457 50.4993 117.281 50.647C116.673 51.3306 116.612 52.0035 116.193 54.6168C115.134 54.1135 113.981 53.8407 112.809 53.8165C112.218 53.8004 111.468 53.7022 111.006 54.1403C110.828 54.3122 110.706 54.5344 110.658 54.7772C110.609 55.02 110.635 55.2719 110.734 55.4992C111.012 56.1483 111.654 56.2081 113.279 56.8388C111.744 56.8726 110.947 56.525 109.81 56.9823C109.595 57.0475 109.402 57.1689 109.25 57.3339C109.099 57.499 108.994 57.7016 108.947 57.9209C108.9 58.1401 108.913 58.3679 108.983 58.5806C109.054 58.7934 109.181 58.9833 109.35 59.1306C109.72 59.3812 110.149 59.5307 110.595 59.5641C111.331 59.6887 112.074 59.7684 112.82 59.8027C111.387 60.0329 110.33 60.1288 109.615 60.7871C109.445 61.0027 109.354 61.27 109.357 61.5445C109.36 61.819 109.458 62.0841 109.633 62.2956C110.131 62.8994 110.937 62.8327 111.671 62.8449C111.963 62.8505 112.251 62.9145 112.519 63.0331C112.786 63.1517 113.027 63.3225 113.227 63.5355C113.227 63.5355 111.169 68.2158 110.896 68.8741L98.7283 63.5692C101.453 57.8857 104.994 52.6315 109.241 47.9738ZM84.3421 50.8304L84.8623 51.5477C85.1255 51.9137 85.737 51.5523 85.4638 51.1749L84.8907 50.3838C84.8372 50.3096 84.758 50.2579 84.6686 50.2388C84.5791 50.2196 84.4857 50.2344 84.4065 50.2802C84.7246 49.085 85.417 48.0229 86.3822 47.2495C86.3822 47.2495 86.8503 48.0329 86.9876 48.2554C87.0112 48.2957 87.0425 48.331 87.0797 48.3592C87.1169 48.3874 87.1593 48.408 87.2045 48.4198C87.2496 48.4317 87.2967 48.4345 87.3429 48.4281C87.3892 48.4218 87.4338 48.4064 87.4741 48.3828C87.5144 48.3592 87.5496 48.3279 87.5778 48.2907C87.6061 48.2535 87.6267 48.2111 87.6385 48.1659C87.6503 48.1208 87.6531 48.0737 87.6468 48.0275C87.6404 47.9812 87.625 47.9366 87.6014 47.8963C87.4027 47.5472 87.1894 47.2227 86.9876 46.8728C86.9659 46.8357 86.9375 46.803 86.904 46.7761C87.5738 46.1945 89.5695 44.5265 90.0007 44.2511C90.1411 44.1613 90.6206 43.8966 90.9076 44.2303C90.9868 44.3419 91.0306 44.4748 91.0334 44.6116C91.0361 44.7484 90.9976 44.8829 90.9229 44.9976C90.5938 45.6045 89.8649 45.8416 89.3991 46.3702C89.2746 46.5081 89.1838 46.673 89.134 46.852C89.0842 47.031 89.0768 47.2191 89.1122 47.4014C89.4835 48.6828 90.992 48.4879 91.4224 49.2997C91.4583 49.3564 91.4764 49.4226 91.4745 49.4897C91.4726 49.5568 91.4507 49.6218 91.4117 49.6764C91.3411 49.7618 91.2503 49.8281 91.1475 49.8694C91.0447 49.9107 90.9332 49.9256 90.8232 49.9127C89.8188 49.6756 89.3401 49.0465 88.5605 48.4795C88.4243 48.3797 88.2543 48.3375 88.0873 48.3619C87.9202 48.3863 87.7694 48.4754 87.6674 48.6099C87.4334 48.9252 87.6344 49.2636 87.7948 49.536C88.7692 51.1902 89.7252 51.7764 89.4337 52.3749C89.2802 52.6856 88.7531 52.302 88.47 52.0948C88.2291 51.9191 88.2874 51.9713 87.7533 51.5738C87.2193 51.1764 86.9638 50.9869 86.6193 51.082C86.4573 51.1272 86.3197 51.2345 86.2364 51.3807C86.153 51.5268 86.1307 51.6999 86.1743 51.8623C86.2549 52.1539 86.8342 52.714 87.2485 53.6992C87.3008 53.7877 87.3288 53.8884 87.3296 53.9912C87.3304 54.0941 87.304 54.1953 87.2531 54.2846C87.1734 54.3988 87.0551 54.4803 86.9199 54.514C86.7848 54.5478 86.642 54.5314 86.5181 54.468C86.2267 54.2826 85.9605 54.0603 85.7262 53.8066C85.431 53.5748 85.1626 53.3107 84.926 53.0194C84.5143 52.3656 84.3107 51.6023 84.3421 50.8304ZM118.811 55.1761C119.407 56.6443 120.167 58.0402 121.078 59.337C121.643 60.1626 123.627 62.8296 125.499 62.492C127.125 62.1981 127.786 59.5703 127.954 58.7654C128.05 58.1021 128.241 57.4561 128.521 56.8472C129.057 55.858 129.963 55.1218 131.041 54.8001C132.119 54.4785 133.281 54.5977 134.271 55.1316C134.912 55.4702 135.454 55.97 135.842 56.5819C136.231 57.1937 136.454 57.8963 136.488 58.6204C136.495 59.3313 136.44 60.0415 136.322 60.7426C136.095 62.9779 135.487 65.1578 134.524 67.1877C132.913 70.437 129.581 73.279 125.854 73.279C120.581 73.279 117.031 68.2703 114.809 64.4907C114.074 63.2393 113.176 62.1375 111.723 62.1375C111.179 62.1375 110.431 62.2388 110.15 61.7969C109.727 61.1316 110.776 60.8762 111.558 60.7265C113.255 60.3989 114.076 60.5309 114.072 59.7943C114.072 59.1406 113.175 59.0999 112.695 59.0769C111.777 59.0512 110.866 58.9204 109.978 58.6871C109.874 58.6501 109.785 58.5826 109.72 58.4937C109.656 58.4047 109.62 58.2983 109.617 58.1884C109.637 57.7986 110.131 57.6053 110.276 57.5577C110.86 57.4274 111.464 57.4089 112.055 57.5033C112.583 57.5756 113.117 57.5799 113.646 57.5163C113.785 57.476 113.907 57.3925 113.994 57.2779C114.082 57.1634 114.13 57.0239 114.133 56.8798C114.136 56.7356 114.092 56.5944 114.009 56.4768C113.926 56.3591 113.807 56.2712 113.67 56.2258C113.312 56.0853 112.004 55.6043 111.706 55.49C111.597 55.4609 111.501 55.3945 111.436 55.3024C111.37 55.2102 111.339 55.0981 111.348 54.9854C111.356 54.8728 111.404 54.7667 111.483 54.6855C111.561 54.6043 111.666 54.5531 111.778 54.5408C113.339 54.4097 114.905 54.7372 116.283 55.483C116.323 55.5069 116.368 55.5225 116.414 55.5289C116.461 55.5353 116.508 55.5324 116.554 55.5203C116.599 55.5082 116.642 55.4873 116.679 55.4586C116.716 55.43 116.747 55.3942 116.771 55.3534C116.857 55.0237 116.918 54.6876 116.952 54.3483C117.03 53.3479 117.245 52.3631 117.591 51.4211C117.631 51.2934 117.718 51.1856 117.835 51.1196C117.952 51.0535 118.089 51.0341 118.219 51.0651C118.285 51.0648 118.349 51.0774 118.41 51.1023C118.47 51.1271 118.525 51.1636 118.572 51.2097C118.618 51.2558 118.655 51.3106 118.68 51.371C118.705 51.4314 118.719 51.4961 118.719 51.5616C118.714 53.3784 118.416 53.6063 118.811 55.1761ZM112.538 66.8754L113.731 64.1393C114.107 64.6649 114.595 65.5657 115.471 66.8838C114.901 66.8831 113.138 66.8792 112.538 66.8754ZM111.392 69.5025L112.224 67.5928H115.956C116.541 68.4406 117.184 69.2469 117.88 70.0058C116.316 71.1092 113.572 73.1478 112.283 74.2841C111.718 72.7909 111.288 71.2502 110.998 69.6805C111.074 69.6974 111.153 69.6891 111.224 69.6571C111.295 69.625 111.354 69.5708 111.392 69.5025ZM135.436 66.8838C136.337 64.7629 136.895 62.5124 137.089 60.2163C137.374 58.9377 137.191 57.5995 136.573 56.4444C136.115 55.6278 135.434 54.9579 134.611 54.5124C133.787 54.0668 132.854 53.8639 131.92 53.9272C130.986 53.9905 130.089 54.3174 129.333 54.87C128.577 55.4225 127.993 56.1781 127.65 57.049C127.053 58.9917 127.244 59.4506 126.439 60.8731C126.258 61.2055 125.993 61.4852 125.672 61.6848C125.12 62.0102 124.278 61.6196 123.818 61.269C123.026 60.6552 122.336 59.9195 121.775 59.0892C121.201 58.2686 120.676 57.4146 120.203 56.5319C119.906 56.0095 119.661 55.459 119.473 54.8884C119.089 53.2327 119.537 52.925 119.403 51.3759C119.375 51.1915 119.304 51.0162 119.197 50.8633C119.63 48.9048 119.671 46.8799 119.317 44.9055C120.673 44.4998 122.064 44.2213 123.471 44.0738C124.887 43.8833 126.324 43.9388 127.721 44.238C131.082 45.0713 133.989 47.177 135.828 50.1114C138.293 54.2777 138.086 61.569 138.411 66.8838H135.436Z" fill="black"/>
<path d="M96.0959 83.5551C96.1045 83.4872 96.0954 83.4183 96.0692 83.355C96.0431 83.2918 96.001 83.2365 95.947 83.1945C95.8526 83.1231 75.3843 70.474 75.1956 70.362C75.1412 70.3294 75.079 70.3122 75.0156 70.3122C74.9523 70.3122 74.8901 70.3294 74.8357 70.362L63.8424 77.0487C63.8968 71.5244 64.1216 56.0985 62.993 50.7982C62.706 49.3563 62.1127 47.9929 61.253 46.8002C60.3934 45.6075 59.2876 44.6134 58.0104 43.8852C54.9007 42.0768 50.604 41.4054 45.2377 41.8903C42.1629 42.1052 39.2429 43.3205 36.9236 45.3507C34.7224 47.4223 31.1791 46.4394 30.7356 44.2704C30.2968 42.1289 31.5605 38.8872 33.1088 38.1852C33.5178 37.9995 33.7518 38.3724 33.9643 38.7637C34.6034 39.9369 35.4482 41.0363 36.5669 40.2982C38.1566 39.2517 35.9576 37.0542 36.8093 36.1381C37.1974 35.7941 37.7055 35.6169 38.2234 35.6448C40.163 35.6102 41.1497 36.4634 42.2446 36.445C43.3372 36.4926 44.2303 35.3655 43.5367 34.4908C43.2264 34.1046 42.8288 33.7977 42.3766 33.5954C41.6829 33.274 40.9484 33.0489 40.1937 32.9264C40.0265 32.9095 39.7464 32.8803 39.7426 32.7507C39.7341 32.5159 40.0196 32.6379 41.4935 32.7706C41.9503 32.8399 42.413 32.8633 42.8745 32.8404C43.0593 32.8408 43.2417 32.7986 43.4076 32.7171C43.5735 32.6357 43.7184 32.5172 43.8312 32.3707C43.9439 32.2243 44.0215 32.0539 44.0578 31.8727C44.0942 31.6915 44.0883 31.5044 44.0408 31.3258C43.8801 30.9918 43.6193 30.7162 43.2946 30.5374C42.9699 30.3586 42.5975 30.2855 42.2293 30.3284C41.4449 30.2583 40.6678 30.1228 39.906 29.9233C40.8827 29.7246 41.4789 30.0698 42.5761 29.8304C42.8123 29.7461 43.0058 29.5723 43.115 29.3465C43.2243 29.1207 43.2404 28.8611 43.16 28.6235C42.8784 27.7903 41.594 27.3192 39.2331 27.1811C36.868 26.9954 34.4891 27.2639 32.2249 27.9721C21.8431 31.2714 18.0436 44.522 22.6341 51.3484C24.9451 54.7873 28.7085 56.9901 33.5216 57.7228C33.4338 62.4662 33.3517 67.2097 33.2753 71.9533C32.8961 71.7812 32.5078 71.6298 32.1121 71.4998C32.1735 68.4208 32.5403 65.6763 31.038 63.8993C29.3661 61.9267 26.2149 62.2926 24.3957 64.0865C22.6471 65.809 22.0272 67.8707 21.2032 70.3451C20.9684 71.0533 20.7819 71.6118 20.6868 71.7906C19.3658 73.8455 17.4384 75.4388 15.1717 76.3497C13.8374 76.876 12.3904 77.1484 11.1881 78.0323C10.0625 78.8599 9.24731 80.0415 8.87321 81.3876C8.6861 82.0382 8.69553 82.7297 8.9003 83.375C9.10508 84.0203 9.49607 84.5907 10.0241 85.0144C8.84991 85.4528 7.8767 86.3056 7.28805 87.4121C6.2906 89.4975 7.47756 91.4234 9.15787 91.6536C8.62797 92.2537 8.23221 92.9599 7.997 93.7252C7.85429 94.1936 7.83928 94.6916 7.95354 95.1678C8.06779 95.644 8.30715 96.0809 8.64687 96.4336C8.99292 96.7177 9.39951 96.9187 9.83539 97.0212C10.2713 97.1236 10.7248 97.1247 11.1612 97.0244C11.2379 97.0114 11.2141 96.416 8.87398 110.017C7.70039 109.805 6.49252 109.889 5.35914 110.26C3.28753 110.986 3.3773 112.997 4.69009 113.441C5.31694 113.61 5.37526 113.565 8.24406 113.623C7.6947 116.096 7.07705 116.743 7.59956 117.602C7.78413 117.901 8.07321 118.122 8.411 118.221C8.7488 118.321 9.11136 118.291 9.42871 118.139C10.4384 117.538 12.4978 115.242 13.7607 114.284C14.0609 114.028 14.4033 113.827 14.7727 113.689C14.884 113.646 15.0051 113.636 15.1219 113.659C15.2388 113.682 15.3468 113.738 15.4333 113.82C15.9704 114.52 16.3042 116.275 16.9679 117.549C17.0864 117.822 17.2986 118.043 17.5661 118.172C17.8335 118.302 18.1385 118.331 18.4257 118.255C18.7531 118.147 19.0487 117.96 19.2858 117.71C19.5229 117.459 19.694 117.154 19.7837 116.821C20.0561 115.824 20.1543 114.244 20.5257 113.847C21.0118 113.58 21.5723 113.48 22.1208 113.563L26.8011 113.702C27.1546 113.714 27.5035 113.62 27.8042 113.434C28.1048 113.248 28.3439 112.977 28.4913 112.656C28.6388 112.334 28.6881 111.976 28.6331 111.627C28.5781 111.278 28.4213 110.952 28.1822 110.692C27.9842 110.46 27.7389 110.273 27.4626 110.145C27.1864 110.016 26.8857 109.948 26.5809 109.945C25.8382 109.945 23.8188 109.896 23.8188 109.896C23.8011 109.169 23.7904 108.398 23.785 107.486H53.607V109.021C53.5701 109.243 53.5811 109.471 53.6393 109.689C53.6393 109.793 53.0654 109.366 74.5265 124.336C74.5814 124.369 74.6444 124.387 74.7087 124.387C74.773 124.387 74.8361 124.369 74.891 124.336C74.891 124.336 95.5081 110.152 95.9693 109.823C96.1641 109.787 96.0959 111.15 96.0959 83.5551ZM8.20953 116.424C8.54108 115.39 8.81162 114.338 9.01976 113.272C9.01896 113.179 8.98163 113.09 8.91578 113.024C8.84992 112.958 8.76081 112.92 8.66759 112.919C8.00007 112.908 5.79188 112.872 5.36835 112.847C5.22043 112.855 5.07255 112.83 4.93545 112.774C4.79835 112.718 4.67548 112.632 4.57577 112.522C4.48169 112.353 4.44526 112.158 4.47197 111.966C4.49868 111.774 4.58709 111.596 4.72385 111.459C4.9848 111.19 5.31306 110.996 5.67449 110.897C6.09774 110.759 6.5354 110.671 6.97884 110.633C7.70776 110.624 8.4365 110.663 9.16017 110.751C9.2392 110.75 9.31584 110.724 9.37805 110.675C9.44026 110.626 9.48453 110.558 9.50391 110.481C9.88754 108.232 12.9037 90.4328 13.8175 88.3413C14.0651 87.7739 14.4239 87.2619 14.8728 86.8356C15.3216 86.4092 15.8514 86.0772 16.4308 85.8592C17.1539 85.5815 17.9334 85.4828 18.7029 85.5717C19.4724 85.6606 20.2089 85.9343 20.8496 86.3696C21.4904 86.8048 22.0163 87.3887 22.3825 88.0712C22.7486 88.7538 22.9442 89.5148 22.9525 90.2894L23.1159 110.266C23.117 110.36 23.1553 110.45 23.2227 110.516C23.29 110.582 23.3807 110.619 23.475 110.618C23.9707 110.592 25.8535 110.663 26.5778 110.652C26.9024 110.653 27.2165 110.767 27.467 110.973C27.7176 111.179 27.8891 111.466 27.9528 111.784C27.9748 112.082 27.8774 112.377 27.6821 112.603C27.4869 112.83 27.2097 112.969 26.9116 112.991C26.7712 112.998 22.6794 112.878 22.3026 112.858C21.7985 112.825 21.2923 112.857 20.7965 112.954C20.449 113.027 20.1348 113.211 19.9019 113.479C19.7765 113.667 19.6827 113.875 19.6241 114.093C19.1315 115.921 19.3579 116.305 18.8684 117.093C18.7782 117.234 18.6565 117.353 18.5128 117.439C18.3692 117.525 18.2075 117.577 18.0405 117.59C17.9678 117.587 17.8973 117.564 17.8358 117.525C17.7744 117.486 17.7241 117.432 17.6899 117.368C17.2999 116.679 17.0007 115.943 16.7998 115.178C16.6432 114.447 16.3037 113.768 15.8131 113.204L15.8047 113.198C14.2786 112.004 12.0788 115.013 9.53843 117.174C9.34483 117.402 9.06898 117.544 8.77117 117.569C8.64492 117.554 8.52429 117.509 8.42041 117.435C8.31653 117.362 8.23274 117.264 8.17678 117.15C8.12082 117.036 8.09448 116.91 8.10021 116.783C8.10593 116.656 8.14353 116.532 8.20953 116.424ZM8.8924 93.3216C9.25039 92.6491 9.70511 92.0329 10.242 91.4924C10.2951 91.4361 10.3284 91.3641 10.3369 91.2872C10.3454 91.2103 10.3288 91.1327 10.2894 91.0661C10.25 90.9995 10.19 90.9476 10.1185 90.918C10.047 90.8885 9.96781 90.883 9.89291 90.9024C9.65044 90.957 9.39946 90.9622 9.15495 90.9176C8.91044 90.8731 8.6774 90.7798 8.46974 90.6432C8.26208 90.5066 8.08405 90.3297 7.94628 90.1228C7.80851 89.916 7.71381 89.6835 7.66784 89.4392C7.5895 88.8517 7.67736 88.2539 7.92147 87.7138C8.16558 87.1736 8.55616 86.7127 9.04892 86.3832C9.6241 85.954 10.2659 85.6222 10.9487 85.4011C11.021 85.3783 11.0843 85.333 11.1291 85.2718C11.174 85.2106 11.1982 85.1367 11.1982 85.0608C11.1982 84.985 11.174 84.911 11.1291 84.8498C11.0843 84.7887 11.021 84.7434 10.9487 84.7206C10.4267 84.4985 9.99644 84.1044 9.72966 83.6038C9.46287 83.1032 9.37562 82.5263 9.48242 81.9691C9.69006 80.694 10.376 79.5459 11.4006 78.7589C12.4955 77.885 13.8144 77.6003 15.1226 77.1231C17.4464 76.266 19.4601 74.7323 20.9039 72.7198C21.2705 72.2733 21.5326 71.7506 21.6712 71.1898C22.674 68.1315 23.683 64.5553 26.663 63.5111C27.1721 63.3211 27.7164 63.2439 28.2583 63.2845C28.8002 63.3252 29.3268 63.4828 29.8019 63.7466C30.2704 64.0818 30.6579 64.5177 30.9359 65.0222C31.2139 65.5267 31.3754 66.0871 31.4085 66.6622C31.5073 68.2051 31.5073 69.7528 31.4085 71.2957C29.9739 70.927 28.4841 70.823 27.0121 70.9888C17.9983 71.9863 14.363 81.1581 12.9037 88.6666C12.8814 88.7433 11.676 94.4978 11.3262 96.2763C10.752 96.4485 10.1367 96.4237 9.57833 96.2057C8.47961 95.7615 8.36298 94.3444 8.88933 93.3216H8.8924ZM39.1226 30.1588C39.2262 30.5095 39.6597 30.6146 39.9513 30.6836C41.8786 31.144 43.0103 30.9138 43.341 31.467C43.3706 31.5133 43.3899 31.5654 43.3976 31.6199C43.4052 31.6743 43.4011 31.7297 43.3855 31.7824C43.3221 31.8983 43.2272 31.994 43.1119 32.0584C42.9965 32.1229 42.8653 32.1535 42.7334 32.1468C41.7083 32.1154 40.0779 31.9166 40.0096 31.9059C39.8581 31.8875 39.7044 31.9097 39.5643 31.9703C39.4242 32.0309 39.3027 32.1276 39.2123 32.2505C39.1219 32.3735 39.0658 32.5183 39.0498 32.6701C39.0337 32.8219 39.0583 32.9752 39.1211 33.1143C39.2019 33.2502 39.3148 33.3643 39.4499 33.4464C39.585 33.5285 39.7382 33.5763 39.896 33.5854C40.8687 33.7029 41.8021 34.0395 42.6259 34.5698C42.7394 34.6397 42.838 34.7314 42.9159 34.8395C42.9939 34.9476 43.0497 35.07 43.0802 35.1998C43.0636 35.318 43.006 35.4266 42.9175 35.5067C42.2439 36.0975 41.1098 35.4438 40.3034 35.2189C39.0198 34.8614 37.196 34.7018 36.2876 35.6747C36.1486 35.8216 36.0416 35.9958 35.9736 36.1863C35.9056 36.3768 35.8779 36.5794 35.8924 36.7811C35.9643 37.3541 36.1063 37.9161 36.3152 38.4545C36.4257 38.8074 36.5784 39.2893 36.3551 39.5686C36.2949 39.6488 36.2163 39.7135 36.126 39.7573C36.0356 39.801 35.9362 39.8225 35.8358 39.8199C35.7355 39.8174 35.6372 39.7909 35.5493 39.7426C35.4613 39.6943 35.3861 39.6257 35.33 39.5425C34.3909 38.4016 34.5221 37.8545 33.6827 37.4954C33.4639 37.4382 33.2347 37.4337 33.0138 37.4822C32.793 37.5308 32.5867 37.631 32.4121 37.7747C31.7128 38.3431 31.1387 39.0502 30.7259 39.8513C30.3131 40.6524 30.0706 41.5303 30.0137 42.4297H21.5638C21.9289 39.5524 22.9859 36.8065 24.6443 34.4271C28.1124 29.4483 34.1032 27.0614 40.6717 28.0496C41.0492 28.1044 41.4202 28.1975 41.7789 28.3274C42.072 28.4164 42.6098 28.7333 42.4878 29.0179C42.4456 29.113 42.3252 29.1714 42.1472 29.1913C41.1497 29.2834 40.6794 29.031 39.6743 29.268C39.4831 29.3135 39.3176 29.4326 39.2137 29.5994C39.1099 29.7662 39.076 29.9672 39.1195 30.1588H39.1226ZM21.4832 43.1402H29.9461C29.6177 46.9911 34.5858 48.511 37.3886 45.8862C39.952 43.4831 43.6173 42.3568 48.583 42.455C54.6183 42.5686 58.4807 44.1108 60.7395 47.3087C61.5047 48.4126 62.037 49.6607 62.304 50.977C62.6948 53.0917 62.9147 55.2345 62.9615 57.3844C63.161 63.066 63.2431 66.9062 63.1273 77.4868C57.1349 81.1313 53.795 83.1461 53.7175 83.2213C53.5472 83.3556 53.6055 83.0986 53.6055 93.7413L44.4244 93.7021C44.3369 93.472 44.1574 93.0592 44.0822 92.862C44.2587 92.4277 43.2382 87.518 43.1224 87.0001C45.9236 84.4405 48.1245 81.2933 49.5674 77.7837C51.9826 71.9982 52.8988 65.6967 52.2313 59.463C52.1531 58.8822 52.0147 58.3111 51.8185 57.7589C51.6649 57.1805 51.3803 56.6453 50.9868 56.1944C50.8172 55.9831 50.6014 55.8134 50.3561 55.6982C50.1108 55.583 49.8424 55.5255 49.5715 55.5299C49.3005 55.5344 49.0341 55.6007 48.7927 55.7238C48.5513 55.847 48.3413 56.0237 48.1786 56.2405C47.6238 55.6724 46.8818 55.3249 46.0902 55.2625C45.2985 55.2002 44.5112 55.4271 43.8743 55.9013C43.7676 54.6469 43.5267 52.4801 43.3142 51.3445C43.3042 50.9925 43.1644 50.6566 42.9217 50.4013C42.6791 50.1461 42.3506 49.9895 41.9996 49.9617C41.6485 49.9339 41.2995 50.0369 41.0197 50.2508C40.7399 50.4647 40.549 50.7744 40.4837 51.1205C40.4346 51.9132 40.4495 52.7087 40.5282 53.499C40.9648 65.3103 40.6418 62.8965 40.6449 66.4343C40.6449 70.0405 40.0702 72.8402 37.2566 74.7975C36.3028 73.7976 35.1962 72.9557 33.9781 72.3031C34.0011 70.7863 34.2336 57.5279 34.2344 57.4259C34.2346 57.3482 34.2093 57.2726 34.1623 57.2107C34.1153 57.1489 34.0492 57.1042 33.9743 57.0837H33.9605C31.1492 56.7388 28.4688 55.6962 26.1635 54.0507C22.694 51.5601 21.0359 47.6893 21.4832 43.1402ZM36.7756 99.5502C36.9497 99.1229 36.2707 98.9203 36.0996 99.3408C35.1038 101.789 34.1872 104.268 33.3513 106.776C33.1917 106.788 27.296 106.776 23.7758 106.776C23.7712 105.778 23.7505 102.526 23.7443 101.658C24.4736 99.7246 25.3959 97.8697 26.4973 96.1213C27.7388 93.9023 29.2963 91.8755 31.1208 90.1044C35.7037 85.7709 41.1052 87.2402 43.0426 92.1139C44.884 96.7436 45.7219 100.266 44.5717 104.57C44.4121 105.166 44.0768 106.405 43.984 106.776H34.1001C34.9152 104.339 35.808 101.93 36.7771 99.5502H36.7756ZM51.3221 60.7052C51.248 60.8618 51.132 60.9948 50.987 61.0896C50.842 61.1844 50.6736 61.2372 50.5004 61.2423C49.4845 61.1809 49.252 60.1389 49.0349 59.6103C49.0702 58.6863 48.9403 57.7633 48.6513 56.885C48.7049 56.6931 48.8212 56.5246 48.9817 56.4066C49.1421 56.2885 49.3376 56.2276 49.5367 56.2336C49.7764 56.2542 50.0077 56.3319 50.2113 56.4601C50.4148 56.5884 50.5847 56.7635 50.7068 56.9709C50.9301 57.3503 51.0997 57.7588 51.2109 58.1847C51.3576 58.6083 51.4627 59.0451 51.5247 59.4891C51.5734 59.9054 51.5031 60.3271 51.3221 60.7052ZM41.3761 65.8412C41.5354 61.9924 41.496 58.1379 41.2579 54.2931C41.2004 52.9596 41.1551 51.9062 41.1628 51.4005C41.1735 50.654 42.3482 50.3341 42.5438 51.1389C42.7151 51.8907 42.8343 52.6534 42.9006 53.4215C42.9643 54.0492 43.1937 55.9619 43.2229 56.644C43.2254 56.7135 43.2481 56.7807 43.2882 56.8375C43.3283 56.8943 43.3841 56.9381 43.4487 56.9637C43.5133 56.9893 43.584 56.9954 43.6521 56.9814C43.7202 56.9675 43.7828 56.9339 43.8321 56.885C44.0904 56.581 44.4147 56.34 44.7803 56.1806C45.146 56.0211 45.5432 55.9473 45.9417 55.9649C46.3402 55.9824 46.7294 56.0908 47.0796 56.2818C47.4298 56.4728 47.7317 56.7413 47.9623 57.0668C48.1235 57.5322 48.2318 58.0143 48.2853 58.5039C48.3957 59.1453 48.355 59.8037 48.1664 60.4267C48.0964 60.661 47.9388 60.8594 47.7263 60.9805C47.5137 61.1015 47.2627 61.1359 47.0254 61.0765C45.5676 60.6062 46.226 58.9113 45.6075 57.6016C45.4104 57.1834 44.7958 57.5325 44.9876 57.9446C45.0205 58.0145 45.0494 58.0862 45.0743 58.1594C44.7165 57.9168 44.2793 57.8207 43.8527 57.8909C43.4262 57.9612 43.0428 58.1924 42.7817 58.5369C42.0459 59.5811 42.0052 60.8057 41.8763 62.163C41.8326 62.6233 42.54 62.6341 42.5837 62.1814C42.5832 61.1552 42.7907 60.1396 43.1937 59.196C43.2733 59.0235 43.398 58.8756 43.5545 58.7681C43.7111 58.6605 43.8938 58.5972 44.0834 58.5848C44.2729 58.5724 44.4623 58.6113 44.6316 58.6976C44.8009 58.7838 44.9437 58.9141 45.0451 59.0747C45.6413 60.1896 44.8832 61.7034 45.5922 63.1412C45.7986 63.5602 46.4093 63.198 46.2129 62.8021C46.0125 62.3075 45.9263 61.7741 45.9605 61.2415C46.1448 61.4537 46.3793 61.6164 46.6427 61.7147C46.906 61.8131 47.1898 61.8439 47.4681 61.8043C47.7464 61.7648 48.0104 61.6562 48.236 61.4885C48.4615 61.3208 48.6415 61.0992 48.7595 60.844C48.9468 61.1636 49.2104 61.4318 49.5266 61.6247C49.8428 61.8176 50.2019 61.9293 50.5717 61.9497C50.9996 61.9229 51.4001 61.7302 51.6881 61.4126C52.2252 71.1568 48.8101 80.8451 42.9336 86.2213C41.8103 81.6177 40.1546 78.1451 37.7316 75.317C41.2456 72.8456 41.3147 69.1259 41.3761 65.8412ZM30.3275 89.8351C27.7801 92.2996 25.2244 96.5019 23.729 99.729C23.7236 99.0868 23.6523 91.4656 23.6615 90.8786C23.6964 89.9952 23.5604 89.1133 23.261 88.2814C22.9133 87.4108 22.3478 86.6441 21.6187 86.0548C20.8896 85.4654 20.0214 85.0732 19.0972 84.9157C18.1731 84.7582 17.224 84.8407 16.3409 85.1553C15.4577 85.4699 14.6702 86.0061 14.0538 86.7124C15.3397 81.33 18.6919 72.6553 26.9922 71.7008C28.9902 71.4517 31.0185 71.7432 32.8656 72.5448C39.3712 75.3914 42.0229 83.8651 43.0986 90.6722C40.0004 85.6658 34.6403 85.662 30.3275 89.8351ZM44.752 94.4886L44.7451 94.4709H53.6063V106.775H44.7313C46.3526 102.445 46.3556 98.9878 44.7497 94.4886H44.752ZM54.6567 83.4691C66.2546 76.4149 74.95 71.1369 75.0229 71.0886C76.1232 71.7691 93.3605 82.4326 95.0485 83.4807C93.1925 84.5947 75.9552 94.9451 74.8472 95.6303C74.8465 95.6303 56.2004 84.386 54.6544 83.4691H54.6567ZM54.3175 84.1037L74.6738 96.3515C74.7281 96.3839 74.7902 96.401 74.8534 96.401C74.9166 96.401 74.9786 96.3839 75.0329 96.3515C75.1725 96.2687 93.4135 85.3129 95.39 84.109V109.364C94.124 110.232 75.893 122.751 74.7022 123.591C74.7022 123.591 55.1032 109.897 54.3175 109.361V84.1037Z" fill="black"/>
<path d="M117.403 103.133C114.52 101.769 111.371 101.06 108.181 101.057C104.992 101.055 101.841 101.758 98.9556 103.117C98.882 103.149 98.8214 103.205 98.7838 103.276C98.7461 103.347 98.7335 103.428 98.7481 103.507C98.7627 103.586 98.8036 103.658 98.8641 103.711C98.9246 103.763 99.0012 103.794 99.0814 103.798H117.232C117.31 103.796 117.385 103.769 117.446 103.721C117.507 103.673 117.551 103.606 117.57 103.53C117.589 103.455 117.584 103.375 117.553 103.304C117.523 103.232 117.47 103.172 117.403 103.133ZM115.465 103.089H100.767C105.509 101.331 110.723 101.331 115.465 103.089Z" fill="black"/>
<path d="M146.146 90.607C142.74 94.0198 141.982 95.6096 139.854 97.7295C138.059 99.5446 135.887 100.942 133.491 101.823C133.409 101.839 133.336 101.882 133.282 101.945C133.229 102.008 133.198 102.088 133.195 102.17C133.193 102.253 133.219 102.334 133.268 102.401C133.318 102.467 133.389 102.514 133.469 102.535C136.096 103.562 139.976 102.643 142.806 98.4684C144.354 96.1255 145.662 93.632 146.708 91.026C146.747 90.9511 146.758 90.8649 146.739 90.7827C146.72 90.7005 146.673 90.6277 146.605 90.5773C146.538 90.5269 146.454 90.5023 146.37 90.5077C146.286 90.5131 146.206 90.5484 146.146 90.607ZM145.26 92.5797C144.49 94.269 143.608 95.9051 142.621 97.4771C141.142 99.8441 139.471 101.26 137.361 101.932C136.487 102.21 135.559 102.276 134.654 102.124C139.959 99.8119 141.868 96.3178 145.26 92.5797Z" fill="black"/>
<path d="M87.176 31.4701C90.5221 34.1555 90.3118 34.0312 90.4922 34.0312C90.5639 34.0372 90.6356 34.0206 90.6973 33.9835C90.759 33.9465 90.8075 33.891 90.8359 33.8249C90.8644 33.7588 90.8713 33.6855 90.8557 33.6152C90.8402 33.545 90.8029 33.4814 90.7492 33.4335L87.6609 30.9552C87.3065 30.6698 86.8154 31.1808 87.176 31.4701Z" fill="black"/>
<path d="M102.695 28.7209C102.765 29.1752 103.452 29.0071 103.386 28.5537L102.747 24.4388C102.678 23.9885 101.99 24.1503 102.057 24.6053L102.695 28.7209Z" fill="black"/>
<path d="M115.281 30.3614L117.415 26.0118C117.616 25.6028 117.001 25.2514 116.797 25.6665L114.661 30.0161C114.46 30.4258 115.076 30.7765 115.281 30.3614Z" fill="black"/>
<path d="M129.165 45.8448C127.793 46.1992 126.445 46.6888 125.112 47.1576C125.034 47.1843 124.968 47.2366 124.925 47.3058C124.881 47.375 124.862 47.457 124.871 47.5384C124.88 47.6198 124.916 47.6958 124.974 47.7539C125.031 47.8119 125.107 47.8487 125.189 47.8581C125.347 47.8581 126.473 47.3785 129.349 46.5276C129.437 46.4999 129.51 46.4394 129.554 46.3588C129.598 46.2781 129.609 46.1837 129.584 46.0952C129.56 46.0068 129.502 45.9313 129.423 45.8846C129.344 45.8379 129.25 45.8236 129.161 45.8448H129.165Z" fill="black"/>
<path d="M79.1288 43.3894C83.4715 45.2116 83.1278 45.0774 83.2214 45.0774C83.2991 45.0774 83.3748 45.0519 83.4366 45.0048C83.4984 44.9576 83.5431 44.8915 83.5636 44.8165C83.5866 44.728 83.575 44.6341 83.5311 44.554C83.4871 44.4738 83.4142 44.4135 83.3273 44.3853L79.3283 42.7073C79.2394 42.6847 79.1452 42.6975 79.0655 42.743C78.9858 42.7885 78.9269 42.8631 78.9011 42.9511C78.8752 43.0391 78.8845 43.1337 78.927 43.215C78.9695 43.2963 79.0418 43.358 79.1288 43.3871V43.3894Z" fill="black"/>
<path d="M148.97 62.578H144.61C144.519 62.5823 144.433 62.6214 144.37 62.6874C144.307 62.7533 144.272 62.841 144.272 62.9321C144.272 63.0233 144.307 63.1109 144.37 63.1769C144.433 63.2428 144.519 63.282 144.61 63.2862H148.966C149.014 63.2884 149.062 63.2809 149.107 63.2641C149.152 63.2474 149.193 63.2216 149.228 63.1885C149.262 63.1554 149.29 63.1156 149.309 63.0716C149.328 63.0275 149.337 62.9801 149.337 62.9321C149.337 62.8842 149.328 62.8367 149.309 62.7927C149.29 62.7486 149.262 62.7088 149.228 62.6757C149.193 62.6426 149.152 62.6169 149.107 62.6001C149.062 62.5833 149.014 62.5758 148.966 62.578H148.97Z" fill="black"/>
<path d="M140.255 52.5928H143.431C143.522 52.5886 143.608 52.5494 143.671 52.4835C143.734 52.4175 143.769 52.3299 143.769 52.2387C143.769 52.1476 143.734 52.0599 143.671 51.994C143.608 51.928 143.522 51.8889 143.431 51.8846H140.255C140.164 51.8889 140.078 51.928 140.016 51.994C139.953 52.0599 139.917 52.1476 139.917 52.2387C139.917 52.3299 139.953 52.4175 140.016 52.4835C140.078 52.5494 140.164 52.5886 140.255 52.5928Z" fill="black"/>
<path d="M149.368 47.2688H143.068C142.977 47.273 142.891 47.3122 142.829 47.3781C142.766 47.4441 142.73 47.5317 142.73 47.6229C142.73 47.7141 142.766 47.8017 142.829 47.8676C142.891 47.9336 142.977 47.9727 143.068 47.977H149.366C149.457 47.9727 149.543 47.9336 149.606 47.8676C149.669 47.8017 149.704 47.7141 149.704 47.6229C149.704 47.5317 149.669 47.4441 149.606 47.3781C149.543 47.3122 149.457 47.273 149.366 47.2688H149.368Z" fill="black"/>
<path d="M87.7743 85.3965C88.2606 85.4283 88.7469 85.3354 89.1873 85.1268C89.6277 84.9182 90.0075 84.6006 90.2909 84.2042C91.0444 82.9605 90.0247 81.3223 87.8173 81.3001C86.7746 81.3001 62.2881 81.2824 61.9252 81.3116C61.43 81.3161 60.9462 81.46 60.529 81.7267C60.1119 81.9935 59.7783 82.3724 59.5666 82.82C59.1147 84.0722 60.3837 85.5692 62.7308 85.3965C62.9802 85.3965 87.3753 85.3904 87.7743 85.3965ZM88.148 84.6715C87.8411 84.6991 63.719 84.6715 62.2551 84.6883C61.3735 84.7037 60.2894 84.284 60.1835 83.3978C60.1835 82.3766 61.3643 82.0083 62.6272 82.0083H87.815C88.5776 82.0167 89.7454 82.3566 89.8336 83.2605C89.9226 84.073 88.9551 84.5993 88.151 84.6692L88.148 84.6715Z" fill="black"/>
<path d="M40.0052 89.9538L38.4891 89.4213C38.0556 89.2679 37.8553 89.9484 38.2881 90.1003C38.8171 90.3299 39.3642 90.5152 39.9239 90.6543C40.0055 90.6457 40.0818 90.6095 40.1401 90.5518C40.1985 90.494 40.2354 90.4181 40.2449 90.3366C40.2544 90.255 40.2358 90.1727 40.1922 90.1031C40.1486 90.0336 40.0827 89.9809 40.0052 89.9538Z" fill="black"/>
<path d="M119.003 63.0568C119.003 63.0568 122.677 65.1621 122.839 65.2511C122.891 65.28 122.949 65.295 123.008 65.2949C123.085 65.2948 123.16 65.2696 123.222 65.223C123.284 65.1764 123.328 65.1109 123.349 65.0365C123.37 64.9622 123.367 64.883 123.339 64.8109C123.311 64.7389 123.26 64.6779 123.194 64.6373C121.917 63.9028 120.639 63.1718 119.358 62.4445C119.317 62.422 119.272 62.4079 119.226 62.4029C119.179 62.3979 119.132 62.4022 119.088 62.4155C119.043 62.4287 119.001 62.4507 118.965 62.4802C118.929 62.5097 118.899 62.5461 118.877 62.5872C118.835 62.6669 118.824 62.7596 118.848 62.8467C118.871 62.9337 118.926 63.0088 119.003 63.0568Z" fill="black"/>
<path d="M95.7291 111.932C95.6395 111.936 95.5546 111.973 95.4912 112.036C95.4279 112.1 95.3909 112.185 95.3877 112.274V118.419C95.3919 118.511 95.4311 118.596 95.497 118.659C95.563 118.722 95.6506 118.757 95.7418 118.757C95.8329 118.757 95.9206 118.722 95.9865 118.659C96.0525 118.596 96.0916 118.511 96.0959 118.419V112.278C96.0951 112.231 96.0849 112.184 96.066 112.141C96.047 112.098 96.0196 112.06 95.9854 112.027C95.9512 111.995 95.9109 111.97 95.8669 111.954C95.8229 111.938 95.776 111.93 95.7291 111.932Z" fill="black"/>
<path d="M66.7519 82.2944C66.6616 82.2976 66.576 82.3352 66.5125 82.3993C66.4489 82.4634 66.4121 82.5494 66.4097 82.6396V83.8672C66.4097 83.9613 66.447 84.0514 66.5135 84.1179C66.58 84.1844 66.6701 84.2217 66.7641 84.2217C66.8582 84.2217 66.9483 84.1844 67.0148 84.1179C67.0813 84.0514 67.1186 83.9613 67.1186 83.8672V82.6396C67.1181 82.5926 67.108 82.5462 67.0891 82.5031C67.0702 82.4601 67.0428 82.4213 67.0086 82.3891C66.9744 82.3568 66.934 82.3318 66.8899 82.3156C66.8458 82.2993 66.7988 82.2921 66.7519 82.2944Z" fill="black"/>
<path d="M82.4628 82.2944C82.3726 82.2978 82.2871 82.3354 82.2236 82.3995C82.1601 82.4636 82.1233 82.5494 82.1206 82.6396V83.9601C82.1206 84.0541 82.158 84.1443 82.2244 84.2108C82.2909 84.2772 82.3811 84.3146 82.4751 84.3146C82.5691 84.3146 82.6593 84.2772 82.7257 84.2108C82.7922 84.1443 82.8296 84.0541 82.8296 83.9601V82.6343C82.828 82.5878 82.8172 82.5421 82.7979 82.4999C82.7786 82.4576 82.7511 82.4195 82.717 82.3879C82.6829 82.3563 82.6429 82.3318 82.5992 82.3157C82.5556 82.2997 82.5092 82.2924 82.4628 82.2944Z" fill="black"/>
<path d="M10.6782 111.731C10.7986 111.731 10.7219 111.754 12.2349 110.921C12.3114 110.872 12.366 110.795 12.3874 110.707C12.4089 110.618 12.3956 110.525 12.3503 110.446C12.3049 110.368 12.2311 110.309 12.1439 110.283C12.0568 110.257 11.963 110.266 11.882 110.307L10.4956 111.075C10.4313 111.116 10.3819 111.176 10.3546 111.247C10.3273 111.319 10.3236 111.397 10.3441 111.47C10.3645 111.544 10.408 111.609 10.4682 111.655C10.5283 111.702 10.6019 111.729 10.6782 111.731Z" fill="black"/>
<path d="M54.2661 112.278V118.416C54.2661 118.51 54.3035 118.6 54.37 118.666C54.4364 118.733 54.5266 118.77 54.6206 118.77C54.7146 118.77 54.8048 118.733 54.8713 118.666C54.9377 118.6 54.9751 118.51 54.9751 118.416V112.271C54.9742 112.177 54.9359 112.087 54.8688 112.021C54.8017 111.955 54.7112 111.919 54.6172 111.92C54.5231 111.92 54.4333 111.959 54.3675 112.026C54.3017 112.093 54.2652 112.183 54.2661 112.278Z" fill="black"/>
<path d="M74.6952 125.398C74.6056 125.401 74.5206 125.438 74.4571 125.501C74.3936 125.565 74.3565 125.65 74.353 125.739V128.939C74.353 129.033 74.3904 129.123 74.4568 129.189C74.5233 129.256 74.6135 129.293 74.7075 129.293C74.8015 129.293 74.8917 129.256 74.9582 129.189C75.0246 129.123 75.062 129.033 75.062 128.939V125.739C75.0609 125.693 75.0505 125.646 75.0314 125.604C75.0122 125.561 74.9848 125.523 74.9506 125.491C74.9164 125.459 74.8762 125.435 74.8324 125.419C74.7885 125.403 74.7419 125.395 74.6952 125.398Z" fill="black"/>
<path d="M15.9891 111.997C16.3075 112.074 16.2906 111.786 17.2167 111.081C17.5781 110.805 17.209 110.203 16.84 110.481C16.47 110.76 16.1228 111.068 15.8019 111.402C15.7589 111.449 15.7291 111.506 15.7152 111.567C15.7014 111.629 15.7041 111.694 15.7231 111.754C15.7421 111.814 15.7767 111.869 15.8234 111.911C15.8701 111.954 15.9272 111.984 15.9891 111.997Z" fill="black"/>
<path d="M13.5106 98.4031C13.766 97.661 13.9532 96.8973 14.07 96.1212C14.1375 95.6709 13.4516 95.499 13.3794 95.9555C13.2636 96.7199 13.0792 97.4723 12.8285 98.2036C12.6805 98.6417 13.3618 98.8343 13.5106 98.4031Z" fill="black"/>
<path d="M74.8847 115.989C74.9771 115.988 75.0656 115.952 75.1318 115.888C75.1979 115.823 75.2364 115.736 75.2392 115.643V102.571C75.2341 102.478 75.193 102.39 75.1247 102.327C75.0563 102.263 74.966 102.228 74.8725 102.229C74.7828 102.233 74.6977 102.27 74.6343 102.333C74.5708 102.397 74.5337 102.482 74.5303 102.571V115.647C74.5335 115.739 74.5722 115.826 74.6384 115.89C74.7045 115.953 74.7929 115.989 74.8847 115.989Z" fill="black"/>
<path d="M36.231 34.0142C36.0395 33.8751 35.8775 33.6994 35.7544 33.4972C35.6314 33.295 35.5496 33.0704 35.5139 32.8364C35.4782 32.6024 35.4893 32.3637 35.5466 32.134C35.6038 31.9043 35.7061 31.6883 35.8474 31.4984C36.1221 31.1255 35.5121 30.7572 35.2459 31.1247C35.0547 31.3936 34.9189 31.6978 34.8463 32.0196C34.7737 32.3414 34.7657 32.6744 34.8228 32.9993C34.8799 33.3242 35.0009 33.6346 35.1789 33.9123C35.3569 34.1901 35.5883 34.4297 35.8597 34.6173C36.2379 34.8797 36.6055 34.2797 36.231 34.0142Z" fill="black"/>
<path d="M22.551 39.372L22.2203 41.3738C22.1436 41.8234 22.8341 41.9983 22.9108 41.5426L23.2415 39.54C23.3129 39.0927 22.6269 38.9154 22.551 39.372Z" fill="black"/>
<path d="M124.751 72.0876C125.617 72.3422 126.539 72.3297 127.397 72.0515C127.483 72.0221 127.555 71.9608 127.597 71.88C127.639 71.7993 127.649 71.7055 127.623 71.618C127.598 71.5305 127.54 71.456 127.462 71.41C127.383 71.364 127.29 71.35 127.201 71.3709C126.466 71.5962 125.682 71.6079 124.94 71.4047C124.851 71.3835 124.757 71.3978 124.678 71.4445C124.599 71.4912 124.541 71.5667 124.517 71.6552C124.492 71.7436 124.503 71.8381 124.547 71.9187C124.591 71.9993 124.664 72.0599 124.751 72.0876Z" fill="black"/>
<path d="M114.646 57.2962C115.959 57.5095 115.95 57.511 116.002 57.511C116.407 57.511 116.539 56.888 116.107 56.8204L114.814 56.611C114.364 56.5366 114.19 57.2225 114.646 57.2962Z" fill="black"/>
<path d="M116.241 59.9931C115.762 59.9722 115.287 59.8926 114.827 59.756C114.737 59.7333 114.642 59.7468 114.562 59.7936C114.482 59.8403 114.423 59.9166 114.399 60.0061C114.374 60.0955 114.386 60.191 114.431 60.2721C114.476 60.3531 114.551 60.4133 114.64 60.4396C115.157 60.5964 115.692 60.6844 116.232 60.7012C116.701 60.7166 116.689 60.0122 116.241 59.9931Z" fill="black"/>
<path d="M108.968 80.3126C108.416 80.8946 107.934 81.5383 107.53 82.2308C107.501 82.2848 107.486 82.3456 107.487 82.4072C107.488 82.4688 107.505 82.5291 107.536 82.582C107.568 82.635 107.613 82.6789 107.666 82.7093C107.72 82.7397 107.78 82.7557 107.842 82.7556C108.259 82.7556 108.157 82.2315 109.474 80.8113C109.785 80.4722 109.281 79.9742 108.968 80.3126Z" fill="black"/>
</svg>
